<?xml version="1.0" encoding="utf-8"?>
<!-- Generator: Adobe Illustrator 25.2.1, SVG Export Plug-In . SVG Version: 6.00 Build 0)  -->
<svg version="1.1" id="Camada_1" xmlns="http://www.w3.org/2000/svg" xmlns:xlink="http://www.w3.org/1999/xlink" x="0px" y="0px"
	 viewBox="0 0 600 600" style="enable-background:new 0 0 600 600;" xml:space="preserve">
<style type="text/css">
	.st0{fill:#3EC47E;}
</style>
<g transform="translate(0.000000,600.000000) scale(0.100000,-0.100000)">
	<path class="st0" d="M134.9,5865.1c-13.4-10-23.4-1312.3-23.4-2888.5V111.5h2841.7c2417.6,0,2848.4,6.7,2888.5,46.7
		c40.1,40.1,46.7,470.8,46.7,2888.5v2841.7H3023.4C1447.2,5888.5,144.9,5878.5,134.9,5865.1z M4763.1,5290.7
		c100.2-40.1,140.2-143.6,93.5-233.8c-23.4-43.4-26.7-73.5-3.3-86.8c60.1-36.7,40.1-243.8-30.1-283.8
		c-146.9-76.8-370.7-16.7-370.7,100.2c0,80.1,83.5,86.8,126.9,13.4c43.4-76.8,153.6-43.4,167,46.8c10,56.8-6.7,83.5-56.8,96.8
		c-90.2,23.4-90.2,110.2-3.3,110.2c43.4,0,66.8,23.4,66.8,66.8c0,80.1-116.9,93.5-160.3,16.7c-26.7-50.1-140.2-40.1-140.2,13.4
		c3.3,36.7,83.5,126.9,133.6,146.9C4659.6,5324.1,4673,5324.1,4763.1,5290.7z M5387.6,5237.3c0-36.7-36.7-50.1-133.6-50.1
		c-96.8,0-133.6-13.4-133.6-50.1c0-33.4,36.7-50.1,116.9-50.1s123.6-20,150.3-63.4c50.1-96.8,40.1-257.1-20-317.2
		c-76.8-80.1-267.1-66.8-354,23.4l-76.8,73.5l80.1,10c43.4,6.7,90.2-6.7,103.5-26.7c13.4-23.4,53.4-33.4,86.8-26.7
		c46.8,6.7,63.4,40.1,63.4,110.2c0,96.8-3.3,100.2-146.9,90.2l-146.9-10l23.4,106.9c10,56.8,20,133.6,20,167
		c0,53.4,26.7,63.4,183.7,63.4C5344.2,5287.4,5387.6,5277.4,5387.6,5237.3z M2956.6,4449.2c327.2-126.9,490.9-364,494.2-701.2
		c0-267.1-103.5-454.1-323.9-567.7l-170.3-90.2l130.2-36.7c170.3-50.1,343.9-203.7,427.4-384c76.8-156.9,96.8-514.2,36.7-724.6
		c-50.1-173.6-240.4-377.3-440.8-467.5c-170.3-76.8-207-80.1-1135.4-90.2l-961.7-10v1569.5v1572.8H1898
		C2712.8,4519.4,2793,4512.7,2956.6,4449.2z M5220.6,3390.7v-260.5l-183.7-36.7c-233.7-50.1-374-150.3-454.1-323.9
		c-53.4-116.9-63.4-223.7-63.4-761.4v-627.8h-267.1h-267.1v1085.3c0,597.7-3.3,1095.3-6.7,1112c-6.7,13.4,113.5,26.7,267.1,33.4
		l273.8,10v-153.6v-156.9l90.2,110.2c110.2,130.2,317.2,227.1,487.5,230.4h123.6V3390.7z"/>
	<path class="st0" d="M1614.2,3651.2v-400.7h394c637.8,0,808.1,86.8,808.1,410.7c0,143.6-16.7,193.7-73.5,250.4
		c-126.9,116.9-247.1,140.2-697.9,140.2h-430.8V3651.2z"/>
	<path class="st0" d="M1637.6,2793c-13.4-10-23.4-223.7-23.4-470.8v-447.5l527.6,13.4c480.9,10,534.3,16.7,647.8,86.8
		c93.5,56.8,133.6,113.5,163.6,213.7c73.5,283.8-56.8,524.3-317.2,591.1C2475.7,2819.7,1674.3,2829.7,1637.6,2793z"/>
</g>
</svg>
