<?xml version="1.0" encoding="utf-8"?>
<!-- Generator: Adobe Illustrator 25.2.1, SVG Export Plug-In . SVG Version: 6.00 Build 0)  -->
<svg version="1.1" id="Camada_1" xmlns="http://www.w3.org/2000/svg" xmlns:xlink="http://www.w3.org/1999/xlink" x="0px" y="0px"
	 viewBox="0 0 200 200" style="enable-background:new 0 0 200 200;" xml:space="preserve">
<style type="text/css">
	.st0{fill:#1e3a2a;}
</style>
<g>
	<path class="st0" d="M84.5,52.4c-1.1,0.8-0.8,1.5,1.9,3.9c3.8,3.5,3.8,3.6,1.2,4.3c-2.7,0.7-2.5,2.5,0.5,3.9c1.9,0.9,3.8,0.8,8-0.2
		c4.7-1.1,6.3-1.1,10.9,0.2c5.6,1.5,10.1,0.8,9.4-1.4c-0.3-0.7-1.5-1.4-2.7-1.6c-1.7-0.3-2.1-0.8-1.6-2c1.5-3.7,1.1-4.7-2-4.5
		c-2.6,0.2-3.2-0.3-4.7-3.7"/>
	<path class="st0" d="M92.9,52.9l0.4,2.3l-3.7-1.9"/>
	<path class="st0" d="M129.3,65.1c-1,1-1.7,3.1-1.7,4.6c0,1.6-0.5,2.6-1.2,2.5c-2.9-0.3-3.8,0.2-3.8,2.4c0,3.1,2.9,5.7,6.3,5.7
		c1.5,0,3.5,0.5,4.5,1.1c2.4,1.5,7.6-0.1,8-2.4c0.3-1.2-0.4-1.7-2.3-1.7c-2.5,0-2.5-0.1-1.1-2.1c1.8-2.6,1.1-4.9-1.5-4.9
		c-1.3,0-1.9-0.7-1.9-2.3c0-2.2-1.6-4.7-3-4.7C131.2,63.3,130.2,64.1,129.3,65.1z"/>
	<path class="st0" d="M137.2,64.2c-0.4,0.7-0.5,1.5-0.2,1.8c0.9,0.9,1.9-0.4,1.4-1.8C138,63.1,137.8,63.1,137.2,64.2z"/>
	<path class="st0" d="M67.6,65.2c0,0.6,0.5,1.3,1,1.6c0.6,0.3,1-0.1,1-0.9c0-0.9-0.4-1.6-1-1.6C68.1,64.3,67.6,64.7,67.6,65.2z"/>
	<path class="st0" d="M122.8,65.5c0.2,0.6,1,1.4,1.6,1.6c0.7,0.2,1-0.2,0.6-1.2C124.3,64.1,122.2,63.7,122.8,65.5z"/>
	<path class="st0" d="M96.2,69.2c-5.7,11-8.6,35.1-6.6,56.4c0.7,8,1,18.1,0.6,23.2c-1.4,19.5-2.1,50-1.2,50.7
		c2.7,1.9,3.4-0.7,4-16.5c0.4-8.9,1.2-20.4,1.8-25.6c1.2-10.3,0.7-19.9-1.7-33.6c-2.7-15.1-2.2-23.7,2.2-38.1
		c2.1-6.8,4.1-12.4,4.5-12.4c0.3,0-0.5,3.5-1.8,7.7c-3.9,12.5-5.4,19.4-5.4,25.7c0,5.8,3.3,28.6,4.9,33.7c0.4,1.4,0.4,5,0,8
		s-1.1,13.9-1.5,24.4c-0.3,10.4-1,20.7-1.4,22.7c-0.7,3.4-0.6,3.8,1.1,3.8c2.1,0,9.4-3.4,10.2-4.7c0.3-0.5,0.1-8.5-0.4-17.8
		c-1.5-28.3-0.5-92.4,1.7-104.6c0.5-3.1,0.3-3.6-2.1-4.7c-3.4-1.5-3.5-1.5-3.5,0.5c0,1-0.5,2.5-1,3.3c-0.7,1.1-0.8,0.6-0.4-1.8
		C101,65.3,98.3,65,96.2,69.2z"/>
	<path class="st0" d="M63.9,71.6c0.4,2.6,0.2,3.7-0.9,4.1c-0.9,0.3-1.2,1.1-0.9,1.7c0.4,0.5-0.1,1.7-1.1,2.4c-1.7,1.3-1.8,1.5-0.3,3
		c1.4,1.5,10.9,3.4,16.8,3.5c2,0,2.2-0.3,1.7-2.6c-0.4-1.4-0.2-3.2,0.4-4c2-2.3,0.1-3.7-2.6-1.9l-2.4,1.5v-4.5c0-4.8-1.6-5.9-4-3
		c-1.1,1.4-1.4,1.3-2.4-0.7c-0.6-1.3-2-2.4-3-2.6C63.6,68.1,63.4,68.6,63.9,71.6z"/>
	<path class="st0" d="M78.3,70.9c-0.4,0.4-0.7,1.4-0.7,2.3c0,1.1,0.3,1.2,1.1,0.4c0.6-0.6,1-1.6,0.7-2.3
		C79.2,70.7,78.7,70.5,78.3,70.9z"/>
	<path class="st0" d="M91.6,72.9c-1,1.7-2,2.4-3.3,2c-1.5-0.3-1.6-0.2-0.6,1c1.5,1.8,0.3,5.2-1.3,3.6c-2-2-3.2-1.4-1.5,0.6
		c2.2,2.4,2.2,6.8,0.1,8c-1.1,0.6-1.3,1.1-0.5,1.6c2.4,1.5,1,8.6-1.8,8.6c-1.4,0.1-1.4,0.2,0.2,1.1c1.2,0.7,1.7,2.3,1.7,5.9
		c0,4.1-0.3,5-1.7,5c-1.7,0.1-1.7,0.1,0,1.1c2.4,1.4,2.6,15.5,0.2,14.5c-1.9-0.7-1.9,0.4,0,1.8c1.4,1,1.4,3.1,0.3,18.1
		c-1.2,16.3-1.4,44.6-0.3,49.2c0.3,1.3,1.2,2.3,1.9,2.3c1.1,0,1.5-4.2,2-20.8c0.3-11.4,1-23.6,1.5-27.2c0.6-4.6,0.5-10.8-0.6-21
		c-2-20.3-0.2-42.9,4.3-53.9C93.9,70.3,93.5,69.3,91.6,72.9z"/>
	<path class="st0" d="M107.8,77.1c-1.2,7.4-1.5,51.3-0.3,56.6c0.4,2.3,1.2-0.1,3-10c1.3-7.1,2.8-13.4,3.3-14.1
		c0.5-0.7,0.5-1.4-0.1-1.7c-1.1-0.7-0.3-7.5,1.1-9.3c0.5-0.7,0.5-1.4-0.2-1.8c-1.5-1-1.2-5.5,0.5-6.1c1.9-0.8,2-2.4,0.1-2.4
		c-2.3,0-3-3.9-1.2-5.9c2.1-2.3,2-3.5-0.1-2.7c-1.6,0.6-1.6,0.6,0-1.2c2.2-2.4,2.2-3.5-0.1-2.8c-1.4,0.5-2.2-0.2-3.3-2.6l-1.5-3.2
		L107.8,77.1z"/>
	<path class="st0" d="M60.2,73.3c0.2,0,0.4-0.5,0.4-1c0-0.6-0.5-1-1.1-1"/>
	<path class="st0" d="M125.8,85.4c-0.5,1.3-1.2,8.7-1.5,16.4c-0.9,20.3-2.2,24.7-12.4,40.2c-2.8,4.2-3.5,6.5-4,12.2
		c-0.3,3.9-0.3,7.1,0.1,7.1c2.7,0,11.5-9.7,16.3-18.1c5.9-10.2,11-33.4,9.8-44.4c-0.8-7.6-2.5-14.5-3.5-14.5c-0.5,0-1.5-0.3-2.4-0.6
		C127.1,83.3,126.3,83.9,125.8,85.4z"/>
	<path class="st0" d="M122.6,86.2c0,0.7-0.9,0.9-2.7,0.5c-2.7-0.7-2.7-0.6-1.1,1.2c1.3,1.5,1.5,3.2,1.1,8.2
		c-0.4,4.7-0.9,6.2-1.9,5.8c-1.7-0.7-1.7-0.1-0.2,2.3c1.5,2.5-1.5,20.2-4.3,24.9c-2,3.5-4.1,11.2-3,11.2c1.4-0.1,8.5-13.6,9.8-18.8
		c1.4-5.8,3.7-35.2,2.8-36.1C122.8,85.2,122.6,85.5,122.6,86.2z"/>
	<path class="st0" d="M66.9,94c-0.4,3.8-0.8,11.3-0.8,16.8c0,8.9,0.4,10.9,3.3,18.2c3.5,8.6,12.2,22.9,12.2,19.9
		c0-0.9-1.3-3.6-2.8-5.9c-7.5-11.2-9.5-20.5-8.6-40.5c0.6-13.4,0.5-15.2-0.9-15.2C68.1,87.3,67.6,88.9,66.9,94z"/>
	<path class="st0" d="M58.7,140.3c3.9,0,5.4,1.7,4.2,4.7c-0.5,1.2-0.2,1.5,1,1c2.1-0.8,4.1,1.5,2.5,3.1c-1.6,1.6-0.2,2.8,1.5,1.4
		c1.1-0.9,2-0.5,4.2,1.8c3,3.2,7.2,4,8.1,1.6c0.3-0.8-1.3-4.2-3.6-7.6c-5.2-7.6-9.8-18.3-11.6-27c-1-5.1-1.1-9.1-0.4-17.1
		c0.5-5.7,1.2-11.2,1.5-12.2c0.8-2-0.8-2.3-2.4-0.4c-0.6,0.8-1.7,3-2.6,4.9c-1.2,3-1.8,3.5-3.7,3.1"/>
	<path class="st0" d="M134.1,89.8c1.8,4.8,1.7,20.9-0.3,30.5c-3.4,16.6-8.9,27.4-20.1,39.4l-3.6,3.8l4.7-0.6
		c3.9-0.6,4.8-0.4,5.6,1.1c0.6,1,1.4,1.4,1.8,1c0.5-0.4,0.2-1.7-0.5-2.9c-2.1-3.3,0.2-4.4,3.9-1.8c3.9,2.8,5.4,1.6,1.8-1.5
		c-2.1-1.8-2.4-2.6-1.5-3.4c0.8-0.6,1.8-0.6,2.7-0.1c0.8,0.6,2.2,1,3,1c1-0.1,0.8-0.7-0.9-2.1c-2.1-1.7-2.3-2.2-1.1-4.4
		c0.8-1.5,1.8-2.1,2.8-1.8c1.2,0.5,1.4,0.1,0.9-1.9c-0.4-1.4-0.1-4.3,0.7-6.4c1.1-3,1.8-3.8,3.5-3.7c2.4,0.3,2.9-1.5,0.6-2.3
		c-1.5-0.6-1.9-3.1-0.9-5.7c0.3-0.9,1.4-1.2,3.1-0.9c1.8,0.3,2.4,0.1,1.9-0.7c-0.4-0.6-1.6-1.1-2.7-1.1c-1,0-1.9-0.4-1.9-0.9
		c0-2.3,1.4-4.1,3.1-4.1c2.5,0,2.4-1.6-0.1-2.3c-1.7-0.4-2-1.4-2-6.1c0-3.5,0.4-5.6,1.1-5.6c0.8,0,0.7-0.5-0.2-1.6
		c-1.1-1.3-1-1.7,0.4-2.5c2.1-1.2,2.3-3.3,0.3-2.6c-1,0.4-1.7-0.3-2.1-2.3c-0.4-1.6-0.5-3.3-0.3-3.7c0.3-0.5-0.7-1.9-2-3.3
		C133.7,88.2,133.4,88.1,134.1,89.8z"/>
	<path class="st0" d="M73,93.5c0,2.4-0.2,9.9-0.4,16.8c-0.3,14,1.5,22,6.7,29.5l2.8,4l0.3-4.3c0.2-2.5-0.6-7.2-1.7-10.9
		c-1.7-5.2-1.8-6.8-0.8-8.4c1-1.6,0.9-2.1-0.1-2.8c-0.9-0.5-1.3-2.3-1.1-4.7c0.1-2.2-0.1-5.2-0.5-6.7c-0.6-1.8-0.4-3.3,0.3-4
		c0.8-0.8,0.7-1.5-0.5-2.8c-0.9-1-1.4-2.8-1.2-4.1c0.2-1.8-2.1-5.8-3.5-5.8C73.2,89.3,73,91.2,73,93.5z"/>
</g>
</svg>
