<?xml version="1.0" encoding="utf-8"?>
<!-- Generator: Adobe Illustrator 25.2.1, SVG Export Plug-In . SVG Version: 6.00 Build 0)  -->
<svg version="1.1" id="Camada_1" xmlns="http://www.w3.org/2000/svg" xmlns:xlink="http://www.w3.org/1999/xlink" x="0px" y="0px"
	 viewBox="0 0 200 200" style="enable-background:new 0 0 200 200;" xml:space="preserve">
<style type="text/css">
	.st0{fill:#3ec47e;}
</style>
<g>
	<path class="st0" d="M93.9,94.1c-4.7,1.4-5.7,3.1-4.5,7.6c1.4,5,1.5,4.7-1.5,8.2c-2.4,2.9-2.5,3.2-1.1,7.8c1.5,5,1.3,6.8-0.9,9.3
		c-1.1,1.3-1,2.3,0.7,6c1.6,3.6,1.8,4.9,0.8,6.6c-0.8,1.7-0.8,3,0.2,5.7c1,2.9,1,4.3,0,7.5c-1.1,3.4-1.1,4.3,0.4,7.2
		c0.9,1.8,1.5,4.4,1.2,5.7c-0.3,1.4,0.2,3.8,1.1,5.3c1.4,2.4,1.4,3.3,0.3,6.7c-1,3.2-1.1,4.5-0.1,6.2c0.6,1.3,0.9,3.3,0.6,4.6
		c-0.3,1.3,0.1,3.6,0.9,5.1c0.8,1.6,1.5,3.4,1.5,4c0,1.4,4.6,2.4,10.5,2.4h4.3l0.7-25.7c0.9-30.2,0.1-59.5-1.8-67.3
		c-1.6-6.7-6.1-14-8.5-13.9C97.8,93.1,95.6,93.6,93.9,94.1z M98.5,98.5c0,0.8-0.4,1.5-0.9,1.5c-1.3,0-2.2-1.6-1.4-2.4
		C97.3,96.5,98.5,97,98.5,98.5z M100.5,105.5c0,0.8-0.7,1.5-1.5,1.5c-0.8,0-1.5-0.7-1.5-1.5c0-0.8,0.7-1.5,1.5-1.5
		C99.8,104,100.5,104.7,100.5,105.5z M102,114.5c0,2.8-2.9,2.5-3.3-0.3c-0.3-1.9,0-2.3,1.5-2C101.2,112.4,102,113.4,102,114.5z
		 M102.9,122.7c0.4,0.9,0.3,2-0.2,2.5c-1.1,1.1-4.2-0.1-4.2-1.6C98.5,120.7,101.9,120,102.9,122.7z M103.5,132.6
		c1.1,1.2,1.1,1.8-0.2,3.1c-1.9,1.8-3.8,1-3.8-1.6C99.5,130.8,101.5,130.1,103.5,132.6z M103.2,143.6c0.8,2.1-1.3,4.2-2.8,2.7
		c-1.3-1.3-0.5-4.3,1.1-4.3C102.1,142,102.8,142.7,103.2,143.6z M104,155.5c0,2.1-3.1,3.3-4.6,1.8c-0.5-0.5-0.7-1.7-0.3-2.7
		C100,152.2,104,152.9,104,155.5z M103.5,165c0,2.1-2.4,2.8-3.5,1c-0.8-1.4,0.3-3,2.1-3C102.9,163,103.5,163.9,103.5,165z
		 M102.8,173.4c0.7,1.9-1.8,4.2-2.8,2.6c-0.8-1.3,0.1-4,1.4-4C101.9,172,102.5,172.6,102.8,173.4z M102.9,182.9
		c0.9,1.4-0.4,4.1-1.9,4.1s-2.8-2.7-1.9-4.1c0.3-0.5,1.1-0.9,1.9-0.9C101.8,182,102.6,182.4,102.9,182.9z M102.3,193.3
		c0.2,1-0.3,1.7-1.1,1.7c-1.6,0-3-2.4-1.9-3.4C100.3,190.6,102,191.5,102.3,193.3z"/>
	<path class="st0" d="M105.5,94.8c0,0.2,0.8,2.5,1.9,5.3c4.1,10.9,4.6,18.1,4.4,59.2c-0.2,33.5,0,39.3,1.2,39.3c2.4,0,3.8-4,4-11.9
		c0.5-15.2-0.3-13.5,6.6-15c7.9-1.6,14.6-7.8,17.8-16.4c2.3-6.4,2.8-15.9,1-20.4c-1.1-2.6-1.2-2.3-2.5,5.1
		c-1.6,8.9-5.8,19.7-9.8,24.9c-3.1,4-8.1,6.6-9.8,4.9c-0.8-0.8,0-1.5,2.5-2.6c7.1-2.9,15.1-19.8,15.2-32.1c0-6,0-6-3-6.3
		c-4.4-0.4-6.8,2.8-10,13.3c-2.9,9.6-6.1,15.3-7.7,13.7c-0.6-0.6-0.5-6,0.2-14.8c2.1-23.3,0-35.7-7.2-43.1
		C107.6,95.1,105.5,93.8,105.5,94.8z M133.1,132.7c0.3,0.6,0.1,1.6-0.5,2.2c-0.9,0.9-1.4,0.8-2.1-0.3c-0.9-1.5-0.4-3,1-3
		C132,131.6,132.7,132.1,133.1,132.7z M132.3,139.3c-0.4,2.2-2.2,2-2.6-0.1c-0.2-1,0.3-1.6,1.3-1.6S132.5,138.3,132.3,139.3z
		 M130.9,147.1c0.3,0.9-0.1,1.8-1,2.2c-1.9,0.7-2.8-0.2-2.1-2.2C128.6,145.2,130.1,145.2,130.9,147.1z M127.5,155.6
		c0,1.1-0.7,2-1.5,2c-0.8,0-1.5-0.9-1.5-2s0.7-2,1.5-2C126.8,153.6,127.5,154.5,127.5,155.6z M121.7,162.8c-1.5,1.5-2.6,0.4-1.8-1.8
		c0.5-1.3,0.9-1.5,1.8-0.6C122.6,161.3,122.6,161.9,121.7,162.8z"/>
	<path class="st0" d="M84.4,100.3c-3,5.7-4.9,16.5-4.9,28.8c0,24.5,4.4,61.2,7.7,64.6c2.2,2.2,3.6,1.7,2.8-0.9
		c-0.4-1.2-0.8-3.8-0.9-5.7c-0.2-1.9-0.8-4.5-1.5-5.7c-0.9-1.9-0.9-2.9,0.4-5.3c1.4-2.7,1.4-3.3-0.1-6.1c-0.9-1.8-1.3-4.1-1-5.5
		c0.4-1.3-0.1-4.2-1-6.4c-1.4-3.5-1.5-4.7-0.4-8c1.1-3.4,1.1-4.2-0.4-6.5s-1.6-3.1-0.5-5.6c1-2.5,0.9-3.6-0.7-7
		c-1.7-3.9-1.7-4.2,0.1-7.4c1.6-3.1,1.6-3.9,0.5-8c-1.2-4.3-1.1-4.8,0.9-7.5c2.1-3,3-10,1.1-10C86,98.1,85,99.1,84.4,100.3z"/>
	<path class="st0" d="M61.5,139c0,1,0.9,2.1,2,2.4c1.5,0.4,2,1.4,2,3.6c0,2.7,0.4,3.2,2.9,3.7s3,1.2,3.3,3.8c0.2,2,0.9,3.2,2.1,3.4
		c2.8,0.6,2.3-7.4-0.8-12.1C69.1,138.1,61.5,134.9,61.5,139z"/>
	<path class="st0" d="M57.2,134.4c-2.2,2.2,1.6,9.3,7.9,14.7c2.1,1.7,5.2,4.7,7,6.6l3.4,3.5V156c0-2.4-0.5-3.3-2.2-3.9
		c-2.7-0.8-3.8-2.2-3.8-4.9c0-1.4-1-2.5-3-3.2c-2.2-0.8-3-1.8-3-3.5c0-1.4-1.1-3.4-2.5-4.6C58.2,133.5,58.1,133.4,57.2,134.4"/>
	<path class="st0" d="M57.1,134.5c2.3,7.3,8.6,16.3,15.5,21.7l4.1,3.2l-0.7-4.9c-0.6-4.1-1.5-5.6-5.2-8.9c-2.4-2.2-6.6-6.1-9.4-8.6
		C57.8,133.6,56.6,132.9,57.1,134.5"/>
</g>
</svg>
