<?xml version="1.0" encoding="utf-8"?>
<!-- Generator: Adobe Illustrator 25.2.1, SVG Export Plug-In . SVG Version: 6.00 Build 0)  -->
<svg version="1.1" id="Camada_1" xmlns="http://www.w3.org/2000/svg" xmlns:xlink="http://www.w3.org/1999/xlink" x="0px" y="0px"
	 viewBox="0 0 200 200" style="enable-background:new 0 0 200 200;" xml:space="preserve">
<style type="text/css">
	.st0{fill:#1e3a2a;}
</style>
<g>
	<path class="st0" d="M96,78.5c0,0.3,1.1,2.7,2.4,5.3c1.3,2.7,3.9,9.3,5.8,14.8c3.3,9.9,3.3,10,3.1,27.4c-0.1,9.6-1.1,26.9-2.3,38.5
		c-1.1,11.6-2,23-1.9,25.5c0,4,0.3,3.5,1.8-4c3.2-15,4.6-32.6,4.6-58c0-27.1-0.7-31-6.7-42.1C100.2,81.2,96,76.6,96,78.5"/>
	<path class="st0" d="M102.5,82.9c7,10.4,7.7,14.6,8.2,44.1c0.4,23.2,0.2,28.5-1.7,42.5c-1.2,8.8-2.8,18.7-3.6,22
		c-1.8,7.9-1.8,8.5,0.6,8.5c4.1,0,6.6-4.1,7.9-12.6l1.3-8.1l7.1,0.5c4,0.2,9-0.1,11.3-0.7c9.1-2.4,15.4-9.3,15.4-16.7
		c0-8.1-2-9.8-3.9-3.1c-2,6.6-5.8,11.6-10.4,13.8c-7.5,3.4-16.8,1.9-17.5-2.9c-0.4-2.7,2.9-4.2,9.1-4.2s8.9-1.8,12-8
		c3.7-7.4,1.9-7.6-4.8-0.7c-5.7,6.1-8.9,7.4-13.8,6c-2.7-0.7-3.3-1.4-3.5-4.3c-0.2-1.8-0.1-4.8,0.2-6.5c0.6-2.9,1.1-3.3,5.1-3.8
		c5.6-0.8,11.7-3.9,14.4-7.3c7.7-9.8,9.5-37.9,3.2-50.3c-1.8-3.3-1.8-3.3-2.4-1c-0.3,1.3-0.6,6.9-0.6,12.4c0,10.7-2,22.5-4.7,27.8
		c-2.7,5.4-7.5,9.7-10.7,9.7c-4.1,0-3.2-3,1.3-4.5c4.2-1.4,7.6-6.8,8.5-13.7c0.6-4.1-1.4-25.5-3.1-33.8c-0.5-2.3-0.6-2.4-1.6-0.6
		c-0.7,1.3-0.9,7.8-0.5,19.8c0.4,12.2,0.3,18.6-0.5,20.3c-1,2.3-6,4.9-7.2,3.8c-0.3-0.4-0.6-4-0.6-8.2c0-23.5-5-38.9-14.1-43.6"/>
	<path class="st0" d="M92.2,81.7c-1.2,3-0.5,19.9,1.3,35.8c2.2,18.1,2.5,32.9,0.8,34.6c-2.2,2.2-4-4.6-6.2-23.8
		c-2.4-19.9-4-26.7-7.1-30.1c-2.5-2.6-4.5-2.9-3.5-0.5c0.7,1.9,1.1,4.3,4.6,25.8c2,12.5,5.1,22.6,9.1,29c3.4,5.6,1.8,9.3-3,7.1
		c-3.6-1.6-6.8-9-10.8-25.3c-2.8-11.3-3.8-17.6-4.2-26.6C73,101.3,72.4,96,72.1,96c-1.3,0-4.9,4.4-6,7.3c-2.4,6.3-0.8,22.8,3.4,35.7
		c4.4,13.2,10.4,21.4,17.3,23.5c2.4,0.7,3,2.4,1,2.6c-10,0.9-15.8-4.9-23.8-23.9c-4.5-10.5-8-14.8-8-9.8c0,4.1,4.7,17.8,7.8,22.6
		c5.9,9.2,14.4,15.3,23.6,16.9l4.1,0.7l-0.1,6.4c-0.1,3.6-0.4,9-0.9,12c-0.8,6.3,0.4,8.2,6.2,9.5c3.9,0.8,3.4,3.6,6.9-36.5
		c3.3-37.8,3-52.2-1.1-65c-2.8-8.9-7.2-18-8.7-18"/>
	<path class="st0" d="M130,83.5c-1,1.2-0.9,4.6,0.9,18.2c1.1,9.1,2.3,16.8,2.5,17c0.8,0.8,1.7-13.3,1.5-22.2
		c-0.2-5-0.1-9.6,0.2-10.3c0.2-0.8-0.5-2-1.7-2.8C131.5,82.1,131.1,82.1,130,83.5z"/>
	<path class="st0" d="M74,103.6c0,10.1,7,41.5,11,49.3c2,3.9,5.4,6.8,6.3,5.4c0.3-0.5-0.6-3.1-2-5.8c-6.2-12.7-7.8-18.8-10.8-41
		c-0.7-6.1-1.7-11.8-2.1-12.8C75.1,95.1,74,97.2,74,103.6z"/>
	<path class="st0" d="M132.1,121.6c0,1.1,0.3,1.4,0.6,0.6c0.3-0.7,0.2-1.6-0.1-1.9C132.3,119.9,132,120.5,132.1,121.6z"/>
	<path class="st0" d="M52,131.9c-3.8,7.2,3.5,28.6,12.7,37.3c4.1,3.9,11.8,7,19,7.6c5.9,0.4,6.3,0.3,6.3-1.6c0-1.6-0.8-2.3-3.7-2.8
		c-15.3-2.8-28.3-18.7-31-38C54.7,129.6,53.7,128.9,52,131.9"/>
	<path class="st0" d="M122.3,137c-1.3,0.5-2.3,1.2-2.3,1.5c0,0.9,1.6,0.5,3.6-1C125.8,135.9,125.5,135.7,122.3,137z"/>
	<path class="st0" d="M141.5,154.7c-1.9,7.9-8.6,13.3-16.7,13.3c-2.3,0-5,0.5-5.8,1c-2.6,1.8,1.6,4,7.5,4c7.3,0,11.4-2.5,14.7-9.2
		c3.6-7.2,4.6-11.8,2.5-11.8C142.9,152,141.9,153.2,141.5,154.7z"/>
</g>
</svg>
