<?xml version="1.0" encoding="utf-8"?>
<!-- Generator: Adobe Illustrator 25.2.1, SVG Export Plug-In . SVG Version: 6.00 Build 0)  -->
<svg version="1.1" id="Camada_1" xmlns="http://www.w3.org/2000/svg" xmlns:xlink="http://www.w3.org/1999/xlink" x="0px" y="0px"
	 viewBox="0 0 200 200" style="enable-background:new 0 0 200 200;" xml:space="preserve">
<style type="text/css">
	.st0{fill:#3ec47e;}
</style>
<g>
	<path class="st0" d="M94.7,29.3c-1.3,2.2-1.3,3.3,0.3,6.2c1,1.9,1.1,3,0.3,5.5c-0.7,2.2-0.7,3.6-0.1,4.7c0.6,1.2,0.6,2-0.3,3.1
		c-1.4,2-1.4,16.2,0.1,19.1c0.8,1.8,0.9,2.8,0.2,4.8c-0.8,2.2-0.8,3.1,0.4,5.5c1.1,2.3,1.2,3.5,0.5,5.4c-0.7,1.8-0.6,3.2,0.3,5.3
		c1,2.4,1,3.3,0,5.7c-1,2.4-1,3,0.1,4.7c1,1.6,1.1,2.5,0.3,4.6c-0.8,2.3-0.6,3,1,5.2c1.8,2.3,1.8,2.6,0.4,5.4
		c-1.3,2.7-1.3,3.2-0.1,6.4c1.3,3.3,1.3,3.8,0,6.3c-1.3,2.6-1.3,2.9,0.4,6.4c0.9,1.9,1.8,4.3,1.7,5.1c0,1.5-0.1,1.5-0.8-0.1
		s-0.7-1.6-1.3-0.1c-0.3,0.8-0.2,2.7,0.3,4.1c0.8,2,0.7,2.8-0.3,4.3c-1.4,2-1.7,5.2-0.4,5.9c0.5,0.3,0.8,2,0.8,3.8
		c0,2.1,0.7,4.3,1.8,5.8c1.7,2.3,1.7,2.6,0.4,4c-1.8,1.9-1.8,4.4-0.3,6.4c1,1.4,1,1.9,0,3.9c-1.5,2.9-1.5,4.4,0.2,7
		c1.3,1.9,1.3,2.2,0,3.6c-1.7,1.8-1.7,3.3,0,5.2c1.2,1.3,1.2,1.6-0.4,3.2c-1,1-1.8,2.1-1.8,2.5c0,1.6,5,2.3,9,1.3
		c2.2-0.6,2.5-3.3,0.6-5.4c-1-1.1-1.1-1.8-0.3-3.9c0.8-2.1,0.8-2.9-0.3-4.6c-1-1.5-1.2-2.8-0.8-4.9c0.3-1.6,0.3-3.9-0.2-5.2
		c-0.6-1.7-0.5-3.4,0.3-5.6c0.8-2.5,0.8-3.8,0.2-5.6c-0.6-1.3-0.9-4.4-0.9-7c0.1-2.6-0.3-5.4-0.8-6.4c-0.4-0.9-0.7-3.1-0.3-4.8
		c0.3-1.8,0.1-3.5-0.6-4.3c-0.8-1-0.8-1.6-0.2-2.3c0.6-0.6,1-2.8,1-4.9c0-2.2,0.4-4.3,0.8-4.5c0.9-0.6,1.2-5.7,0.3-6.6
		c-0.3-0.3-0.7-4.4-0.8-8.9c-0.1-5.1-0.5-8.9-1.1-9.5c-0.8-0.9-0.8-1.7-0.2-2.9c1.2-2.1,1.2-7.4,0.1-8c-0.6-0.3-0.5-1.1,0.1-2.3
		c0.5-0.9,0.7-2.5,0.3-3.5c-0.9-2.8-2.2-11.5-2.1-15.1c0-1.8-0.3-3.7-0.8-4.3c-0.6-0.8-0.4-1.9,0.5-4.2c1-2.5,1.1-3.6,0.3-5.4
		c-0.7-1.6-0.7-2.9-0.1-4.6c0.7-1.7,0.6-3-0.3-5.2c-0.7-1.7-1-4-0.7-5.4c0.3-1.7,0-3.3-1-4.7c-1-1.6-1.3-3.1-0.9-5.3
		c0.7-4.4-0.2-6.8-2.3-6.8C96.5,27.6,95.3,28.4,94.7,29.3z M100.9,91.8c-0.3,0.8-0.4,0.2-0.4-1.4s0.2-2.3,0.4-1.5
		C101.1,89.7,101.1,91.1,100.9,91.8z M103.5,115.1v2.5l-0.7-2.5c-0.3-1.4-0.7-3.3-0.7-4.2l-0.1-1.7l0.8,1.7
		C103.3,111.8,103.5,113.7,103.5,115.1z"/>
	<path class="st0" d="M137.9,85.9c0-5.3-1.6-10.1-3.3-10.1c-1,0-1.3,1.6-1.8,6.9c-0.3,3.8-0.8,7.1-0.9,7.4c-0.3,0.3-0.8-1.8-1.3-4.4
		c-1.7-9.5-6.3-18.8-8.5-17.4c-0.5,0.3-0.8,2.1-0.8,4c0,2.3,0.3,3.1,0.8,2.3c1.3-2,2.8,8,2.9,18.5c0.1,5.4,0.2,9.9,0.3,9.9
		c0.1,0,0.9-1.3,1.8-2.8c0.9-1.4,1.7-2.1,1.7-1.4c0,1.8-2.3,4.8-4.4,5.9c-1.3,0.7-1.6,0.7-1.2,0c0.3-0.5,0.2-0.9-0.3-0.9
		c-0.5,0-1.1,0.6-1.4,1.3c-0.3,0.9-1.2,1.2-2.8,0.8c-1.3-0.3-2.6-0.1-2.8,0.3c-0.7,1-3.8-0.5-3.8-1.8c0-0.6,0.4-0.5,1.3,0.2
		c1.1,0.9,1.5,0.8,2.4-0.5c1-1.3,1.3-1.3,2.6-0.3c1.3,1,1.5,1,2.2-0.3c0.5-0.8,1.4-1.4,2.2-1.4c1,0,1.3-0.7,0.8-3.3
		c-0.3-1.8-0.1-3.5,0.3-3.8c0.9-0.6,0.4-10.2-0.7-11.5c-0.4-0.5-0.8-2.1-0.8-3.4s-0.6-2.8-1.3-3.2c-0.8-0.5-1.3-1.8-1.3-3.7
		c0-1.8-0.3-2.8-0.8-2.4c-1.3,0.8-1,4.9,0.9,12.7c1.9,7.7,1.8,13-0.3,15.1c-0.8,0.7-2.8,1.3-4.5,1.3c-2.8,0.1-3.2-0.2-3.3-2
		c-0.1-1.2-0.8-11.1-1.6-22.1c-1.3-17.4-1.3-20.1-0.3-20.4c0.6-0.3,2.4-1.7,3.9-3.2c2.4-2.4,2.7-3.2,2.7-7.6c0-5.7-1.2-10.5-2.9-12
		c-1.1-0.9-1.2-0.1-0.8,6.4c0.5,6.9,0.4,7.7-1.3,9.4c-0.9,0.9-2.4,1.8-3.2,1.8c-1.1-0.1-0.8-0.4,0.8-1.3c1.3-0.7,2.3-1.5,2.3-1.8
		c0.6-4.4,0.4-8.4-0.4-10.4c-1.1-2.5-1.1-2.5-1.6-0.6c-0.3,1.1-0.6,3.8-0.6,5.9c0,2.2-0.3,4.1-0.8,4.4c-0.8,0.5-1.1-0.7-2.3-7.4
		c-0.6-3.5-3.5-10.5-4.4-10.5c-0.3,0-0.4,2-0.4,4.4c0.1,2.4,0.7,5.8,1.4,7.4c0.8,1.8,1,3.5,0.6,4.6c-0.3,1-0.2,2.5,0.4,3.8
		c0.8,1.4,1,4.6,0.8,9.6c-0.5,11.5-0.3,16.9,0.7,18.5c0.3,0.4,0.8,4.6,1,9.2c0.3,4.5,0.8,9.6,1,11.3c0.3,1.7,0.2,3.8-0.3,4.6
		c-0.6,1.1-0.6,2.1,0,3.2c1.3,2.4,2.4,29.2,1.3,31.7c-1.3,2.8-1.3,12.6,0.1,16c1,2.5,1.1,3.8,0.4,5.6c-0.5,1.3-0.7,2.6-0.3,2.8
		c0.3,0.3,0.9,2.1,1.2,4.2c0.4,2.8,0.3,4.3-0.7,5.5c-0.9,1.3-1,2.3-0.4,3.4c0.5,0.9,0.8,3.2,0.7,5.1c-0.1,1.9,0.3,4.4,0.8,5.5
		c0.6,1.1,0.8,3,0.6,4.4c-0.7,3.3,1.3,9.1,2.8,8.9c1.8-0.3,2.3-3.4,2.4-13l0.1-8.5l4.4-2.3c6.2-3.3,7.6-7.3,7.2-19.9
		c-0.3-9.9-2.2-15.7-5-16.2c-1.3-0.3-1.4,0.3-1.1,3.1c0.2,1.8,0.7,4,1.2,4.9c0.8,1.7,1.3,9.7,0.8,15.8c-0.3,2.4-1.1,4.2-2.9,6.2
		c-1.5,1.6-2.9,2.6-3.3,2.3c-0.3-0.3,0.6-1.8,2.1-3.3c2.7-2.8,2.8-3.3,3-13.6c0-2.3-0.4-5.2-1-6.4c-0.6-1.3-1.1-3.6-1.1-5.3
		c0-3.4-1.3-3.8-2.6-0.7c-0.6,1.5-0.5,4.1,0.2,8.3c0.5,3.3,0.8,7.4,0.4,9c-0.5,2.8-2.6,5.4-3.5,4.5c-0.3-0.3-0.7-7.5-0.8-16.2
		c-0.2-8.6-0.5-20.5-0.7-26.4l-0.3-10.6h3c7.8,0,14.8-4.8,15.7-10.9c0.3-2.2,1.1-3.4,2.1-3.8C136.1,94,138,90.5,137.9,85.9"/>
	<path class="st0" d="M109.7,139.4c-0.4,1.3-0.8,1.8-0.8,1c-0.1-1.5,0.8-4.3,1.3-3.8C110.2,136.8,110,138,109.7,139.4z"/>
	<path class="st0" d="M116.3,165.3c-0.6,0.8-1.3,1.1-1.4,0.9c-0.6-0.6,0.6-2.2,1.6-2.2C116.9,164,116.9,164.5,116.3,165.3z"/>
	<path class="st0" d="M90.7,31.6c-0.4,0.8-0.8,6.7-1.1,13c-0.3,11.4-0.4,11.5-2.3,11.5c-1.8,0-2.1-0.6-2.9-4.9
		c-2.8-13.9-6.3-14.6-7.2-1.6c-0.3,3.6-0.1,4.2,1.4,4.5c0.9,0.3,2.1,1.4,2.5,2.5c0.4,1.1,1.1,1.8,1.6,1.5c0.4-0.3,1.6,0.3,2.5,1.3
		c1.4,1.4,2,1.6,3,0.8c0.9-0.8,1.2-0.7,1.2,0.4c0,0.8-0.6,1.3-1.3,1.3c-2,0-8-3.4-8.9-5.2c-0.5-0.9-1.4-1.4-2-1.2
		c-2.4,0.9-2.6-11.5-0.3-14.4c2-2.3-0.3-1.8-2.8,0.6c-2.6,2.7-2.6,2.8-2.3,9.3c0.7,11,5.5,16,14.6,14.7l3.7-0.5v13.1
		c0,12.3-0.1,13.1-1.4,12c-2.3-1.8-4.3-4.4-5.3-6.8c-2.2-5.1-6.4-2.9-5.6,2.9c0.6,4.6,4,8.6,8.9,10.4l4.1,1.4l0.5,7.5
		c0.3,4.2,0.8,12.9,1,19.4L93,137l-2.7,1c-4.2,1.4-15.5,1.2-16.7-0.3c-1.3-1.6-0.8-2.2,2.8-3.3c5.2-1.7,7-9.5,4.3-18.9
		c-2.3-7.8-5-10.4-7-6.6c-0.7,1.2-0.6,3.7,0.2,8.7c0.8,5.4,0.8,7.6,0,9.2c-0.5,1.2-1.3,2.2-1.6,2.2c-0.4,0-1.3-5-2.2-11.1
		c-1.5-10.9-4.4-19.8-6.4-19.8c-1.4,0-1.1,3.4,0.4,5.1c1.2,1.3,1.2,1.7,0.1,3.3c-1.2,1.6-1.2,2-0.1,3.8c1.2,1.8,1.2,2.2-0.2,4.4
		c-1.4,2.4-1.4,2.6,0.1,4.3c1.3,1.5,1.4,2,0.5,3.5c-0.8,1.4-0.8,1.9,0.3,3.2c0.8,0.9,1.2,2.2,0.8,3.5c-0.4,1.4,0,2.4,1.6,3.8
		c1.3,1,2.2,2.6,2.2,3.4c0,0.9,1.2,3.4,2.6,5.5c2.3,3.3,2.9,3.8,4.7,3.3c1.2-0.3,2.5-0.2,3,0.3c1,0.8,9.3-0.5,11.3-1.8
		c0.6-0.4,1-0.3,1,0.2c0,1.1-3.3,2.9-3.9,2.3c-0.3-0.3-0.9-0.2-1.5,0.3c-2.3,1.9-13.6,0.4-15-2.1c-0.5-0.9-1.6-2.6-2.3-3.7
		c-0.8-1.1-1.5-2.8-1.5-3.8s-0.8-2.5-1.7-3.3c-0.9-0.8-1.7-2.4-1.7-3.5s-0.6-2.8-1.3-4c-1-1.6-1.1-2.3-0.3-3.8
		c0.8-1.5,0.7-2.1-0.5-3.4c-1.3-1.5-1.3-1.8-0.1-4.5c0.9-1.9,1.1-3,0.5-3.4c-0.6-0.3-0.8-1.8-0.4-3.8c0.3-1.8,0.2-3.8-0.3-4.4
		c-0.4-0.5-0.9-1.7-1.1-2.6c-0.3-1.4-0.6-1.3-2.2,1.3c-2.3,3.6-2.4,11-0.6,24.9c1.5,11.2,3.8,16.3,8.9,20.1
		c4.1,3.1,12.1,4.8,20.2,4.2l5.4-0.3l0.6,22.5c0.5,21.7,1,25.7,3.3,25.7c1.5,0,3.3-4.4,2.3-5.4c-1.3-1.3-1-5.2,0.4-6.4
		c1.1-0.9,1.1-1.3,0-2.8c-1.6-2.3-1.6-4.2-0.1-7.1c1-2,1-2.5,0-3.9c-1.5-2-1.4-4.6,0.1-6.6c1.1-1.4,1-1.9-0.5-4.4
		c-0.9-1.5-1.6-3.8-1.5-5c0.2-1.3-0.3-3.2-0.8-4.2c-1.1-2-0.5-6.1,0.9-7.1c0.6-0.3,0.5-1.4-0.3-3.2c-0.8-2.1-0.8-3,0-4.5
		c0.8-1.6,0.8-2.4-0.2-4.4c-0.9-1.8-1-3.2-0.5-5.4c0.9-3.3,0.9-3.9,0.2-9.1c-0.3-2.2-0.2-4.4,0.5-5.4c0.8-1.6,0.7-2.3-0.7-4.7
		c-1.4-2.2-1.5-3.2-0.8-5.2c0.7-1.8,0.6-2.8-0.1-3.4c-1.2-1.2-1.2-5.9-0.1-6.9c0.6-0.6,0.4-1.9-0.4-4c-1-2.4-1.2-3.8-0.5-5.7
		c0.7-1.8,0.6-3.1-0.5-5.2c-1-2.3-1.1-3.3-0.4-5.4c0.8-2,0.7-3.3-0.3-5.6c-0.8-1.9-1.1-3.9-0.7-5.7c0.3-1.4,0.7-4.7,0.8-7.2
		C94.3,36,93.1,26.1,90.7,31.6z"/>
</g>
</svg>
