<?xml version="1.0" encoding="utf-8"?>
<!-- Generator: Adobe Illustrator 25.2.1, SVG Export Plug-In . SVG Version: 6.00 Build 0)  -->
<svg version="1.1" id="Camada_1" xmlns="http://www.w3.org/2000/svg" xmlns:xlink="http://www.w3.org/1999/xlink" x="0px" y="0px"
	 viewBox="0 0 600 200" style="enable-background:new 0 0 600 200;" xml:space="preserve">
<style type="text/css">
</style>
<g transform="translate(0.000000,829.000000) scale(0.100000,-0.100000) " fill="#1e3a2a">
	<g>
		<path class="st0" d="M415.4,7782.1c-92-22-182-94-221-178c-19-41-21-66-24-251c-3-205-3-205,25-280c37-97,68-120,160-120
			c35,0,78,6,96,14c41,17,83,66,92,106c5,23,12,30,31,30c13,0,24-5,24-12c0-6,9-30,20-53c28-59,79-85,164-85c96,0,119,15,161,105
			l35,74v208c0,187-2,212-21,253c-44,97-116,159-215,185c-52,13-64,13-111,0c-46-13-58-13-109,0c-32,8-61,15-64,14
			S436.4,7787.1,415.4,7782.1z M489.4,7512.1l77-21l77,22c98,27,134,22,174-27c43-52,61-113,61-205v-78h-109c-93,0-112-3-134-20
			c-33-26-94-26-127,0c-21,17-41,20-133,20h-109l4,93c4,113,37,194,91,221C402.4,7537.1,397.4,7537.1,489.4,7512.1z M488.4,7153.1
			c33-33,27-85-14-126c-33-33-37-34-110-34c-68,0-80,3-101,25c-33,32-35,98-3,132c19,21,30,23,115,23
			C455.4,7173.1,471.4,7170.1,488.4,7153.1z M887.4,7147.1c25-31,27-74,6-113c-18-36-31-41-117-41c-66,0-72,2-104,34
			c-27,27-34,42-34,74c0,60,23,72,136,72C862.4,7173.1,868.4,7172.1,887.4,7147.1z"/>
		<path class="st0" d="M444.4,6822.1c-84-13-132-83-63-93c122-19,406-11,428,11c17,17-17,60-57,73
			C711.4,6827.1,511.4,6833.1,444.4,6822.1z"/>
	</g>
	<g>
		<path class="st0" d="M1666.1,7841.8c-58-5-115-11-128-14c-35-9-53-63-50-148l3-72l319-3c185-1,323,2,330,7c7,6,9,38,6,96
			c-6,110-16,120-127,129C1855.1,7849.8,1767.1,7850.8,1666.1,7841.8z"/>
		<path class="st0" d="M1345.1,7545.8c-7-18-8-41-2-63l8-35l460-3c459-2,460-2,478,19c19,24,22,61,7,90c-10,18-26,19-476,19h-464
			L1345.1,7545.8z"/>
		<path class="st0" d="M1480.1,7317.8c-18-25-18-67,1-111c27-66,157-102,237-66c38,16,49,28,68,71c13,28,27,51,31,51s21-25,38-55
			c34-60,49-71,108-81c51-8,147,19,178,50c29,30,41,96,23,133l-13,28h-329C1506.1,7337.8,1493.1,7336.8,1480.1,7317.8z"/>
		<path class="st0" d="M1700.1,6970.8c-63-13-78-37-82-124c-5-92,3-139,29-165c17-17,34-19,172-19c148,0,154,1,175,23
			c20,21,22,34,22,128c0,128-8,143-83,157C1869.1,6982.8,1755.1,6982.8,1700.1,6970.8z M1924.1,6896.8c16-5,22-14,22-35
			c0-39-45-53-71-21c-24,30-98,31-124,2c-20-23-45-26-63-8s-15,56,6,61C1720.1,6902.8,1898.1,6903.8,1924.1,6896.8z"/>
	</g>
	<g>
		<path class="st0" d="M2921,7816.9c-98-27-176-92-220-181c-23-47-25-62-28-235c-3-211,4-241,68-272c67-34,197-14,239,35
			c7,9,19,34,26,54c20,58,45,55,75-9c34-71,62-89,147-95c82-6,129,11,156,57c16,26,17,46,8,212c-6,124-15,198-26,230
			c-19,54-82,129-137,164C3151,7826.9,3018,7843.9,2921,7816.9z M3151,7774.9c41-12,67-29,111-73c70-71,89-124,89-255v-91l-112,3
			c-103,3-115,1-135-17c-30-28-96-28-130-1c-22,17-41,20-132,20c-70,0-111-4-119-12c-16-16-17,195,0,243c28,84,99,154,185,185
			C2960,7794.9,3086,7793.9,3151,7774.9z M2948,7315.9c30-21,37-59,17-101c-22-47-59-64-139-64c-57,0-69,3-90,25
			c-34,33-35,105-3,135c18,17,35,20,108,20C2900,7330.9,2933,7325.9,2948,7315.9z M3345,7309.9c40-32,33-110-13-146
			c-9-7-47-13-88-13c-65,0-76,3-103,28c-43,38-51,94-20,127c21,23,31,25,110,25C3304,7330.9,3323,7327.9,3345,7309.9z"/>
		<path class="st0" d="M2871,7495.9c0-13,26-15,170-15s170,2,170,15s-26,15-170,15S2871,7508.9,2871,7495.9z"/>
		<path class="st0" d="M2993,7413.9c4-22,82-31,104-12c23,19,6,29-52,29C2998,7430.9,2990,7427.9,2993,7413.9z"/>
		<path class="st0" d="M2921,6993.9c-81-18-90-33-90-160c0-97,2-106,25-128c24-24,28-25,180-25c156,0,156,0,180,26
			c23,25,25,35,25,121c0,128-16,155-100,168C3066,7007.9,2979,7006.9,2921,6993.9z M3159,6904.9c13-23,4-52-19-59c-20-7-59,10-59,25
			c0,6-25,10-55,10s-55-4-55-10c0-15-39-32-59-25c-25,8-34,32-21,56c10,17,22,19,135,19C3131,6920.9,3151,6917.9,3159,6904.9z"/>
	</g>
	<g>
		<path class="st0" d="M4178.4,7818.2c-90-30-162-95-207-187c-20-41-23-63-26-241l-4-195l26-31c36-43,75-56,148-51c35,3,70,8,79,12
			c12,5,18,1,23-17c5-23,9-23,92-23c81,1,88,3,97,24c7,16,15,21,26,15c9-4,43-9,77-11c117-7,180,47,169,143c-3,28-9,113-13,190
			c-6,125-10,146-35,196c-32,67-99,132-165,162C4407.4,7830.2,4240.4,7838.2,4178.4,7818.2z M4467.4,7761.2c59-30,120-100,141-159
			c9-28,15-81,15-141v-96l-94,4c-74,3-101,1-130-13c-20-10-36-21-36-26s-20-9-45-9c-31,0-55,8-82,26c-35,24-44,25-128,22
			c-49-3-98-8-109-13c-17-8-18-2-14,111c3,97,8,126,25,160c35,67,70,101,136,134c59,30,66,31,167,28
			C4401.4,7787.2,4426.4,7782.2,4467.4,7761.2z M4079.4,7310.2c19-18,21-24,11-40c-10-16-6-24,25-56c32-32,38-34,44-20
			c4,11-1,26-11,37c-15,16-16,22-5,35c10,13,10,19-4,33c-24,27-20,32,24,32c57,0,94-37,84-82c-15-73-54-98-148-98c-58,0-70,3-91,25
			c-47,46-25,155,32,155C4049.4,7331.2,4067.4,7321.2,4079.4,7310.2z M4621.4,7311.2c32-30,31-102-3-135c-21-22-33-25-90-25
			c-80,0-121,19-141,65c-19,47-18,62,11,90c22,23,32,25,113,25C4586.4,7331.2,4603.4,7328.2,4621.4,7311.2z M4349.4,7216.2
			c7-22,14-41,14-42c0-2-22-3-50-3c-55,0-54-1-41,32c5,13,12,31,15,41C4297.4,7277.2,4333.4,7260.2,4349.4,7216.2z"/>
		<path class="st0" d="M4148.4,7511.2c-15-25,13-30,170-30c159,0,200,8,164,31C4462.4,7524.2,4156.4,7523.2,4148.4,7511.2z"/>
		<path class="st0" d="M4265.4,7414.2c3-15,14-18,58-18s55,3,58,18s-5,17-58,17S4262.4,7429.2,4265.4,7414.2z"/>
		<path class="st0" d="M4189.4,6994.2c-76-19-80-27-84-153c-4-106-3-110,22-135s27-25,184-25c153,0,159,1,180,23c20,21,22,34,22,134
			c0,122-5,134-71,154C4392.4,7008.2,4245.4,7009.2,4189.4,6994.2z M4433.4,6906.2c35-42-37-77-75-35c-25,28-87,27-114-1
			c-27-29-75-23-79,10c-2,13,2,28,10,32c7,5,65,9,129,9C4394.4,6921.2,4423.4,6918.2,4433.4,6906.2z"/>
	</g>
	<g>
		<path class="st0" d="M5270.1,7826.8c-58-23-110-76-141-142c-25-53-26-64-29-262c-3-190-2-213,17-268c12-33,21-74,21-90
			c0-44,40-220,57-254c25-47,84-126,103-136c10-6,86-10,169-10c172,0,159-5,231,99c35,52,45,80,66,177c13,63,24,128,24,145
			c0,18,9,47,21,66c20,32,21,44,17,256c-3,205-5,226-26,272c-31,68-86,121-149,145C5578.1,7851.8,5336.1,7852.8,5270.1,7826.8z
			 M5673.1,7649.8c11-7,34-37,50-66c25-46,30-68,33-144l4-90l-76,3c-52,3-92-1-126-12c-62-20-137-20-186,0c-29,12-61,15-126,12
			l-88-4v81c0,188,79,275,195,214l40-22l105,26C5604.1,7672.8,5636.1,7672.8,5673.1,7649.8z M5388.1,7287.8c16-20,19-34,14-57
			c-15-70-55-96-148-96c-58,0-70,3-91,25c-33,32-35,105-5,135c17,17,33,20,114,20C5363.1,7314.8,5367.1,7313.8,5388.1,7287.8z
			 M5777.1,7288.8c29-37,27-85-5-123c-25-29-29-31-100-31c-66,0-77,3-104,28c-42,37-52,100-21,131c18,18,33,21,115,21
			C5752.1,7314.8,5758.1,7313.8,5777.1,7288.8z M5497.1,7221.8c22-88,90-132,195-125c35,2,54-1,52-7c-5-12-28-86-53-170
			c-16-56-18-58-23-30c-10,49-29,74-58,81c-15,3-34,8-42,11c-33,11-176,10-224-3c-59-15-86-43-86-88c-1-27-2-28-11-13
			c-6,10-21,58-34,105c-13,48-26,94-29,102c-6,13,4,15,61,12s75,0,112,20c48,26,81,75,81,120c0,23,4,28,24,28
			S5487.1,7257.8,5497.1,7221.8z M5586.1,6888.8c13-23,4-52-19-59c-20-7-59,10-59,25c0,6-25,10-55,10s-55-4-55-10c0-15-39-32-60-25
			c-24,8-35,42-20,60c10,12,40,15,136,15C5558.1,6904.8,5578.1,6901.8,5586.1,6888.8z"/>
		<path class="st0" d="M5311.1,7437.8c-7-2-13-11-13-19c0-11,30-14,170-14c139,0,170,3,170,14c0,8-7,17-16,20
			C5603.1,7445.8,5329.1,7445.8,5311.1,7437.8z"/>
	</g>
</g>
</svg>
