<?xml version="1.0" encoding="utf-8"?>
<!-- Generator: Adobe Illustrator 25.2.1, SVG Export Plug-In . SVG Version: 6.00 Build 0)  -->
<svg version="1.1" id="Camada_1" xmlns="http://www.w3.org/2000/svg" xmlns:xlink="http://www.w3.org/1999/xlink" x="0px" y="0px"
	 viewBox="0 0 600 600" style="enable-background:new 0 0 600 600;" xml:space="preserve">
<style type="text/css">
	.st0{fill:#C62A32;}
	.st1{fill:#F23F42;}
</style>
<g transform="translate(0.000000,1280.000000) scale(0.100000,-0.100000)">
	<path class="st0" d="M5782.6,12578.2c-1.2,1.2-45.6-17.4-98.1-41.6c-465.6-214.4-912.3-506-1374.3-896.9
		c-63.4-54-138.7-119.8-199-174c13-13.9,25.8-28,38.6-42.1c74-82.2,151.2-157.8,234.8-230.3c95-82.3,191.8-162.5,283.7-248.4
		c6.7-6.3,13.5-12.4,20.4-18.5c327,355.7,660.6,814.5,882.4,1214.8C5655.4,12294.3,5789.5,12571.4,5782.6,12578.2z"/>
	<path class="st0" d="M984.5,7171.1l30.3,32.7l29,31.4c-71.3,75.7-138,157-212.3,228.7c-91.6,88.5-185.6,173.9-275.6,264.1
		c-44.6,44.6-89.3,89.1-135.4,132.2l11.1-11.1l-32.3-29.9l-32.7-30.3l-44.4,42l-44.8,42.4l-60.2-60.2l395.8-395.8l395.8-395.8
		l60.2,60.2l-42,44.4L984.5,7171.1z"/>
	<path class="st0" d="M4348.3,10625c-87.1,81.7-178.9,158-269.3,236c-84.4,72.7-163.7,147.8-238.2,230.5
		c-20.1,22.3-40.2,44.6-60.6,66.6c-2.4-2.4-4.7-4.6-7.1-7.1l-119.1-119.1l-236.7-127.6l-236.3-127.2L571.3,8167.4
		c75.9-65.1,147.1-135.4,217.8-206.1c86.7-86.8,175.8-170.1,265.2-254.1c74.5-70.1,138.6-150.2,208.1-225c33.4-36,69.7-68,105-101.7
		L2555,8568l1420.7,1420.7l126.8,235.8l126.4,235.4l142.8,143.6C4363.9,10610.7,4356,10617.8,4348.3,10625z"/>
</g>
<g transform="translate(0.000000,1280.000000) scale(0.100000,-0.100000)">
	<path class="st1" d="M1336.4,10915c28.6,29.7,57.2,59.5,87.2,87.9c69.6,65.8,141.9,128.6,213.9,191.8
		c74.9,65.7,149.6,131.7,220.8,201.4c17.7,17.3,35.1,34.9,52.3,52.7c-356.4,332.3-824.7,674.8-1232.2,900.5
		c-151.8,83.7-426.5,216.6-433.3,209.8c-1.2-1.2,17.2-45.3,41.2-97.3c212.6-461.7,501.8-904.6,889.4-1362.7
		C1225.4,11040.8,1285.2,10972.4,1336.4,10915z"/>
	<path class="st1" d="M4610.5,7463.2c42.7,37.9,84.3,77,125.3,116.8c82.5,80.1,162.1,163,241.7,245.9
		c126.8,132.1,254.1,264.5,392,385l-2556.7,2556.7l-233.9,125.7l-233.5,125.3l-114.6,114c-82.3-86.2-170.1-166.9-260.7-246.5
		c-76.2-67-153-133.4-226.8-203.1c-34.2-32.3-66.5-66.6-99.2-100.3c5.1-5.2,10.5-10.5,16.1-16.1l118.1-118.1l126.5-234.7
		l126.1-234.3L4576.7,7434C4587.9,7443.7,4599.3,7453.3,4610.5,7463.2z"/>
	<path class="st1" d="M5651.2,7843.5l-44.5-42l-32.4,30l-32,29.6l44.4,44.5l44,44l-28.4,28.4c-279.5-242.7-516.4-530.8-794.1-775.7
		l37.6-37.6l44,44l44.4,44.5l29.6-32l30-32.4l-41.6-44l-42-44.5l59.7-59.7l392.4,392.4l392.4,392.4l-59.7,59.7L5651.2,7843.5z"/>
</g>
</svg>
