<?xml version="1.0" encoding="utf-8"?>
<!-- Generator: Adobe Illustrator 25.2.1, SVG Export Plug-In . SVG Version: 6.00 Build 0)  -->
<svg version="1.1" xmlns="http://www.w3.org/2000/svg" xmlns:xlink="http://www.w3.org/1999/xlink" x="0px" y="0px"
	 viewBox="0 0 1000 600" style="enable-background:new 0 0 1000 600;" xml:space="preserve">
<style type="text/css">
	.st0{fill:#E7E6E6;}
	.st1{fill:#1E3A29;}
	.st2{font-family:'HeartBreakingBad';}
	.st3{font-size:141.5677px;}
	.st4{letter-spacing:17;}
	.st5{fill:#FFFFFF;}
	.st6{font-family:'FranklinGothic-Medium';}
	.st7{font-size:80.3567px;}
	.st8{font-size:11px;}
	.st9{font-size:22.6462px;}
	.st10{font-size:14.72px;}
	.st11{font-size:1.5665px;}
	.st12{font-size:13.5877px;}
</style>
<g id="Camada_1">
	<g>
		<g transform="translate(0.000000,1295.000000) scale(0.100000,-0.100000)">
			<path class="st0" d="M1511.7,12940.8c-20.2-12.2-29.6-31.9-29.6-61.9c0-42.2,24.9-69.5,63.4-69.5c38.9,0,63.4,27.2,63.4,70.4
				c0,30.5-11.3,52.1-32.4,63.4C1557.2,12953.1,1529.9,12952.1,1511.7,12940.8z M1576.4,12924c5.2-4.7,11.3-16,13.6-26.3
				c10.3-37.1-12.2-74.2-44.6-74.2c-52.1,0-65.7,90.1-16.4,109.4C1540.3,12937.5,1567,12932.4,1576.4,12924z"/>
			<path class="st0" d="M1428.5,12754c-13.6-24.9-65.7-118.3-115.5-207.5c-49.7-89.2-91-162.9-92.5-164.3
				c-1.9-2.4-384-12.7-490.5-13.6c-47.4-0.5-50.7-0.9-50.7-9.8c0-11.7-16.9-11.3,323.9-2.4c226.7,6.1,256.3,6.1,261,0
				c2.8-4.2,55.8-91.5,117.3-194.8c61.9-103.3,113.1-187.3,114.5-187.7c1.4,0,5.2,1.9,8.9,4.2c5.6,3.7-14.1,39.4-98.1,179.3
				c-57.8,96.2-104.7,177.4-104.7,180.3c0,3.3,51.2,97.6,113.6,210.3c62.9,112.2,112.7,206.5,110.8,209.4c-1.4,2.8-5.6,5.2-8.5,5.2
				c-3.3,0-56.3-91-117.8-202.3c-100.4-181.2-113.1-201.8-118.8-193.8c-3.3,4.7-6.1,9.8-6.1,12.2c0,1.9-6.5,3.7-14.6,3.7
				c-11.3,0-14.1,1.4-11.7,7.5c1.4,4.2,51.7,94.3,110.8,200.9c59.6,106.6,108,195.7,108,198.5s-3.3,6.1-7,7.5
				C1456.3,12799.1,1446.9,12786.9,1428.5,12754z"/>
			<path class="st0" d="M3168.1,12222.7c-18.3-11.3-29.1-34.3-29.1-61c0-10.3,2.8-26.3,6.5-35.2c18.3-43.7,88.7-47.4,113.1-5.6
				c12.2,19.7,12.7,62.4,0.9,80.3C3239.9,12230.6,3198.1,12241,3168.1,12222.7z M3233.3,12205.8c12.2-11.3,20.2-39.9,16.4-59.6
				c-1.9-10.8-8.9-21.6-17.8-29.1c-12.7-10.3-18.3-12.2-33.3-10.3c-10.3,1.4-23,6.5-27.7,11.7c-10.8,10.3-15.5,39.9-11.3,64.3
				C3165.8,12214.2,3208.9,12227.8,3233.3,12205.8z"/>
			<path class="st0" d="M3126.3,12055.6c-1.4-4.2-35.2-107.5-74.6-228.6c-39.4-121.6-73.7-222-76.5-223.4
				c-2.4-1.4-98.6-23-213.5-47.4c-200.4-42.7-226.2-50.2-203.3-59.1c4.7-1.4,301.3,59.1,443.6,91l20.2,4.7l189.2-209.4
				c103.7-115.5,190.1-212.2,192-215.5c1.9-2.8-35.7-129.5-83.1-281.6c-47.4-152.1-87.3-279.8-88.2-284
				c-1.9-10.3,394.7-450.6,404.1-448.3c4.2,0.9,133.3,28.7,287.3,61.9l279.8,60.1l228.6-159.1c125.3-86.9,226.7-160.1,224.8-161.9
				c-2.4-1.9-112.2-65.7-245-142.2c-210.3-120.6-242.7-138-251.1-133.3c-5.6,2.8-118.3,68-250.7,145.5
				c-131.9,77-242.7,139.9-245,139.9c-2.4,0-118.8-65.7-258.2-145.5L3153.1,9674l-245,143.6c-135.2,79.3-250.2,146-255.3,148.3
				c-8.9,4.2-35.7-17.4-231.9-184.4c-122.1-104.2-222.5-189.2-223.9-189.2c-0.9,0.5-106.6,60.6-234.7,133.8l-231.9,133.3l3.3,236.1
				l3.3,235.7h-10.3c-9.8,0-9.8-1.4-9.8-78.4c0-43.7-1.4-146.9-3.3-230l-2.8-151.2l-12.2,6.1c-9.8,5.6-13.6,5.2-22.6-0.5l-10.8-7
				v230.5c0,227.2,0,230.5-9.4,230.5c-9.4,0-9.4-3.3-9.8-216.8c0-119.7-1.9-226.2-3.3-237.5l-3.3-20.6l-178.4-102.4
				c-98.1-56.8-178.8-104.7-179.3-106.6c-0.9-1.9,0.5-6.5,2.4-9.8c2.8-4.2,58.2,25.8,203.7,109.4l200,115l253.9-146
				c139.9-80.3,256.8-145.1,260-144.1c3.3,0.9,103.7,84.9,223.4,186.8c119.2,101.9,219.7,185.4,222.9,185.4
				c3.3,0,116-64.3,250.7-143.2l245-143.2v-286.8v-286.8l-201.4-116.4c-179.8-104.2-201.4-117.8-197.1-125.3c4.2-8,5.6-8,25.4,3.3
				c11.3,6.5,101.9,59.1,201.8,116.9l181.2,104.7l255.3-146.9l255.8-146.9l249.7,146c137.5,80.3,252.5,146,254.9,146
				c2.8,0,93.4-51.2,201.4-113.6c188.7-108.4,204.2-116,204.6-98.1c0,1.4-84,51.2-186.4,109.8c-102.8,58.7-192.4,110.8-200,115.5
				l-12.7,8.9l0.9,284.9l1.4,284.4l250.7,144.1l250.7,144.1l33.3-19.7c18.3-10.8,126.7-75.6,241.3-143.6l207.5-123.9l-0.9-288.2
				l-1.4-288.7l-191-113.1c-105.1-61.9-191-116-191-119.2c-0.5-3.3,2.4-7,5.6-8.5c3.3-0.9,91.5,48.8,196.2,111.2
				c104.2,62.4,192,113.6,194.3,113.6c2.8,0,117.8-65.2,255.8-144.6c138-79.8,253.5-144.6,255.8-144.6c3.7,0,436.5,248.8,492.9,283
				l14.1,8.9l199.5-114.5c165.2-95.3,200-113.6,203.3-107.5c2.4,4.2,2.4,9.4,0.5,11.3c-2.4,2.4-91.5,54-197.6,115l-193.9,111.2
				v287.3v286.8l252.5,147.9c138.5,80.8,253,147.9,253.9,148.3c0.9,0.9-22.1,127.2-51.2,281.6c-28.7,154-50.7,281.6-48.4,283.5
				c2.8,2.4,460,268,490,284.4c1.4,0.9,91-49.3,199.5-111.2c176-100.4,197.1-111.2,202.3-104.2c5.2,6.5,4.2,8.9-7,15.5
				c-7,4.2-88.2,50.7-180.3,103.3l-168,95.8v245.5c0,242.2,0,245.5-9.4,245.5c-9.4,0-9.4-3.3-9.4-239.4v-239.8l-13.6,7
				c-11.7,6.1-14.6,6.1-22.1,0.5c-5.2-3.7-10.3-7-12.2-7c-2.4,0-3.7,108-3.7,239.4c0,236.1,0,239.4-9.4,239.4s-9.4-3.7-10.3-246.9
				l-1.4-246.9l-234.7-135.7c-224.8-130.5-234.7-136.6-233.3-148.8c0.9-7,23.5-130.5,50.7-275c26.7-144.1,48.8-265.7,48.8-269.9
				c-0.5-5.2-81.7-54.9-247.4-152.1L6193.3,9674l-253,146c-176.5,101.9-254.9,145.1-260.5,142.7c-4.7-1.4-119.2-66.7-254.4-144.1
				c-135.2-77.9-248.3-141.3-251.6-141.3c-5.6,0-455.7,266.1-466.1,276c-5.2,4.7-2.4,8.9,16.4,22.1c12.2,8.9,93.9,67.6,181.2,130.5
				c139.4,100,158.2,114.5,152.1,120.6c-6.1,6.1-29.6-9.4-191-124.9c-100.9-72.8-184.9-131.9-185.9-131.9
				c-3.3,0-448.3,309.3-456.7,316.8c-5.2,5.2,8,49.7,79.3,270.4c46.9,145.5,87.8,268.5,90.1,273.2c3.7,7.5,21.1,8,289.1,7l284.9-1.4
				l63.4-212.2c59.6-201.4,69.5-227.6,77.5-206.5c1.4,2.8-23,90.6-54,194.3l-56.3,188.7l138.9,202.8
				c133.3,195.3,142.2,210.3,123.4,210.7c-1.9,0-62.9-87.8-136.1-194.8c-129.1-188.7-133.3-194.8-137.5-180.7
				c-3.3,11.3-6.5,14.1-17.4,14.1c-7.5,0-13.6,2.4-13.6,5.2c0,4.2,176,265.2,242.2,358.6c18.8,26.7,19.7,29.1,11.7,33.8
				c-8,4.7-22.6-15-144.1-192.4c-74.2-108.9-137.5-199.5-139.9-201.4c-2.8-1.9-123.9-3.7-268.5-3.7h-263.8l-193.8,219.2
				c-107,120.6-195.7,220.6-197.1,222.9c-1.4,2.4-131-22.6-287.7-54.9c-156.8-32.8-287.7-58.7-291-57.8
				c-9.8,2.4-359.1,393.4-357.2,399.5c5.6,16.4,147.9,454.8,147.9,455.7s-4.2,2.8-9.4,4.2s-9.4,1.4-9.4,0.5
				c0-1.4-136.6-422.5-143.6-442.6c-1.4-5.2-4.7-4.2-13.6,4.2c-8,7.5-14.6,9.8-23,7.5c-7-1.4-12.2-1.9-12.2,0
				c0,1.4,31.9,101.4,70.9,222c38.9,120.1,71.3,220.6,71.8,222.9C3146.5,12064,3129.6,12064,3126.3,12055.6z M4184.3,11058.6
				c104.2-117.3,189.2-215.5,189.2-217.8c0-3.7-173.7-543.5-175.5-545.9c-1.4-1.4-551.1-118.8-557.6-118.8
				c-5.6,0-343.6,369.9-380.2,415.9c-8.5,10.3-6.1,17.8,78.4,288.7c47.9,153,87.8,278.8,88.2,278.8c5.2,3.7,548.2,114,557.2,113.6
				C3992.8,11272.2,4038.3,11223.4,4184.3,11058.6z M5941.2,9797.4l241.7-140.3l1.4-285.9l0.9-286.3l-169.9-98.1
				c-93.9-54.5-206.5-119.2-250.7-144.6l-79.8-46.5l-246.4,141.8c-135.2,77.9-248.8,143.6-252,146c-4.2,3.7-5.6,65.2-4.7,289.1
				l1.4,284.4l251.1,144.1c179.8,103.3,253,143.2,258.2,139.9C5696.2,9939.2,5808.4,9874.4,5941.2,9797.4z M3913.9,9799.8
				l243.6-141.8l-0.9-288.2l-1.4-288.2l-245-142.7l-245.5-143.2l-251.1,144.6l-251.1,144.1v286.8l0.5,286.3l247.4,141.8
				c136.1,78.4,250.2,142.2,253.9,142.2C3668,9941.5,3780.2,9877.7,3913.9,9799.8z"/>
			<path class="st0" d="M3714,11167.5c-200.4-42.2-239.4-51.7-240.8-58.2c-0.9-5.6,1.4-8.5,8-8.5c5.2,0,116,22.1,246.9,49.3
				c130.5,27.2,238.5,49.3,239.4,49.3c1.4,0,2.4,4.2,2.4,9.4c0,6.1-2.8,9.4-8,8.9C3957.1,11217.7,3845.9,11194.7,3714,11167.5z"/>
			<path class="st0" d="M4294.1,10817.8c-20.2-52.6-150.7-464.7-148.3-468c1.4-2.8,5.6-4.7,8.9-4.7s35.2,90.1,82.1,236.1
				c42.2,129.5,77,237.5,77.5,239.8c0,2.8-3.3,5.6-7.5,6.5C4301.2,10828.6,4297,10825.3,4294.1,10817.8z"/>
			<path class="st0" d="M3317.8,10615.5c-4.7-5.6,23.5-38.9,147.9-177.4c192.4-214,182.6-204.2,191.5-196.7
				c6.1,5.2-17.4,32.8-161.9,193.4c-93,102.8-169.4,187.3-170.4,187.3S3320.6,10619.3,3317.8,10615.5z"/>
			<path class="st0" d="M5462.4,9758c-117.3-67.6-215.5-124.4-217.8-126.2c-1.9-2.4-1.9-7,0.5-11.3c3.3-6.1,40.8,13.6,223.4,118.3
				c205.6,117.3,230.5,134.2,212.2,140.3C5677.9,9880,5579.8,9825.6,5462.4,9758z"/>
			<path class="st0" d="M6114.9,9371.2c0-247.8,0-251.1,9.4-251.1s9.4,3.3,9.4,251.1s0,251.1-9.4,251.1S6114.9,9619,6114.9,9371.2z"
				/>
			<path class="st0" d="M5243.7,9119.6c-1.4-2.8,0-8,3.3-11.3c3.7-3.3,101.4-60.1,216.8-126.2c193.4-111.2,229.1-128.6,222.9-109.8
				c-1.9,5.6-428.1,252.5-435.6,252.5C5248.9,9124.8,5245.6,9122.4,5243.7,9119.6z"/>
			<path class="st0" d="M3441.7,9758c-116-67.1-214-123.4-217.3-125.8c-4.7-2.4-4.7-4.7,0-10.8c6.1-7.5,71.3,28.2,408.4,223.9
				c26.3,15,35.6,23,33.8,28.2c-1.9,3.7-5.2,7-8.5,6.5C3655.3,9880,3558.1,9825.1,3441.7,9758z"/>
			<path class="st0" d="M4087.2,9371.2c0-247.8,0-251.1,9.4-251.1c9.4,0,9.4,3.3,9.4,251.1s0,251.1-9.4,251.1
				C4087.2,9622.3,4087.2,9619,4087.2,9371.2z"/>
			<path class="st0" d="M3224,9118.2c-4.7-5.2,23.9-23.5,160.1-101.4c91-52.6,190.6-109.9,220.6-127.2
				c50.7-29.6,55.8-31.5,60.1-23.5c3.7,8-18.8,22.1-213.1,133.8c-119.2,68.5-218.3,124.9-219.7,124.9
				C3230.5,9124.8,3226.8,9122,3224,9118.2z"/>
			<path class="st0" d="M1776.1,11918c-101.9-23.3-112.8-29.3-95-36.1c2-0.9,41.4,6.5,99.3,18.3
				C1778.5,11906,1777.1,11911.9,1776.1,11918z"/>
			<path class="st0" d="M2322.1,11708.3c-5-4-10.3-7.6-15.9-10.8c39-63.9,66.7-108.4,67.7-108.4c1.4,0,5.2,1.9,8.9,4.2
				C2386.8,11595.9,2373,11622.8,2322.1,11708.3z"/>
			<path class="st0" d="M1532.8,11924.1c-25.8-13.6-37.6-55.8-24.9-88.7c26.7-69.9,124.4-48.8,124.4,26.7
				c0,43.7-23.5,69.5-62.9,69.5C1556.2,11931.2,1539.8,11928.4,1532.8,11924.1z M1599.9,11904c11.7-12.2,13.6-17.4,13.6-39.9
				c0-22.1-1.9-28.7-13.1-40.8c-23.9-26.7-65.7-16.9-76.5,18.8c-12.2,40.4,8,75.6,42.7,75.6
				C1582.1,11917.6,1589.1,11914.8,1599.9,11904z"/>
			<path class="st0" d="M8863.6,11635.5c-17.8-14.1-26.3-33.3-26.3-59.6c0-42.2,34.3-74.6,72.8-69c26.3,3.7,39.4,14.1,50.2,38.5
				c15,34.3,3.7,78.4-24.4,93C8915.7,11648.6,8878.6,11647.7,8863.6,11635.5z M8933.5,11620c14.1-14.1,19.3-40.8,12.2-64.3
				c-6.5-22.1-22.1-33.3-46-33.3c-13.6,0-20.2,3.3-30.5,14.6c-11.3,12.2-13.1,18.8-13.1,40.8c0,22.6,1.9,27.7,13.6,39.9
				C8887.9,11635.5,8916.6,11636.9,8933.5,11620z"/>
			<path class="st0" d="M2416.2,11543c-22.1-10.8-34.7-34.7-34.7-64.3c0-44.6,23-68,66.7-68c38,0,61.9,26.3,61.9,68
				c0,31.9-11.7,53.5-34.7,63.8C2451.4,11553.3,2436.8,11553.8,2416.2,11543z M2478.5,11518.2c10.8-11.7,12.7-17.8,12.7-39.9
				c0-22.6-1.9-27.7-13.6-39.9c-27.7-27.7-70.9-12.2-78.4,27.7c-5.2,25.8,6.5,53,26.3,63.4
				C2446.2,11539.7,2461.7,11536.4,2478.5,11518.2z"/>
			<path class="st0" d="M7064.4,11467c-19.7-11.7-29.6-31.9-29.6-59.6c0-41.8,27.7-71.8,65.7-71.8c37.1,0,63.4,29.1,63.4,69.9
				c-0.5,44.6-23.9,70.9-64.3,70.9C7087.9,11476.4,7073.3,11472.6,7064.4,11467z M7129.2,11449.1c27.7-24.4,21.1-78.9-11.7-94.3
				c-19.7-9.4-47.4,0-57.3,19.3c-11.7,23-7,63.4,9.4,77.5C7087.4,11466.5,7110.4,11466,7129.2,11449.1z"/>
			<path class="st0" d="M8954.6,11466c0-3.3,19.3-106.6,42.2-230c23.5-123,42.2-225.8,42.2-228.6c0-3.3-3.7-3.3-11.7-0.5
				c-9.4,3.3-15,2.8-23.9-2.8c-6.1-4.2-12.2-7-13.1-6.1c-0.5,0.9-13.1,66.2-28.2,145.1c-61,327.6-59.1,318.2-69,315.9
				c-4.7-1.4-8.9-3.3-8.9-4.2c0-0.9,20.2-108.9,45.1-239.4c24.4-130.5,44.1-238,43.2-238.5c-0.9-0.9-74.2-63.4-162.4-138.9
				c-143.2-122.1-160.5-138-154.4-144.6c6.5-6.1,26.7,10.3,184,144.6c175.1,149.7,177,151.6,191.5,146.9
				c13.6-4.2,514-180.7,530.4-187.3c4.2-1.4,7.5,1.4,9.4,7c1.4,7-0.9,10.3-10.3,13.6c-6.5,2.8-121.1,43.2-253.9,89.7
				c-132.4,46.9-242.2,85.9-243.1,86.9c-1.9,1.9-90.1,466.1-90.1,473.1c0,2.4-4.2,3.7-9.4,3.7S8954.6,11468.9,8954.6,11466z"/>
			<path class="st0" d="M5257.3,11380.6c-16.4-15-17.4-17.8-19.3-47.9c-0.9-26.3,0.5-35.2,8.5-47.9c23.5-37.6,84.5-37.6,108,0
				c8,12.7,9.4,21.6,8.5,47.9c-1.9,30-2.8,32.8-19.3,47.9c-15,14.1-20.2,16-43.2,16C5277.5,11396.5,5272.3,11394.7,5257.3,11380.6z
				 M5327.7,11372.6c27.7-21.6,26.3-76-2.8-93.4c-8.5-5.2-19.3-9.4-24.4-9.4c-18.3,0-38.9,17.4-44.6,37.6
				c-10.3,38,11.7,75.1,44.6,75.1C5308.9,11382.5,5321.2,11378.3,5327.7,11372.6z"/>
			<path class="st0" d="M7876.5,10764.8c-124.4-105.6-178.4-154.9-176.5-159.6c1.4-3.7,5.2-6.5,8.9-5.6
				c3.3,0.9,83.6,67.6,177.9,148.3l171.8,146.9l196.7-112.7c178.8-101.9,197.6-111.7,201.8-103.7c4.2,8-16.4,20.6-197.1,123.9
				c-110.8,63.4-202.3,115.5-203.3,115.5C8055.7,10917.8,7974.5,10848.8,7876.5,10764.8z"/>
			<path class="st0" d="M8532.2,10679.3c-22.1-10.8-34.7-34.7-34.7-64.3c0-44.6,23-68,66.7-68c38,0,61.9,26.3,61.9,68
				c0,31.9-11.7,53.5-34.7,63.8C8567.4,10689.7,8552.8,10690.1,8532.2,10679.3z M8594.6,10654.5c10.8-11.7,12.7-17.8,12.7-39.9
				c0-22.6-1.9-27.7-13.6-39.9c-27.7-27.7-70.9-12.2-78.4,27.7c-5.2,25.8,6.5,53,26.3,63.4
				C8562.2,10676.1,8577.7,10672.8,8594.6,10654.5z"/>
			<path class="st0" d="M7567.6,10583.6c-35.2-27.7-33.3-91,3.3-118.3c8.9-6.5,20.6-9.4,36.6-9.4c16,0,27.7,2.8,36.6,9.4
				c36.6,27.2,38.5,90.6,3.3,118.3c-9.8,8-19.3,10.3-39.9,10.3C7586.8,10593.9,7577.4,10591.6,7567.6,10583.6z M7631.4,10575.2
				c20.2-11.3,29.6-54.5,16.9-79.8c-3.3-6.5-13.6-15.5-23.5-20.2c-16.9-8.5-17.8-8.5-34.7,0c-23.5,11.3-30.5,25.8-28.2,57.3
				c1.4,20.6,4.2,27.7,14.6,36.6C7590.1,10580.8,7615.5,10583.6,7631.4,10575.2z"/>
			<path class="st0" d="M1649.2,10504.3c-17.8-14.1-26.3-33.3-26.3-59.6c0-42.2,34.3-74.6,72.8-69c26.3,3.7,39.4,14.1,50.2,38.5
				c15,34.3,3.7,78.4-24.4,93C1701.3,10517.4,1664.2,10516.5,1649.2,10504.3z M1719.1,10488.8c14.1-14.1,19.3-40.8,12.2-64.3
				c-6.5-22.1-22.1-33.3-46-33.3c-13.6,0-20.2,3.3-30.5,14.6c-11.3,12.2-13.1,18.8-13.1,40.8c0,22.6,1.9,27.7,13.6,39.9
				C1673.6,10504.3,1702.2,10505.7,1719.1,10488.8z"/>
			<path class="st0" d="M5099.1,10344.7c-17.8-14.1-26.3-33.3-26.3-59.6c0-42.2,34.3-74.6,72.8-69c26.3,3.7,39.4,14.1,50.2,38.5
				c15,34.3,3.7,78.4-24.4,93C5151.2,10357.8,5114.2,10356.9,5099.1,10344.7z M5169.1,10329.2c14.1-14.1,19.3-40.8,12.2-64.3
				c-6.5-22.1-22.1-33.3-46-33.3c-13.6,0-20.2,3.3-30.5,14.6c-11.3,12.2-13.1,18.8-13.1,40.8c0,22.6,1.9,27.7,13.6,39.9
				C5123.5,10344.7,5152.2,10346.1,5169.1,10329.2z"/>
			<path class="st0" d="M7960.9,9889.9c-20.2-12.2-29.6-31.9-29.6-61.9c0-42.2,24.9-69.5,63.4-69.5c38.9,0,63.4,27.2,63.4,70.4
				c0,30.5-11.3,52.1-32.4,63.4C8006.5,9902.1,7979.3,9901.1,7960.9,9889.9z M8025.7,9873c5.2-4.7,11.3-16,13.6-26.3
				c10.3-37.1-12.2-74.2-44.6-74.2c-52.1,0-65.7,90.1-16.4,109.4C7989.6,9886.6,8016.3,9881.4,8025.7,9873z"/>
			<path class="st0" d="M8050.6,9721.8c-3.3-2.4,8-73.2,36.1-228.6c23-123.9,41.3-228.1,41.8-230.9c0-4.2-4.7-5.2-14.1-2.8
				c-9.8,1.9-16.9,0-23-5.2c-5.2-4.7-9.8-6.5-11.3-4.2c-0.9,1.9-20.6,106.6-43.2,232.8c-37.1,202.8-42.7,228.6-50.2,228.6
				c-5.2,0-8.5-3.3-8.5-8.9c0-4.7,19.3-112.7,42.2-239.8c40.8-222.5,42.2-231.9,34.3-239.4c-4.7-4.7-75.1-64.8-156.3-133.8
				c-81.2-69-149.7-127.7-152.5-129.5c-2.8-2.8-1.9-7,2.8-11.3c6.1-6.1,27.2,10.3,182.1,142.7l175.5,149.7l77.9-27.2
				c42.7-15,166.2-58.2,274.1-96.2c160.1-56.3,197.6-68,200.9-62.9c2.4,3.7,4.2,7.5,4.2,8.9s-113.6,42.2-252.5,91
				c-138.5,48.8-253.9,90.1-256.3,92c-1.9,2.4-23.5,109.8-46.9,239.8c-23.9,129.5-45.1,236.6-47.9,237.5
				C8057.6,9724.6,8053.4,9723.7,8050.6,9721.8z"/>
			<path class="st0" d="M1145,9643.9c-19.3-10.3-29.1-31-29.1-61c0-34.7,11.7-55.4,37.6-65.7c23.9-9.4,30.5-9.4,54.9,1.4
				c24.9,11.3,34.3,29.1,34.3,64.8c0,45.1-20.6,66.7-63.4,66.7C1166.7,9650,1151.1,9647.7,1145,9643.9z M1208.9,9626.1
				c23-24.9,24.4-63.8,2.8-84.9c-37.6-37.6-92.5,3.3-77,57.3c7,25.4,22.1,38,44.6,38C1193.4,9636.4,1201.4,9633.6,1208.9,9626.1z"/>
			<path class="st0" d="M1198.1,9467.9c-1.4-2.4,15.5-103.3,37.6-224.4c22.1-120.6,39.9-222.5,39.9-226.7
				c0-4.7-58.7-40.8-162.9-100.9c-243.6-139.9-240.8-138-237.5-145.5c1.4-3.7,4.2-7,7-7c3.3,0,408.8,231.4,415.9,237
				c0.9,0.5-17.8,106.1-41.3,233.7c-23,127.7-42.2,233.7-42.2,235.2C1214.5,9474,1201.4,9472.6,1198.1,9467.9z"/>
			<path class="st0" d="M6971,9025.2c-97.6-83.6-177.9-154.4-179.3-157.3c-0.9-3.3,1.4-7.5,5.2-8.9c4.7-1.9,62.9,45.1,170.9,137.1
				c89.7,76.5,168,143.6,173.7,148.8l10.3,9.4l195.3-113.6c108-61.9,197.6-111.7,200-110.3c2.4,1.4,4.2,5.2,4.2,8.9
				c0,4.7-393.4,237-401.3,237C7148.9,9176.4,7068.7,9108.4,6971,9025.2z"/>
			<path class="st0" d="M7622,8933.7c-10.3-5.2-18.8-14.6-24.4-26.7c-23.5-52.1,5.2-106.1,56.3-106.1c26.7,0,45.5,10.8,56.8,32.8
				c11.7,23,11.7,48.4,0.5,73.2C7696.7,8938.9,7656.8,8950.6,7622,8933.7z M7683,8914.5c26.7-23.9,23.5-77.5-5.6-92.5
				c-39.4-20.6-74.2,8.5-68.5,57.3c2.8,26.7,23.5,48.4,45.5,48.4C7662.9,8927.6,7674.1,8922.4,7683,8914.5z"/>
			<path class="st0" d="M2601.5,8842.2c-35.2-27.7-33.3-91,3.3-118.3c8.9-6.5,20.6-9.4,36.6-9.4c16,0,27.7,2.8,36.6,9.4
				c36.6,27.2,38.5,90.6,3.3,118.3c-9.8,8-19.3,10.3-39.9,10.3S2611.4,8850.2,2601.5,8842.2z M2665.4,8833.8
				c20.2-11.3,29.6-54.5,16.9-79.8c-3.3-6.5-13.6-15.5-23.5-20.2c-16.9-8.5-17.8-8.5-34.7,0c-23.5,11.3-30.5,25.8-28.2,57.3
				c1.4,20.6,4.2,27.7,14.6,36.6C2624.1,8839.4,2649.4,8842.2,2665.4,8833.8z"/>
			<path class="st0" d="M4642,8846c-19.3-10.3-29.1-31-29.1-61c0-34.7,11.7-55.4,37.6-65.7c23.9-9.4,30.5-9.4,54.9,1.4
				c24.9,11.3,34.3,29.1,34.3,64.8c0,45.1-20.6,66.7-63.4,66.7C4663.5,8852.1,4648.1,8849.7,4642,8846z M4705.8,8828.1
				c23-24.9,24.4-63.8,2.8-84.9c-37.6-37.6-92.5,3.3-77,57.3c7,25.4,22.1,38,44.6,38C4690.3,8838.4,4698.3,8835.6,4705.8,8828.1z"/>
			<path class="st0" d="M6662.1,8842.7c-17.8-14.1-26.3-33.3-26.3-59.6c0-42.2,34.3-74.6,72.8-69c26.3,3.7,39.4,14.1,50.2,38.5
				c15,34.3,3.7,78.4-24.4,93C6714.2,8855.8,6677.2,8854.9,6662.1,8842.7z M6732.1,8827.2c14.1-14.1,19.3-40.8,12.2-64.3
				c-6.5-22.1-22.1-33.3-46-33.3c-13.6,0-20.2,3.3-30.5,14.6c-11.3,12.2-13.1,18.8-13.1,40.8c0,22.6,1.9,27.7,13.6,39.9
				C6686.6,8842.7,6715.2,8844.1,6732.1,8827.2z"/>
			<path class="st0" d="M740.9,8774.1c-10.3-5.2-18.8-14.6-24.4-26.7c-23.5-52.1,5.2-106.1,56.3-106.1c26.7,0,45.5,10.8,56.8,32.8
				c11.7,23,11.7,48.4,0.5,73.2C815.5,8779.3,775.7,8791,740.9,8774.1z M801.9,8754.9c26.7-23.9,23.5-77.5-5.6-92.5
				c-39.4-20.6-74.2,8.5-68.5,57.3c2.8,26.7,23.5,48.4,45.5,48.4C781.8,8768,793,8762.9,801.9,8754.9z"/>
			<path class="st0" d="M2661.6,8670.4c-4.2-2.8,4.7-60.6,34.3-230c22.1-124.9,39.4-227.6,38.5-228.1
				c-0.5-0.9-85.9-50.7-189.2-110.8c-234.2-135.7-211.7-121.6-203.3-130c6.1-5.6,31.5,7.5,206.1,108.9
				c109.4,63.8,201.4,118.3,204.2,121.1c3.7,4.2-5.6,66.7-36.1,238c-22.6,127.7-41.3,232.8-41.3,233.7
				C2673.8,8675.1,2667.3,8674.2,2661.6,8670.4z"/>
			<path class="st0" d="M790.2,8591.1c0.9-4.7,20.2-104.7,42.2-222c22.1-117.3,40.8-216.8,42.2-221.1c1.4-5.6-59.1-58.7-222.9-194.8
				c-125.3-104.2-224.8-190.1-224.4-193.8c0.5-3.7,3.3-7.5,5.6-8.5c2.8-0.9,98.1,76,211.2,170.4c113.6,94.8,208.9,172.7,211.2,174.2
				c2.8,0.9,104.7-34.3,226.7-78.4c121.6-44.1,223.4-78.9,226.2-77.5c2.4,1.4,4.7,5.6,4.7,8.5c0,3.3-82.6,35.7-186.4,73.2
				c-102.8,37.1-201.4,72.8-218.7,79.3l-31.9,11.7l10.3,10.8c7,7.5,9.4,14.6,8,22.6c-1.4,7-0.9,12.2,0.9,12.2
				c1.9,0,100-34.7,218.3-77.5c117.8-42.7,215.9-76.5,218.7-75.1c2.4,1.9,4.2,5.6,4.2,8.9c0,3.7-87.3,37.6-223.9,87.3
				c-123.4,44.1-224.8,81.2-225.3,81.7c0,0-18.3,93.9-39.9,208.4c-37.1,197.6-39.4,207.5-49.3,207.5
				C791.2,8599,788.8,8596.7,790.2,8591.1z"/>
			<path class="st0" d="M1402.7,7999.7c-25.4-12.7-34.3-31-32.4-69c1.9-30,2.8-32.8,19.3-47.9c15-13.6,20.6-16,41.3-16
				c44.1,0,65.2,22.6,65.2,69c0,32.8-10.8,52.6-34.3,63.8C1441.3,8009.5,1422.9,8009.5,1402.7,7999.7z M1448.3,7988.4
				c51.2-17.8,37.6-107.5-16.4-107.5c-48.8,0-64.8,82.1-20.2,104.2C1430.9,7994.9,1430,7994.9,1448.3,7988.4z"/>
			<path class="st0" d="M2206.3,7974.8c-27.7-16.4-39.4-48.8-30-82.6c14.6-54.5,89.2-66.7,117.8-19.3c11.3,17.8,12.2,53,2.8,76
				C2283.3,7980.9,2237.8,7994,2206.3,7974.8z M2260.8,7963c17.8-8.9,25.8-29.6,23-59.1c-2.8-29.1-14.1-41.3-39.9-45.1
				c-16.4-2.4-21.1-0.5-34.7,11.7c-15,13.1-16,16.4-16,42.7c0.5,21.1,2.8,30.5,9.4,38.5C2219.5,7970.1,2239.6,7974.3,2260.8,7963z"
				/>
			<path class="st0" d="M2256.5,7793.1c0-4.2,18.3-108,40.4-230.5l39.9-222.9l-10.8-10.8c-6.1-5.6-104.7-90.1-219.7-187.3
				c-190.1-160.5-223.4-192.4-203.3-192.4c2.8,0,96.7,77,207.9,171.3c111.2,94.3,205.1,171.8,208.4,172.7
				c2.8,0.5,105.6-33.8,228.1-76.5c122.5-42.7,222.9-77.5,223.4-77.5s1.9,4.2,3.3,8.9c2.4,9.4-5.2,12.2-340.3,128.6l-97.1,33.8
				l10.3,10.8c6.1,6.5,9.8,15.5,8.9,22.6c-0.9,6.1,0.5,11.3,3.3,11.3c2.4,0,101.4-33.8,219.7-75.1c117.8-41.3,215-75.1,215.5-75.1
				s1.9,4.2,3.3,8.9c2.4,10.3,21.6,2.8-274.6,106.1c-118.8,41.3-173.2,62.4-174.6,67.6c-1.4,4.2-18.8,99-38.5,210.7
				c-32.4,177.9-37.6,202.8-45.1,202.8C2260.3,7801.1,2256.5,7797.8,2256.5,7793.1z"/>
			<path class="st0" d="M2855,7199.4c-35.2-27.7-33.3-91,3.3-118.3c8.9-6.5,20.6-9.4,36.6-9.4c16,0,27.7,2.8,36.6,9.4
				c36.6,27.2,38.5,90.6,3.3,118.3C2916.5,7213.9,2873.3,7213.9,2855,7199.4z M2918.8,7190.9c20.2-11.3,29.6-54.5,16.9-79.8
				c-3.3-6.5-13.6-15.5-23.5-20.2c-16.9-8.5-17.8-8.5-34.7,0c-23.5,11.3-30.5,25.8-28.2,57.3c1.4,20.6,4.2,27.7,14.6,36.6
				C2877.5,7196.6,2902.9,7199.4,2918.8,7190.9z"/>
		</g>
		<g transform="translate(0.000000,600.000000) scale(0.100000,-0.100000)">
			<path class="st0" d="M1797,5155.2c-0.5-0.4-0.9-48.7-0.9-107.1v-106.2h105.4c89.6,0,105.6,0.2,107.1,1.7
				c1.5,1.5,1.7,17.5,1.7,107.1v105.4h-106.2C1845.6,5156.1,1797.3,5155.7,1797,5155.2z M1968.6,5133.9c3.7-1.5,5.2-5.3,3.5-8.7
				c-0.9-1.6-1-2.7-0.1-3.2c2.2-1.4,1.5-9-1.1-10.5c-5.4-2.8-13.7-0.6-13.7,3.7c0,3,3.1,3.2,4.7,0.5c1.6-2.8,5.7-1.6,6.2,1.7
				c0.4,2.1-0.2,3.1-2.1,3.6c-3.3,0.9-3.3,4.1-0.1,4.1c1.6,0,2.5,0.9,2.5,2.5c0,3-4.3,3.5-5.9,0.6c-1-1.9-5.2-1.5-5.2,0.5
				c0.1,1.4,3.1,4.7,5,5.4C1964.7,5135.1,1965.2,5135.1,1968.6,5133.9z M1991.7,5131.9c0-1.4-1.4-1.9-5-1.9c-3.6,0-5-0.5-5-1.9
				c0-1.2,1.4-1.9,4.3-1.9c3,0,4.6-0.7,5.6-2.4c1.9-3.6,1.5-9.5-0.7-11.8c-2.8-3-9.9-2.5-13.1,0.9l-2.8,2.7l3,0.4
				c1.6,0.2,3.3-0.2,3.8-1c0.5-0.9,2-1.2,3.2-1c1.7,0.2,2.4,1.5,2.4,4.1c0,3.6-0.1,3.7-5.4,3.3l-5.4-0.4l0.9,4
				c0.4,2.1,0.7,5,0.7,6.2c0,2,1,2.4,6.8,2.4C1990.1,5133.8,1991.7,5133.4,1991.7,5131.9z M1901.6,5102.7
				c12.1-4.7,18.2-13.5,18.3-26c0-9.9-3.8-16.8-12-21l-6.3-3.3l4.8-1.4c6.3-1.9,12.8-7.6,15.8-14.2c2.8-5.8,3.6-19.1,1.4-26.9
				c-1.9-6.4-8.9-14-16.3-17.3c-6.3-2.8-7.7-3-42.1-3.3l-35.7-0.4v58.2v58.3h32.8C1892.5,5105.3,1895.5,5105.1,1901.6,5102.7z
				 M1985.5,5063.5v-9.7l-6.8-1.4c-8.7-1.9-13.9-5.6-16.8-12c-2-4.3-2.4-8.3-2.4-28.2v-23.3h-9.9h-9.9v40.2
				c0,22.2-0.1,40.6-0.2,41.2c-0.2,0.5,4.2,1,9.9,1.2l10.2,0.4v-5.7v-5.8l3.3,4.1c4.1,4.8,11.8,8.4,18.1,8.5h4.6V5063.5z"/>
			<path class="st0" d="M1851.8,5073.1v-14.9h14.6c23.6,0,30,3.2,30,15.2c0,5.3-0.6,7.2-2.7,9.3c-4.7,4.3-9.2,5.2-25.9,5.2h-16
				V5073.1z"/>
			<path class="st0" d="M1852.7,5041.3c-0.5-0.4-0.9-8.3-0.9-17.5v-16.6l19.6,0.5c17.8,0.4,19.8,0.6,24,3.2c3.5,2.1,5,4.2,6.1,7.9
				c2.7,10.5-2.1,19.4-11.8,21.9C1883.8,5042.3,1854,5042.7,1852.7,5041.3z"/>
			<path class="st0" d="M2204.1,5104.7c-15.5-3.5-22-8.4-16.5-12.3c1.5-1.1,3.5-2,4.3-2s2.7-1.1,4.1-2.5c2.4-2.4,2.5-4.1,2.5-42.6
				c0-22-0.4-41.1-0.7-42.2c-0.5-1-2.7-2.7-5-3.7c-2.7-1.1-4.2-2.6-4.2-4.1c0-4.8,3.2-5.8,19.8-5.8s19.8,1,19.8,5.8
				c0,1.5-1.5,3-4.2,4.1c-2.2,1-4.5,2.6-4.8,3.6c-0.6,1.6-1.1,17.5-1,27.1c0.1,2,0.7,3.3,1.5,3.1c0.7-0.2,8.7-9.7,17.7-20.8
				c8.9-11.3,17.7-21,19.3-21.9c4-2,18.3-2,22.3,0c1.9,1,3.2,2.8,3.5,4.8c0.4,3-0.2,3.5-4.6,4.8c-2.7,0.7-6.9,3.1-9.3,5.1
				c-6.1,5-29.2,34.2-29.2,36.9c0,3.8,12.5,14.4,20.7,17.3c8.7,3.1,10.3,5.4,6.6,9.2c-2.1,2.1-4.5,2.7-12.8,3
				c-17.3,0.7-25.5-4.1-17.6-10.4l3.5-2.7l-3-3.6c-3.3-4.1-15-14.2-17.1-15c-1-0.4-1.4,8.2-1.4,32.3
				C2218.3,5110.8,2219.4,5108.2,2204.1,5104.7z"/>
			<path class="st0" d="M2299,5102.1c-11.1-5.7-7.1-19.4,5.7-19.3c6.6,0.1,10,2,12,6.7c1.9,4.6,1.2,7.4-2.5,10.9
				C2310.5,5103.9,2304.1,5104.7,2299,5102.1z"/>
			<path class="st0" d="M2498.2,5073.4c-5.4-3.1-5.7-3.1-15.6-1.7c-13.7,2-21.4,1.9-29-0.6c-12.6-4-22.4-16.7-22.4-28.8
				c0-5.9,4.3-16.7,7.9-19.7c1.9-1.6,1.7-2-2.1-4.6c-10.4-7.1-10-19.9,0.7-24.5c1-0.4,0.6-1.1-1-2.1c-13.7-8.7-11.6-21.9,4.8-30.6
				c5.9-3.2,7.2-3.3,23-3.3c14.7,0,17.6,0.4,24.1,3c18.9,7.7,27.6,28.2,16,38.5c-6.7,5.8-12.3,6.7-30.8,5.1
				c-16.2-1.4-23.5-0.7-27.2,2.4c-2.2,1.9-2.4,6.2-0.2,9c1.2,1.7,2.2,1.9,5.8,0.9c6.3-1.9,19.7-1.5,26.7,0.6
				c7.7,2.2,16.2,9.4,19.2,16c2.5,5.6,3.1,17.2,1.1,22.4c-1.1,2.8-0.7,3.7,3.7,7.9c5.1,4.8,5.8,7.2,3.7,11.4
				C2505.2,5077.3,2505,5077.3,2498.2,5073.4z M2472.8,5061.2c8.4-4.1,11.8-17.7,6.7-27.6c-3.3-6.7-11.4-9.9-18.1-7.4
				c-6.8,2.6-9.5,7.2-10.2,16.3c-0.5,9.5,2.2,15.4,8.4,18.4C2465,5063.7,2467.5,5063.7,2472.8,5061.2z M2489.9,4987.6
				c4.2-3.2,4.2-8.3,0.1-12.8c-10.6-11.4-40.9-10.2-44,1.9c-0.5,1.7-0.2,5.1,0.5,7.4l1.4,4.2l14.2,0.7c7.8,0.4,16.6,0.7,19.3,0.9
				C2485.1,4990,2487.6,4989.4,2489.9,4987.6z"/>
			<path class="st0" d="M2048.1,5071.4c-11.8-3.7-20.1-10.9-25.3-21.8c-2.6-5.6-3.3-9-3.6-18.9c-0.5-11.6-0.2-12.6,3.3-20.1
				c10.5-21.2,34.8-29,56.3-18.1c13.6,7.1,21.4,18.7,13,19.7c-2,0.2-4.7-1-7.8-3.3c-6.4-5.1-15.6-8-22.4-7.1
				c-11.9,1.9-21.7,12.6-21.7,24v5.2h24.6c13.9,0,26.2,0.5,28.1,1.2c3.2,1.2,3.3,1.5,2.7,10.4c-0.4,6.4-1.5,10.6-3.6,14.4
				c-3.5,6.4-11.6,13-18.2,14.9C2067.5,5073.5,2054.1,5073.4,2048.1,5071.4z M2068.9,5060c4.7-2.5,8.3-8.8,8.3-14.4v-4.7h-18
				c-20.2,0-20.3,0-18.1,8.3C2044.3,5061,2057.2,5065.9,2068.9,5060z"/>
			<path class="st0" d="M2128.5,5072c-6.2-1.6-12.5-5-15.8-8.5c-6.2-6.6-4.1-16.3,3.6-16.3c2.1,0,5.6,2.2,10.3,6.7
				c8.2,7.9,12.5,9.9,18.9,8.8c3.8-0.7,5-1.6,7.1-6.1c1.5-3,2.6-7.7,2.6-10.9v-5.7h-13.9c-25.9,0-38-8.7-38.1-27.5
				c0-15.6,9.9-24.5,27.2-24.6c6.6-0.1,9.4,0.6,15.4,3.6c4,2.1,7.7,3.7,8.3,3.7c0.5,0,2.6-1.6,4.6-3.7c3-3,4.8-3.7,8.9-3.7
				c5.9,0,12.1,2.4,15.4,5.9c3,3.5,2.2,5.2-3.7,8.3l-4.8,2.5l-0.7,26c-0.4,14.5-1.2,27.4-2,29.1c-1.9,4.2-5.8,8.2-10.6,10.8
				C2156.5,5072.5,2135,5073.7,2128.5,5072z M2152.4,5029c2.5-0.7,2.7-1.5,2.7-8.7c0-9-2.2-15.7-5.9-17.7c-1.5-0.7-5.9-1.4-10.2-1.4
				c-6.9,0-8,0.4-11.3,3.8c-2.8,3.1-3.6,5-3.6,9.7c0,6.8,2.5,10.8,7.9,13.2C2136.1,5029.8,2147.5,5030.3,2152.4,5029z"/>
			<path class="st0" d="M2301.5,5071.1c-16-4.2-20.8-10-11.5-13.7c2.7-1.1,5.3-2.8,5.8-4c1.2-3,2.2-38.6,1.2-45.3
				c-0.7-4.8-1.6-6.2-5.2-8.3c-3.5-2-4.2-3.2-4-5.7c0.2-2.2,1.4-3.5,3.5-4.1c4-1.1,24.5-1.4,29.6-0.4c5.2,1.1,7.2,4.7,4,7.4
				c-1.2,1.1-3.8,3.5-5.7,5.1l-3.5,3.1l0.9,31.9c0.4,17.5,0.5,32.8,0,33.9C2315.6,5073.6,2310.5,5073.6,2301.5,5071.1z"/>
			<path class="st0" d="M2344.5,5070c-9.9-3.2-14.1-6.3-12.8-9.7c0.4-1.1,2.2-2.4,4.2-2.7c6.3-1.4,6.8-3,7.2-27
				c0.2-12.1,0.1-23.5-0.2-25.3c-0.5-1.6-2.7-4.1-5.1-5.6c-2.4-1.4-4.3-3.5-4.3-4.7c0-4.6,3.3-5.6,19.8-5.6
				c11.5,0,16.2,0.5,17.7,1.7c3.2,2.6,2.5,4.8-2.7,8c-4.3,2.7-5,3.8-5.7,9.5c-1,7.2,0.1,27.9,2,34.9c0.7,2.6,2.8,6.4,4.7,8.5
				c2.8,3.2,4.6,4,10.2,4.5c5.9,0.5,7.3,0.1,10.3-2.4c1.9-1.7,3.8-5.1,4.5-7.9c1.4-5.6,1.6-40.1,0.5-43.3c-0.5-1-2.7-2.7-5-3.7
				c-2.7-1.1-4.2-2.6-4.2-4.1c0-4.8,3.2-5.8,19.8-5.8c11.5,0,16.2,0.5,17.7,1.7c3.3,2.7,2.5,6.1-1.9,8.3c-2.2,1.1-4.5,2.7-5,3.5
				c-0.5,0.7-1,11.1-1,23s-0.6,23.9-1.4,26.6c-2.1,7.8-6.9,13.9-13.9,17.3c-10.8,5.3-21.7,3.8-30.8-4.2c-5.3-4.7-5.9-4.7-5.9-0.6
				C2363.2,5073.7,2359.3,5074.7,2344.5,5070z"/>
			<path class="st0" d="M2009.3,4941.9c-1.1-1.9-1.5-26-1.5-107.1v-104.6l106.8,0.2l106.7,0.4l0.4,106.8l0.2,106.7h-105.6
				C2012.5,4944.4,2010.9,4944.4,2009.3,4941.9z M2182.4,4922.8c0-1.2-1.6-2-4.6-2.2c-3.3-0.2-4.8-1-5.1-2.5c-0.2-1.6,0.1-2,1.5-1.5
				c3.6,1.4,7.8-0.6,9.4-4.3c3.1-7.6-4.7-14.5-12.4-10.9c-4,2-4.8,5.8-1.4,5.8c1.5,0,2.6-0.5,2.6-1.1c0-2.1,3.6-2.5,5.6-0.6
				c2.4,2.4,2.4,3.1,0.1,6.1c-1.5,2.1-2.1,2.2-4.8,0.7c-4.2-2.2-5.8-0.9-5,4.6c1,7.6,1.1,7.7,7.8,7.7
				C2180.8,4924.5,2182.4,4924,2182.4,4922.8z M2202.2,4922.2c1.7-3.3,1.6-3.8-1.2-3.8c-1.4,0-2.5,0.6-2.5,1.4
				c0,2.5-5.6,0.6-5.9-2.1c-0.4-2.2,0.1-2.5,3.2-2c6.4,0.9,10.3-6.9,6.1-12.6c-2.4-3.2-9.4-3-12.3,0.5c-3.2,4-3.1,15.2,0.2,18.6
				C2193.2,4925.4,2200.3,4925.4,2202.2,4922.2z M2098.8,4890.5c10-5.1,14.2-10.6,15.1-20.2c1.2-14-2.5-21.8-12.5-26.4
				c-4.2-1.9-4.7-2.4-2.6-3c12.3-4,19.2-12,21-24.3c1.1-7.8-1.2-19.2-5.2-25c-4.5-6.4-12.8-11-23.3-12.9c-5.1-0.9-20.4-1.5-37.4-1.6
				h-28.8v58.9v58.8l33.2-0.4l33.1-0.4L2098.8,4890.5z M2190.1,4859.2c4.3-2,6.9-4.2,9.7-8.5l3.7-5.8v-29.1
				c0.1-21.2,0.6-30.5,1.7-33.8l1.7-4.7H2196h-10.9l-0.9,3.5l-0.7,3.5l-8.4-4.2c-24.5-12.1-49.9,1.9-46.6,25.9
				c0.6,4.5,2,7.3,5.7,11.4c5.7,6.6,11.1,8.9,27.7,12.1c20.3,4,21.7,4.5,21.7,8c0,1.7-1.4,4.5-3.1,6.1c-2.7,2.7-4.1,3.1-12.9,3.1
				c-9.2,0-10-0.2-12.4-3.2c-1.5-1.9-2.6-4.3-2.6-5.6c0-2.1-1.1-2.4-9.9-2.4h-9.9v4.1c0,4.8,4.3,12.8,8.8,16.1
				c1.9,1.4,6.3,3.5,9.9,4.7C2160.7,4863.6,2181.5,4863,2190.1,4859.2z"/>
			<path class="st0" d="M2192.8,4910.4c-1.1-3,0.4-5.7,3.2-5.7c2.1,0,2.6,0.6,2.2,3.3C2197.9,4911.9,2194,4913.5,2192.8,4910.4z"/>
			<path class="st0" d="M2047.4,4862.6v-14.9h16.1c18.7,0,23.4,1.5,26.7,8.4c4,8.4-0.2,17.6-9.3,20.1c-2.5,0.6-11,1.2-18.9,1.2
				h-14.6V4862.6z"/>
			<path class="st0" d="M2047.4,4813.9V4797h18c19.9,0,24.4,1.1,29,6.9c2.4,3.1,2.7,4.7,2.4,10.8c-0.5,6.1-1.1,7.8-4.5,11.1l-4,4
				l-20.4,0.4l-20.4,0.4V4813.9z"/>
			<path class="st0" d="M2169.4,4815.3c-5.4-1.2-11.8-3.2-14-4.2c-7.2-3.1-8-11.8-1.6-16.7c6.4-5.1,24.1-1,28,6.4
				c1,1.9,1.9,6.6,1.9,10.4C2183.6,4819.2,2184.4,4818.9,2169.4,4815.3z"/>
			<path class="st0" d="M2291.3,4892.1c-4.5-1.4-9-3.3-10.3-4.5c-3.2-2.8-2.1-6.7,2.5-8.2c5.9-2.1,6.8-3.5,7.6-13.2
				c0.7-10.2,2-9.5-12.1-5.4c-13.1,3.8-27.1-0.4-37-11.3c-6.6-7.2-9.7-14.4-11.3-25.9c-3.3-26,11.5-46.7,33.9-46.8
				c7.9,0,11.8,1.4,21.5,8l5.2,3.6v-4.1c0-6.7,1.4-7.7,8.9-6.8c3.7,0.4,10,2,14.1,3.6c6.1,2.4,7.3,3.3,7.3,5.8s-1,3.2-4.8,4.3
				s-5.1,2.2-5.9,5.1c-0.6,2.1-1,24.4-0.9,49.6c0.1,25.4-0.2,46.7-0.6,47.4C2308.1,4895.6,2300.4,4895,2291.3,4892.1z
				 M2282.9,4847.7c2.5-1.2,5.2-3.5,5.9-4.7c2.1-4,1.6-39.1-0.6-43.5c-3.5-6.7-13.6-10-21.2-6.8c-6.9,2.8-10,6.3-13,14.1
				c-3.1,8.3-3.5,23.4-0.7,30C2259,4850.4,2269.8,4854.3,2282.9,4847.7z"/>
		</g>
	</g>
	<g transform="translate(0.000000,829.000000) scale(0.100000,-0.100000)">
		<g>
			<path class="st1" d="M1253.4,7451.6c-133.4-31.9-264-136.3-320.5-258.2c-27.6-59.5-30.5-95.7-34.8-364.1
				c-4.4-297.3-4.4-297.3,36.3-406.1c53.7-140.7,98.6-174,232.1-174c50.8,0,113.1,8.7,139.2,20.3c59.5,24.7,120.4,95.7,133.4,153.7
				c7.3,33.4,17.4,43.5,45,43.5c18.9,0,34.8-7.3,34.8-17.4c0-8.7,13.1-43.5,29-76.9c40.6-85.6,114.6-123.3,237.9-123.3
				c139.2,0,172.6,21.8,233.5,152.3l50.8,107.3v301.7c0,271.2-2.9,307.5-30.5,367c-63.8,140.7-168.2,230.6-311.8,268.3
				c-75.4,18.9-92.8,18.9-161,0c-66.7-18.9-84.1-18.9-158.1,0c-46.4,11.6-88.5,21.8-92.8,20.3
				C1311.4,7464.7,1283.9,7458.9,1253.4,7451.6z M1360.7,7060l111.7-30.5l111.7,31.9c142.1,39.2,194.4,31.9,252.4-39.2
				c62.4-75.4,88.5-163.9,88.5-297.3v-113.1h-158.1c-134.9,0-162.4-4.4-194.4-29c-47.9-37.7-136.3-37.7-184.2,0
				c-30.5,24.7-59.5,29-192.9,29h-158.1l5.8,134.9c5.8,163.9,53.7,281.4,132,320.5C1234.6,7096.3,1227.3,7096.3,1360.7,7060z
				 M1359.3,6539.3c47.9-47.9,39.2-123.3-20.3-182.8c-47.9-47.9-53.7-49.3-159.5-49.3c-98.6,0-116,4.4-146.5,36.3
				c-47.9,46.4-50.8,142.1-4.4,191.5c27.6,30.5,43.5,33.4,166.8,33.4C1311.4,6568.4,1334.6,6564,1359.3,6539.3z M1938,6530.6
				c36.3-45,39.2-107.3,8.7-163.9c-26.1-52.2-45-59.5-169.7-59.5c-95.7,0-104.4,2.9-150.8,49.3c-39.2,39.2-49.3,60.9-49.3,107.3
				c0,87,33.4,104.4,197.3,104.4C1901.7,6568.4,1910.4,6566.9,1938,6530.6z"/>
			<path class="st1" d="M1295.5,6059.3c-121.8-18.9-191.5-120.4-91.4-134.9c176.9-27.6,588.9-16,620.8,16
				c24.7,24.7-24.7,87-82.7,105.9C1682.7,6066.5,1392.6,6075.2,1295.5,6059.3z"/>
		</g>
		<g>
			<path class="st1" d="M3067.4,7538.3c-84.1-7.3-166.8-16-185.7-20.3c-50.8-13.1-76.9-91.4-72.5-214.7l4.4-104.4l462.7-4.4
				c268.3-1.5,468.5,2.9,478.6,10.2c10.2,8.7,13.1,55.1,8.7,139.2c-8.7,159.5-23.2,174-184.2,187.1
				C3341.5,7549.9,3213.9,7551.4,3067.4,7538.3z"/>
			<path class="st1" d="M2601.8,7109c-10.2-26.1-11.6-59.5-2.9-91.4l11.6-50.8l667.2-4.4c665.7-2.9,667.2-2.9,693.3,27.6
				c27.6,34.8,31.9,88.5,10.2,130.5c-14.5,26.1-37.7,27.6-690.4,27.6h-673L2601.8,7109z"/>
			<path class="st1" d="M2797.6,6778.3c-26.1-36.3-26.1-97.2,1.5-161c39.2-95.7,227.7-147.9,343.7-95.7
				c55.1,23.2,71.1,40.6,98.6,103c18.9,40.6,39.2,74,45,74s30.5-36.3,55.1-79.8c49.3-87,71.1-103,156.6-117.5
				c74-11.6,213.2,27.6,258.2,72.5c42.1,43.5,59.5,139.2,33.4,192.9l-18.9,40.6h-477.2C2835.3,6807.3,2816.4,6805.9,2797.6,6778.3z"
				/>
			<path class="st1" d="M3116.7,6275c-91.4-18.9-113.1-53.7-118.9-179.9c-7.3-133.4,4.4-201.6,42.1-239.3
				c24.7-24.7,49.3-27.6,249.5-27.6c214.7,0,223.4,1.5,253.8,33.4c29,30.5,31.9,49.3,31.9,185.7c0,185.7-11.6,207.4-120.4,227.7
				C3361.8,6292.4,3196.5,6292.4,3116.7,6275z M3441.6,6167.7c23.2-7.3,31.9-20.3,31.9-50.8c0-56.6-65.3-76.9-103-30.5
				c-34.8,43.5-142.1,45-179.9,2.9c-29-33.4-65.3-37.7-91.4-11.6c-26.1,26.1-21.8,81.2,8.7,88.5
				C3145.7,6176.4,3403.9,6177.8,3441.6,6167.7z"/>
		</g>
		<g>
			<path class="st1" d="M4887.4,7502.2c-142.1-39.2-255.3-133.4-319.1-262.5c-33.4-68.2-36.3-89.9-40.6-340.8
				c-4.4-306,5.8-349.5,98.6-394.5c97.2-49.3,285.7-20.3,346.6,50.8c10.2,13.1,27.6,49.3,37.7,78.3c29,84.1,65.3,79.8,108.8-13.1
				c49.3-103,89.9-129.1,213.2-137.8c118.9-8.7,187.1,16,226.3,82.7c23.2,37.7,24.7,66.7,11.6,307.5
				c-8.7,179.9-21.8,287.2-37.7,333.6c-27.6,78.3-118.9,187.1-198.7,237.9C5221,7516.7,5028.1,7541.3,4887.4,7502.2z M5221,7441.2
				c59.5-17.4,97.2-42.1,161-105.9c101.5-103,129.1-179.9,129.1-369.9v-132l-162.4,4.4c-149.4,4.4-166.8,1.5-195.8-24.7
				c-43.5-40.6-139.2-40.6-188.6-1.5c-31.9,24.7-59.5,29-191.5,29c-101.5,0-161-5.8-172.6-17.4c-23.2-23.2-24.7,282.8,0,352.4
				c40.6,121.8,143.6,223.4,268.3,268.3C4944,7470.2,5126.8,7468.8,5221,7441.2z M4926.6,6775.5c43.5-30.5,53.7-85.6,24.7-146.5
				c-31.9-68.2-85.6-92.8-201.6-92.8c-82.7,0-100.1,4.4-130.5,36.3c-49.3,47.9-50.8,152.3-4.4,195.8c26.1,24.7,50.8,29,156.6,29
				C4857,6797.3,4904.8,6790,4926.6,6775.5z M5502.4,6766.8c58-46.4,47.9-159.5-18.9-211.8c-13.1-10.2-68.2-18.9-127.6-18.9
				c-94.3,0-110.2,4.4-149.4,40.6c-62.4,55.1-74,136.3-29,184.2c30.5,33.4,45,36.3,159.5,36.3
				C5442.9,6797.3,5470.5,6792.9,5502.4,6766.8z"/>
			<path class="st1" d="M4814.9,7036.6c0-18.9,37.7-21.8,246.6-21.8c208.9,0,246.6,2.9,246.6,21.8s-37.7,21.8-246.6,21.8
				C4852.6,7058.3,4814.9,7055.4,4814.9,7036.6z"/>
			<path class="st1" d="M4991.9,6917.6c5.8-31.9,118.9-45,150.8-17.4c33.4,27.6,8.7,42.1-75.4,42.1
				C4999.1,6942.3,4987.5,6937.9,4991.9,6917.6z"/>
			<path class="st1" d="M4887.4,6308.5c-117.5-26.1-130.5-47.9-130.5-232.1c0-140.7,2.9-153.7,36.3-185.7
				c34.8-34.8,40.6-36.3,261.1-36.3c226.3,0,226.3,0,261.1,37.7c33.4,36.3,36.3,50.8,36.3,175.5c0,185.7-23.2,224.8-145,243.7
				C5097.7,6328.8,4971.6,6327.3,4887.4,6308.5z M5232.6,6179.4c18.9-33.4,5.8-75.4-27.6-85.6c-29-10.2-85.6,14.5-85.6,36.3
				c0,8.7-36.3,14.5-79.8,14.5s-79.8-5.8-79.8-14.5c0-21.8-56.6-46.4-85.6-36.3c-36.3,11.6-49.3,46.4-30.5,81.2
				c14.5,24.7,31.9,27.6,195.8,27.6C5192,6202.6,5221,6198.2,5232.6,6179.4z"/>
		</g>
		<g>
			<path class="st1" d="M6711.3,7504c-130.5-43.5-235-137.8-300.2-271.2c-29-59.5-33.4-91.4-37.7-349.5l-5.8-282.8l37.7-45
				c52.2-62.4,108.8-81.2,214.7-74c50.8,4.4,101.5,11.6,114.6,17.4c17.4,7.3,26.1,1.5,33.4-24.7c7.3-33.4,13.1-33.4,133.4-33.4
				c117.5,1.5,127.6,4.4,140.7,34.8c10.2,23.2,21.8,30.5,37.7,21.8c13.1-5.8,62.4-13.1,111.7-16c169.7-10.2,261.1,68.2,245.1,207.4
				c-4.4,40.6-13.1,163.9-18.9,275.6c-8.7,181.3-14.5,211.8-50.8,284.3c-46.4,97.2-143.6,191.5-239.3,235
				C7043.4,7521.4,6801.2,7533,6711.3,7504z M7130.5,7421.3c85.6-43.5,174-145,204.5-230.6c13.1-40.6,21.8-117.5,21.8-204.5V6847
				l-136.3,5.8c-107.3,4.4-146.5,1.5-188.6-18.9c-29-14.5-52.2-30.5-52.2-37.7c0-7.3-29-13.1-65.3-13.1c-45,0-79.8,11.6-118.9,37.7
				c-50.8,34.8-63.8,36.3-185.7,31.9c-71.1-4.4-142.1-11.6-158.1-18.9c-24.7-11.6-26.1-2.9-20.3,161
				c4.4,140.7,11.6,182.8,36.3,232.1c50.8,97.2,101.5,146.5,197.3,194.4c85.6,43.5,95.7,45,242.2,40.6
				C7034.7,7459,7071,7451.8,7130.5,7421.3z M6567.7,6767.2c27.6-26.1,30.5-34.8,16-58s-8.7-34.8,36.3-81.2
				c46.4-46.4,55.1-49.3,63.8-29c5.8,16-1.5,37.7-16,53.7c-21.8,23.2-23.2,31.9-7.3,50.8c14.5,18.9,14.5,27.6-5.8,47.9
				c-34.8,39.2-29,46.4,34.8,46.4c82.7,0,136.3-53.7,121.8-118.9c-21.8-105.9-78.3-142.1-214.7-142.1c-84.1,0-101.5,4.4-132,36.3
				c-68.2,66.7-36.3,224.8,46.4,224.8C6524.2,6797.7,6550.3,6783.2,6567.7,6767.2z M7353.8,6768.6c46.4-43.5,45-147.9-4.4-195.8
				c-30.5-31.9-47.9-36.3-130.5-36.3c-116,0-175.5,27.6-204.5,94.3c-27.6,68.2-26.1,89.9,16,130.5c31.9,33.4,46.4,36.3,163.9,36.3
				C7303.1,6797.7,7327.7,6793.3,7353.8,6768.6z M6959.3,6630.9c10.2-31.9,20.3-59.5,20.3-60.9c0-2.9-31.9-4.4-72.5-4.4
				c-79.8,0-78.3-1.5-59.5,46.4c7.3,18.9,17.4,45,21.8,59.5C6883.9,6719.3,6936.1,6694.7,6959.3,6630.9z"/>
			<path class="st1" d="M6667.8,7058.7c-21.8-36.3,18.9-43.5,246.6-43.5c230.6,0,290.1,11.6,237.9,45
				C7123.2,7077.6,6679.4,7076.1,6667.8,7058.7z"/>
			<path class="st1" d="M6837.5,6918c4.4-21.8,20.3-26.1,84.1-26.1c63.8,0,79.8,4.4,84.1,26.1c4.4,21.8-7.3,24.7-84.1,24.7
				C6844.7,6942.7,6833.1,6939.8,6837.5,6918z"/>
			<path class="st1" d="M6727.2,6308.9c-110.2-27.6-116-39.2-121.8-221.9c-5.8-153.7-4.4-159.5,31.9-195.8
				c36.3-36.3,39.2-36.3,266.9-36.3c221.9,0,230.6,1.5,261.1,33.4c29,30.5,31.9,49.3,31.9,194.4c0,176.9-7.3,194.4-103,223.4
				C7021.7,6329.2,6808.5,6330.6,6727.2,6308.9z M7081.1,6181.2c50.8-60.9-53.7-111.7-108.8-50.8c-36.3,40.6-126.2,39.2-165.3-1.5
				c-39.2-42.1-108.8-33.4-114.6,14.5c-2.9,18.9,2.9,40.6,14.5,46.4c10.2,7.3,94.3,13.1,187.1,13.1
				C7024.6,6203,7066.6,6198.6,7081.1,6181.2z"/>
		</g>
		<g>
			<path class="st1" d="M8294.7,7516.6c-84.1-33.4-159.5-110.2-204.5-206c-36.3-76.9-37.7-92.8-42.1-380
				c-4.4-275.6-2.9-308.9,24.7-388.7c17.4-47.9,30.5-107.3,30.5-130.5c0-63.8,58-319.1,82.7-368.4
				c36.3-68.2,121.8-182.8,149.4-197.3c14.5-8.7,124.7-14.5,245.1-14.5c249.5,0,230.6-7.3,335,143.6c50.8,75.4,65.3,116,95.7,256.7
				c18.9,91.4,34.8,185.7,34.8,210.3c0,26.1,13.1,68.2,30.5,95.7c29,46.4,30.5,63.8,24.7,371.3c-4.4,297.3-7.3,327.8-37.7,394.5
				c-45,98.6-124.7,175.5-216.1,210.3C8741.4,7552.9,8390.4,7554.3,8294.7,7516.6z M8879.2,7259.9c16-10.2,49.3-53.7,72.5-95.7
				c36.3-66.7,43.5-98.6,47.9-208.9l5.8-130.5l-110.2,4.4c-75.4,4.4-133.4-1.5-182.8-17.4c-89.9-29-198.7-29-269.8,0
				c-42.1,17.4-88.5,21.8-182.8,17.4l-127.6-5.8v117.5c0,272.7,114.6,398.9,282.8,310.4l58-31.9l152.3,37.7
				C8779.1,7293.2,8825.5,7293.2,8879.2,7259.9z M8465.8,6734.8c23.2-29,27.6-49.3,20.3-82.7c-21.8-101.5-79.8-139.2-214.7-139.2
				c-84.1,0-101.5,4.4-132,36.3c-47.9,46.4-50.8,152.3-7.3,195.8c24.7,24.7,47.9,29,165.3,29
				C8429.6,6774,8435.4,6772.5,8465.8,6734.8z M9030,6736.3c42.1-53.7,39.2-123.3-7.3-178.4c-36.3-42.1-42.1-45-145-45
				c-95.7,0-111.7,4.4-150.8,40.6c-60.9,53.7-75.4,145-30.5,190c26.1,26.1,47.9,30.5,166.8,30.5
				C8993.8,6774,9002.5,6772.5,9030,6736.3z M8623.9,6639.1c31.9-127.6,130.5-191.5,282.8-181.3c50.8,2.9,78.3-1.5,75.4-10.2
				c-7.3-17.4-40.6-124.7-76.9-246.6c-23.2-81.2-26.1-84.1-33.4-43.5c-14.5,71.1-42.1,107.3-84.1,117.5c-21.8,4.4-49.3,11.6-60.9,16
				c-47.9,16-255.3,14.5-324.9-4.4c-85.6-21.8-124.7-62.4-124.7-127.6c-1.5-39.2-2.9-40.6-16-18.9c-8.7,14.5-30.5,84.1-49.3,152.3
				c-18.9,69.6-37.7,136.3-42.1,147.9c-8.7,18.9,5.8,21.8,88.5,17.4c82.7-4.4,108.8,0,162.4,29c69.6,37.7,117.5,108.8,117.5,174
				c0,33.4,5.8,40.6,34.8,40.6C8602.2,6701.5,8609.4,6691.3,8623.9,6639.1z M8753,6156.1c18.9-33.4,5.8-75.4-27.6-85.6
				c-29-10.2-85.6,14.5-85.6,36.3c0,8.7-36.3,14.5-79.8,14.5c-43.5,0-79.8-5.8-79.8-14.5c0-21.8-56.6-46.4-87-36.3
				c-34.8,11.6-50.8,60.9-29,87c14.5,17.4,58,21.8,197.3,21.8C8712.4,6179.3,8741.4,6175,8753,6156.1z"/>
			<path class="st1" d="M8354.1,6952.4c-10.2-2.9-18.9-16-18.9-27.6c0-16,43.5-20.3,246.6-20.3c201.6,0,246.6,4.4,246.6,20.3
				c0,11.6-10.2,24.7-23.2,29C8777.7,6964,8380.2,6964,8354.1,6952.4z"/>
		</g>
	</g>
	<text transform="matrix(1 0 0 1 248.8691 363.8633)"><tspan x="0" y="0" class="st1 st2 st3">Caracters</tspan><tspan x="0" y="109.1" class="st1 st2 st3 st4">		</tspan><tspan x="106.2" y="109.1" class="st1 st2 st3">Beaking</tspan><tspan x="0" y="218.2" class="st1 st2 st3 st4">				</tspan><tspan x="212.4" y="218.2" class="st1 st2 st3">Bd</tspan></text>
	<rect x="249.3" y="258.5" class="st1" width="104.8" height="104.8"/>
	<rect x="355" y="367.4" class="st1" width="104.8" height="104.8"/>
	<rect x="461.5" y="476.6" class="st1" width="104.8" height="104.8"/>
	<text transform="matrix(1 0 0 1 256.4667 338.0899)" class="st5 st6 st7">Ch</text>
	<text transform="matrix(1 0 0 1 255.6089 271.5654)" class="st5 st6 st8">112</text>
	<text transform="matrix(1 0 0 1 369.2059 453.0099)" class="st5 st6 st7">Br</text>
	<text transform="matrix(1 0 0 1 362.348 382.4855)" class="st5 st6 st8">35</text>
	<text transform="matrix(1 0 0 1 467.6674 557.5595)" class="st5 st6 st7">Ba</text>
	<text transform="matrix(1 0 0 1 466.3004 491.035)" class="st5 st6 st8">56</text>
	<text transform="matrix(1 0 0 1 633.2891 581.124)" class="st1 st2 st9">Lcas Rzende</text>
	<g>
		<rect x="633.3" y="564.2" class="st1" width="16.9" height="16.9"/>
		<text transform="matrix(1 0 0 1 633.7891 577.543)" class="st5 st6 st10">Lu</text>
		<text transform="matrix(1 0 0 1 634.0615 566.2422)" class="st5 st6 st11">18</text>
	</g>
	<g>
		<rect x="680" y="564.2" class="st1" width="16.9" height="16.9"/>
		<text transform="matrix(1 0 0 1 680.5332 577.543)" class="st5 st6 st12">Re</text>
		<text transform="matrix(1 0 0 1 680.8066 566.2422)" class="st5 st6 st11">6</text>
	</g>
</g>
<g id="Camada_2">
</g>
</svg>
