<?xml version="1.0" encoding="utf-8"?>
<!-- Generator: Adobe Illustrator 25.2.1, SVG Export Plug-In . SVG Version: 6.00 Build 0)  -->
<svg version="1.1" id="Camada_1" xmlns="http://www.w3.org/2000/svg" xmlns:xlink="http://www.w3.org/1999/xlink" x="0px" y="0px"
	 viewBox="0 0 200 200" style="enable-background:new 0 0 200 200;" xml:space="preserve">
<style type="text/css">
	.st0{fill:#BFBFBF;}
</style>
<g>
	<path class="st0" d="M69.7,10.3c-9.1,3.6-17.3,11.9-22.1,22.3c-3.9,8.3-4.1,10-4.5,41.1c-0.5,29.8-0.3,33.4,2.7,42
		c1.9,5.2,3.3,11.6,3.3,14.1c0,6.9,6.3,34.5,8.9,39.8c3.9,7.4,13.2,19.8,16.2,21.3c1.6,0.9,13.5,1.6,26.5,1.6
		c27,0,24.9,0.8,36.2-15.5c5.5-8.2,7.1-12.6,10.4-27.8c2-9.9,3.8-20.1,3.8-22.7c0-2.8,1.4-7.4,3.3-10.4c3.1-5,3.3-6.9,2.7-40.2
		c-0.5-32.2-0.8-35.5-4.1-42.7c-4.9-10.7-13.5-19-23.4-22.7C118,6.4,80,6.3,69.7,10.3z M132.9,38.1c1.7,1.1,5.3,5.8,7.8,10.4
		c3.9,7.2,4.7,10.7,5.2,22.6l0.6,14.1l-11.9-0.5c-8.2-0.5-14.4,0.2-19.8,1.9c-9.7,3.1-21.5,3.1-29.2,0c-4.5-1.9-9.6-2.4-19.8-1.9
		l-13.8,0.6V72.6c0-29.5,12.4-43.1,30.6-33.6l6.3,3.5l16.5-4.1C122.1,34.5,127.1,34.5,132.9,38.1z M88.2,94.9c2.5,3.1,3,5.3,2.2,8.9
		c-2.4,11-8.6,15.1-23.2,15.1c-9.1,0-11-0.5-14.3-3.9c-5.2-5-5.5-16.5-0.8-21.2c2.7-2.7,5.2-3.1,17.9-3.1
		C84.3,90.7,84.9,90.8,88.2,94.9z M149.2,94.7c4.5,5.8,4.2,13.3-0.8,19.3c-3.9,4.5-4.5,4.9-15.7,4.9c-10.4,0-12.1-0.5-16.3-4.4
		c-6.6-5.8-8.2-15.7-3.3-20.6c2.8-2.8,5.2-3.3,18-3.3C145.3,90.7,146.2,90.8,149.2,94.7z M105.3,105.2c3.5,13.8,14.1,20.7,30.6,19.6
		c5.5-0.3,8.5,0.2,8.2,1.1c-0.8,1.9-4.4,13.5-8.3,26.7c-2.5,8.8-2.8,9.1-3.6,4.7c-1.6-7.7-4.5-11.6-9.1-12.7
		c-2.4-0.5-5.3-1.3-6.6-1.7c-5.2-1.7-27.6-1.6-35.1,0.5c-9.3,2.4-13.5,6.7-13.5,13.8c-0.2,4.2-0.3,4.4-1.7,2
		c-0.9-1.6-3.3-9.1-5.3-16.5c-2-7.5-4.1-14.7-4.5-16c-0.9-2,0.6-2.4,9.6-1.9c8.9,0.5,11.8,0,17.6-3.1C90.9,117.6,96,110,96,102.9
		c0-3.6,0.6-4.4,3.8-4.4C102.9,98.5,103.7,99.6,105.3,105.2z M119.2,157.5c2,3.6,0.6,8.2-3,9.3c-3.1,1.1-9.3-1.6-9.3-3.9
		c0-0.9-3.9-1.6-8.6-1.6s-8.6,0.6-8.6,1.6c0,2.4-6.1,5-9.4,3.9c-3.8-1.3-5.5-6.6-3.1-9.4c1.6-1.9,6.3-2.4,21.3-2.4
		C114.9,155,118,155.4,119.2,157.5z"/>
	<path class="st0" d="M76.1,71.4c-1.1,0.3-2,1.7-2,3c0,1.7,4.7,2.2,26.7,2.2c21.8,0,26.7-0.5,26.7-2.2c0-1.3-1.1-2.7-2.5-3.1
		C121.9,70.1,78.9,70.1,76.1,71.4z"/>
</g>
</svg>
