<?xml version="1.0" standalone="no"?>
<!DOCTYPE svg PUBLIC "-//W3C//DTD SVG 20010904//EN"
 "http://www.w3.org/TR/2001/REC-SVG-20010904/DTD/svg10.dtd">
<svg version="1.0" xmlns="http://www.w3.org/2000/svg"
 width="89.000000pt" height="132.000000pt" viewBox="0 0 89.000000 132.000000"
 preserveAspectRatio="xMidYMid meet">

<g transform="translate(0.000000,132.000000) scale(0.100000,-0.100000)"
fill="hsl(54, 100%, 50%)" stroke="none">
<path d="M346 1264 c-9 -8 -16 -22 -16 -29 0 -17 27 -45 44 -45 36 0 49 62 17
80 -25 13 -27 13 -45 -6z"/>
<path d="M446 1124 c-24 -24 -20 -61 9 -80 23 -15 27 -15 50 0 46 30 26 96
-29 96 -8 0 -22 -7 -30 -16z m58 -23 c9 -13 -4 -41 -18 -41 -18 0 -35 21 -29
36 6 16 39 19 47 5z"/>
<path d="M323 955 c-3 -9 0 -26 6 -38 7 -14 11 -58 9 -117 l-3 -95 -34 -20
c-66 -39 -138 -115 -161 -168 -34 -77 -38 -177 -10 -249 26 -71 97 -151 164
-186 46 -24 62 -27 151 -27 84 0 107 4 140 22 71 38 123 91 157 160 28 58 33
77 33 143 -1 121 -62 229 -164 287 -25 15 -49 32 -53 38 -12 16 -9 190 3 202
6 6 9 21 7 34 -3 24 -5 24 -121 27 -100 2 -118 0 -124 -13z m222 -15 c4 -6
-30 -10 -94 -10 -61 0 -101 4 -101 10 0 6 38 10 94 10 53 0 98 -4 101 -10z
m-25 -124 c0 -102 10 -132 52 -154 53 -28 122 -98 148 -149 21 -40 25 -62 25
-133 0 -73 -4 -92 -27 -135 -59 -112 -155 -170 -278 -169 -124 1 -216 58 -271
170 -26 53 -32 76 -32 132 0 116 48 200 155 269 l68 44 0 104 0 105 80 0 80 0
0 -84z"/>
<path d="M400 835 c-7 -8 -12 -26 -12 -40 0 -34 19 -55 52 -55 31 0 60 27 60
57 0 44 -72 71 -100 38z m64 -20 c27 -28 -10 -69 -40 -44 -17 14 -18 31 -2 47
16 16 23 15 42 -3z"/>
<path d="M407 633 c-4 -3 -7 -19 -7 -34 0 -22 6 -30 25 -35 43 -11 73 34 43
64 -13 13 -50 16 -61 5z"/>
<path d="M510 490 c-11 -11 -20 -27 -20 -35 0 -21 36 -55 59 -55 20 0 51 35
51 57 0 18 -37 53 -55 53 -8 0 -24 -9 -35 -20z m58 -33 c4 -20 -25 -34 -40
-19 -15 15 -1 44 19 40 10 -2 19 -11 21 -21z"/>
<path d="M400 345 c-9 -11 -35 -15 -107 -15 -102 0 -111 -5 -99 -56 9 -35 82
-111 129 -135 121 -62 279 -15 347 103 44 78 34 88 -84 88 -71 0 -97 4 -106
15 -7 8 -25 15 -40 15 -15 0 -33 -7 -40 -15z m64 -21 c19 -19 4 -57 -21 -52
-26 5 -39 34 -24 52 17 20 26 20 45 0z"/>
</g>
</svg>
