<?xml version="1.0" encoding="utf-8"?>
<!-- Generator: Adobe Illustrator 25.2.1, SVG Export Plug-In . SVG Version: 6.00 Build 0)  -->
<svg version="1.1" id="Camada_1" xmlns="http://www.w3.org/2000/svg" xmlns:xlink="http://www.w3.org/1999/xlink" x="0px" y="0px"
	 viewBox="0 0 1967 1295" style="enable-background:new 0 0 1967 1295;" xml:space="preserve">
<style type="text/css">
	.st0{fill:#E6E6E6;}
</style>
<g transform="translate(0.000000,1295.000000) scale(0.100000,-0.100000)">
	<path class="st0" d="M2626.9,12434.9c-41-24.8-60.1-64.8-60.1-125.8c0-85.8,50.5-141.1,128.7-141.1c79.1,0,128.7,55.3,128.7,143
		c0,62-22.9,105.8-65.8,128.7C2719.3,12459.7,2664,12457.8,2626.9,12434.9z M2758.4,12400.6c10.5-9.5,22.9-32.4,27.6-53.4
		c21-75.3-24.8-150.6-90.6-150.6c-105.8,0-133.5,183-33.4,222.1C2685,12428.2,2739.3,12417.7,2758.4,12400.6z"/>
	<path class="st0" d="M2458.1,12055.5c-27.6-50.5-133.5-240.2-234.5-421.4c-101-181.1-184.9-330.8-187.8-333.7
		c-3.8-4.8-779.8-25.7-996.2-27.6c-96.3-1-103-1.9-103-20c0-23.8-34.3-22.9,657.8-4.8c460.4,12.4,520.5,12.4,530,0
		c5.7-8.6,113.4-185.9,238.3-395.6c125.8-209.7,229.7-380.4,232.6-381.3c2.9,0,10.5,3.8,18.1,8.6c11.4,7.6-28.6,80.1-199.2,364.2
		c-117.3,195.4-212.6,360.3-212.6,366.1c0,6.7,103.9,198.3,230.7,427.1c127.7,227.8,228.8,419.4,225,425.2
		c-2.9,5.7-11.4,10.5-17.2,10.5c-6.7,0-114.4-184.9-239.3-410.9c-204-368-229.7-409.9-241.2-393.7c-6.7,9.5-12.4,20-12.4,24.8
		c0,3.8-13.3,7.6-29.6,7.6c-22.9,0-28.6,2.9-23.8,15.3c2.9,8.6,104.9,191.6,225,408c121.1,216.4,219.3,397.5,219.3,403.2
		s-6.7,12.4-14.3,15.3C2514.4,12147,2495.3,12122.2,2458.1,12055.5z"/>
	<path class="st0" d="M5991,10976.3c-37.2-22.9-59.1-69.6-59.1-123.9c0-21,5.7-53.4,13.3-71.5c37.2-88.7,180.2-96.3,229.7-11.4
		c24.8,40,25.7,126.8,1.9,163C6136.9,10992.5,6052,11013.5,5991,10976.3z M6123.5,10942c24.8-22.9,41-81,33.4-121.1
		c-3.8-21.9-18.1-43.9-36.2-59.1c-25.7-21-37.2-24.8-67.7-21c-21,2.9-46.7,13.3-56.2,23.8c-21.9,21-31.5,81-22.9,130.6
		C5986.3,10959.2,6074,10986.8,6123.5,10942z"/>
	<path class="st0" d="M5906.2,10637c-2.9-8.6-71.5-218.3-151.6-464.3c-80.1-246.9-149.7-450.9-155.4-453.8
		c-4.8-2.9-200.2-46.7-433.7-96.3c-407.1-86.8-459.5-102-412.8-120.1c9.5-2.9,612,120.1,900.9,184.9l41,9.5l384.2-425.2
		c210.7-234.5,386.1-430.9,389.9-437.6c3.8-5.7-72.5-263.1-168.7-572c-96.3-308.9-177.3-568.2-179.2-576.7
		c-3.8-21,801.7-915.2,820.8-910.4c8.6,1.9,270.7,58.2,583.4,125.8l568.2,122l464.3-323.2c254.5-176.4,460.4-325.1,456.6-328.9
		c-4.8-3.8-227.8-133.5-497.6-288.8c-427.1-245-492.9-280.3-510-270.7c-11.4,5.7-240.2,138.2-509.1,295.5
		c-267.9,156.3-492.9,284.1-497.6,284.1c-4.8,0-241.2-133.5-524.3-295.5l-515-295.3l-497.6,291.7
		c-274.5,161.1-508.1,296.5-518.6,301.2c-18.1,8.6-72.5-35.3-470.9-374.6c-247.9-211.6-451.9-384.2-454.7-384.2
		c-1.9,1-216.4,123-476.6,271.7l-470.9,270.7l6.7,479.5l6.7,478.6h-21c-20,0-20-2.9-20-159.2c0-88.7-2.9-298.4-6.7-467.1l-5.7-307
		l-24.8,12.4c-20,11.4-27.6,10.5-45.8-1l-21.9-14.3v468.1c0,461.4,0,468.1-19.1,468.1s-19.1-6.7-20-440.4
		c0-243.1-3.8-459.5-6.7-482.4l-6.7-41.9L2523.9,5962c-199.2-115.3-363.2-212.6-364.2-216.4c-1.9-3.8,1-13.3,4.8-20
		c5.7-8.6,118.2,52.4,413.7,222.1l406.1,233.6l515.7-296.5c284.1-163,521.5-294.6,528.1-292.7c6.7,1.9,210.7,172.5,453.8,379.4
		c242.1,206.9,446.1,376.6,452.8,376.6c6.7,0,235.5-130.6,509.1-290.8l497.6-290.8V5184v-582.5l-409-236.4
		c-365.1-211.6-409-239.3-400.4-254.5c8.6-16.2,11.4-16.2,51.5,6.7c22.9,13.3,206.9,120.1,409.9,237.4l368,212.6l518.6-298.4
		l519.5-298.4l507.2,296.5c279.3,163,512.9,296.5,517.6,296.5c5.7,0,189.7-103.9,409-230.7c383.2-220.2,414.7-235.5,415.6-199.2
		c0,2.9-170.6,103.9-378.5,223.1c-208.8,119.2-390.8,225-406.1,234.5l-25.7,18.1l1.9,578.6l2.9,577.7l509.1,292.7l509.1,292.7
		l67.7-40c37.2-21.9,257.4-153.5,490-291.7l421.4-251.7l-1.9-585.3l-2.9-586.3l-388-229.7c-213.5-125.8-388-235.5-388-242.1
		c-1-6.7,4.8-14.3,11.4-17.2c6.7-1.9,185.9,99.1,398.5,225.9c211.6,126.8,389.9,230.7,394.7,230.7c5.7,0,239.3-132.5,519.5-293.6
		c280.3-162.1,514.8-293.6,519.5-293.6c7.6,0,886.6,505.2,1001,574.8l28.6,18.1l405.1-232.6c335.6-193.5,406.1-230.7,412.8-218.3
		c4.8,8.6,4.8,19.1,1,22.9c-4.8,4.8-185.9,109.6-401.3,233.6l-393.7,225.9v583.4v582.5l512.9,300.3
		c281.2,164,513.8,300.3,515.7,301.2c1.9,1.9-44.8,258.3-103.9,572c-58.2,312.7-103,572-98.2,575.8c5.7,4.8,934.2,544.3,995.2,577.7
		c2.9,1.9,184.9-100.1,405.1-225.9c357.5-204,400.4-225.9,410.9-211.6c10.5,13.3,8.6,18.1-14.3,31.5
		c-14.3,8.6-179.2,103-366.1,209.7l-341.3,194.5v498.6c0,491.9,0,498.6-19.1,498.6s-19.1-6.7-19.1-486.2v-487.1l-27.6,14.3
		c-23.8,12.4-29.6,12.4-44.8,1c-10.5-7.6-21-14.3-24.8-14.3c-4.8,0-7.6,219.3-7.6,486.2c0,479.5,0,486.2-19.1,486.2
		s-19.1-7.6-21-501.4l-2.9-501.4l-476.6-275.5c-456.6-265-476.6-277.4-473.8-302.2c1.9-14.3,47.7-265,103-558.6
		c54.3-292.7,99.1-539.6,99.1-548.1c-1-10.5-165.9-111.5-502.4-308.9L12135,5800l-513.8,296.5c-358.4,206.9-517.6,294.6-529.1,289.8
		c-9.5-2.9-242.1-135.4-516.7-292.7c-274.5-158.2-504.3-286.9-511-286.9c-11.4,0-925.6,540.5-946.6,560.5
		c-10.5,9.5-4.8,18.1,33.4,44.8c24.8,18.1,190.7,137.3,368,265c283.1,203.1,321.3,232.6,308.9,245c-12.4,12.4-60.1-19.1-388-253.6
		c-205-147.8-375.6-267.9-377.5-267.9c-6.7,0-910.4,628.2-927.6,643.5c-10.5,10.5,16.2,101,161.1,549.1
		c95.3,295.5,178.3,545.3,183,554.8c7.6,15.3,42.9,16.2,587.2,14.3l578.6-2.9l128.7-430.9c121.1-409,141.1-462.3,157.3-419.4
		c2.9,5.7-46.7,184-109.6,394.7L9707,8086.9l282.2,411.8c270.7,396.6,288.8,427.1,250.7,428c-3.8,0-127.7-178.3-276.5-395.6
		c-262.2-383.2-270.7-395.6-279.3-367c-6.7,22.9-13.3,28.6-35.3,28.6c-15.3,0-27.6,4.8-27.6,10.5c0,8.6,357.5,538.6,491.9,728.3
		c38.1,54.3,40,59.1,23.8,68.6s-45.8-30.5-292.7-390.8c-150.6-221.2-279.3-405.1-284.1-409c-5.7-3.8-251.7-7.6-545.3-7.6H8479
		l-393.7,445.2c-217.4,245-397.5,448-400.4,452.8s-266-45.8-584.4-111.5c-318.4-66.7-584.4-119.2-591-117.3
		c-20,4.8-729.3,798.9-725.5,811.3c11.4,33.4,300.3,923.7,300.3,925.6c0,1.9-8.6,5.7-19.1,8.6c-10.5,2.9-19.1,2.9-19.1,1
		c0-2.9-277.4-858-291.7-899c-2.9-10.5-9.5-8.6-27.6,8.6c-16.2,15.3-29.6,20-46.7,15.3c-14.3-2.9-24.8-3.8-24.8,0
		c0,2.9,64.8,205.9,143.9,450.9c79.1,244,144.9,448,145.9,452.8C5947.2,10654.1,5912.9,10654.1,5906.2,10637z M8054.9,8612.2
		c211.6-238.3,384.2-437.6,384.2-442.3c0-7.6-352.7-1103.9-356.5-1108.7c-2.9-2.9-1119.2-241.2-1132.5-241.2
		c-11.4,0-697.8,751.2-772.2,844.6c-17.2,21-12.4,36.2,159.2,586.3c97.2,310.8,178.3,566.3,179.2,566.3
		c10.5,7.6,1113.4,231.6,1131.6,230.7C7666,9045.9,7758.4,8946.8,8054.9,8612.2z M11623.1,6050.7l490.9-285l2.9-580.6l1.9-581.5
		l-345.1-199.2c-190.7-110.6-419.4-242.1-509.1-293.6l-162.1-94.4l-500.5,287.9c-274.5,158.2-505.2,291.7-511.9,296.5
		c-8.6,7.6-11.4,132.5-9.5,587.2l2.9,577.7l510,292.7c365.1,209.7,513.8,290.8,524.3,284.1
		C11125.5,6338.6,11353.3,6207,11623.1,6050.7z M7505.8,6055.5l494.8-287.9l-1.9-585.3l-2.9-585.3l-497.6-289.8l-498.6-290.8
		l-510,293.6l-510,292.7v582.5l1,581.5l502.4,287.9c276.5,159.2,508.1,288.8,515.7,288.8C7006.3,6343.3,7234.1,6213.7,7505.8,6055.5
		z"/>
	<path class="st0" d="M7099.7,8833.3c-407.1-85.8-486.2-104.9-489-118.2c-1.9-11.4,2.9-17.2,16.2-17.2
		c10.5,0,235.5,44.8,501.4,100.1c265,55.3,484.3,100.1,486.2,100.1c2.9,0,4.8,8.6,4.8,19.1c0,12.4-5.7,19.1-16.2,18.1
		C7593.5,8935.3,7367.6,8888.6,7099.7,8833.3z"/>
	<path class="st0" d="M8278,8123.1c-41-106.8-306-943.8-301.2-950.4c2.9-5.7,11.4-9.5,18.1-9.5s71.5,183,166.8,479.5
		c85.8,263.1,156.3,482.4,157.3,487.1c0,5.7-6.7,11.4-15.3,13.3C8292.3,8145.1,8283.7,8138.4,8278,8123.1z"/>
	<path class="st0" d="M6295.1,7712.3c-9.5-11.4,47.7-79.1,300.3-360.3c390.8-434.7,370.8-414.7,388.9-399.4
		c12.4,10.5-35.3,66.7-328.9,392.8c-188.8,208.8-344.1,380.4-346,380.4S6300.8,7719.9,6295.1,7712.3z"/>
	<path class="st0" d="M10650.7,5970.6c-238.3-137.3-437.6-252.6-442.3-256.4c-3.8-4.8-3.8-14.3,1-22.9
		c6.7-12.4,82.9,27.6,453.8,240.2c417.5,238.3,468.1,272.6,430.9,285C11088.3,6218.5,10889,6107.9,10650.7,5970.6z"/>
	<path class="st0" d="M11975.8,5185.1c0-503.3,0-510,19.1-510s19.1,6.7,19.1,510s0,510-19.1,510S11975.8,5688.4,11975.8,5185.1z"/>
	<path class="st0" d="M10206.5,4674.1c-2.9-5.7,0-16.2,6.7-22.9c7.6-6.7,205.9-122,440.4-256.4c392.8-225.9,465.2-261.2,452.8-223.1
		c-3.8,11.4-869.4,512.9-884.7,512.9C10217,4684.6,10210.3,4679.9,10206.5,4674.1z"/>
	<path class="st0" d="M6546.8,5970.6c-235.5-136.3-434.7-250.7-441.4-255.5c-9.5-4.8-9.5-9.5,0-21.9
		c12.4-15.3,144.9,57.2,829.4,454.7c53.4,30.5,72.4,46.7,68.6,57.2c-3.8,7.6-10.5,14.3-17.2,13.3
		C6980.5,6218.5,6783.2,6106.9,6546.8,5970.6z"/>
	<path class="st0" d="M7857.6,5185.1c0-503.3,0-510,19.1-510s19.1,6.7,19.1,510s0,510-19.1,510S7857.6,5688.4,7857.6,5185.1z"/>
	<path class="st0" d="M6104.5,4671.3c-9.5-10.5,48.6-47.7,325.1-205.9c184.9-106.8,387-223.1,448-258.3
		c103-60.1,113.4-63.9,122-47.7c7.6,16.2-38.1,44.8-432.8,271.7c-242.1,139.2-443.3,253.6-446.1,253.6
		C6117.8,4684.6,6110.2,4678.9,6104.5,4671.3z"/>
	<path class="st0" d="M3163.9,10357.5c-206.9-47.4-229-59.5-192.9-73.2c4.1-1.8,84,13.1,201.7,37.1
		C3168.9,10333.1,3166,10345.2,3163.9,10357.5z"/>
	<path class="st0" d="M4272.8,9931.6c-10.1-8.1-20.9-15.5-32.2-21.9c79.3-129.8,135.5-220.1,137.6-220.1c2.9,0,10.5,3.8,18.1,8.6
		C4404.3,9703.4,4376.2,9758.1,4272.8,9931.6z"/>
	<path class="st0" d="M2669.8,10370c-52.4-27.6-76.3-113.4-50.5-180.2c54.3-142,252.6-99.1,252.6,54.3
		c0,88.7-47.7,141.1-127.7,141.1C2717.4,10384.3,2684.1,10378.6,2669.8,10370z M2806.1,10329.1c23.8-24.8,27.6-35.3,27.6-81
		c0-44.8-3.8-58.2-26.7-82.9c-48.6-54.3-133.5-34.3-155.4,38.1c-24.8,82,16.2,153.5,86.7,153.5
		C2769.9,10356.7,2784.2,10351,2806.1,10329.1z"/>
	<path class="st0" d="M17558.3,9783.8c-36.2-28.6-53.4-67.7-53.4-121.1c0-85.8,69.6-151.6,147.8-140.1c53.4,7.6,80.1,28.6,102,78.2
		c30.5,69.6,7.6,159.2-49.6,188.8C17664.1,9810.5,17588.8,9808.6,17558.3,9783.8z M17700.3,9752.3c28.6-28.6,39.1-82.9,24.8-130.6
		c-13.3-44.8-44.8-67.7-93.4-67.7c-27.6,0-41,6.7-62,29.6c-22.9,24.8-26.7,38.1-26.7,82.9c0,45.8,3.8,56.2,27.6,81
		C17607.8,9783.8,17666,9786.6,17700.3,9752.3z"/>
	<path class="st0" d="M4463.9,9596c-44.8-21.9-70.5-70.5-70.5-130.6c0-90.6,46.7-138.2,135.4-138.2c77.2,0,125.8,53.4,125.8,138.2
		c0,64.8-23.8,108.7-70.5,129.6C4535.4,9616.9,4505.8,9617.9,4463.9,9596z M4590.6,9545.5c21.9-23.8,25.7-36.2,25.7-81
		c0-45.8-3.8-56.2-27.6-81c-56.2-56.2-143.9-24.8-159.2,56.2c-10.5,52.4,13.3,107.7,53.4,128.7
		C4524.9,9589.3,4556.3,9582.6,4590.6,9545.5z"/>
	<path class="st0" d="M13904.3,9441.5c-40-23.8-60.1-64.8-60.1-121.1c0-84.8,56.2-145.9,133.5-145.9c75.3,0,128.7,59.1,128.7,142
		c-1,90.6-48.6,143.9-130.6,143.9C13952,9460.6,13922.4,9453,13904.3,9441.5z M14035.9,9405.3c56.2-49.6,42.9-160.2-23.8-191.6
		c-40-19.1-96.3,0-116.3,39.1c-23.8,46.7-14.3,128.7,19.1,157.3C13951,9440.6,13997.7,9439.6,14035.9,9405.3z"/>
	<path class="st0" d="M17743.2,9439.6c0-6.7,39.1-216.4,85.8-467.1c47.7-249.8,85.8-458.5,85.8-464.3c0-6.7-7.6-6.7-23.8-1
		c-19.1,6.7-30.5,5.7-48.6-5.7c-12.4-8.6-24.8-14.3-26.7-12.4c-1,1.9-26.7,134.4-57.2,294.6c-123.9,665.4-120.1,646.3-140.1,641.6
		c-9.5-2.9-18.1-6.7-18.1-8.6s41-221.2,91.5-486.2c49.6-265,89.6-483.3,87.7-484.3c-1.9-1.9-150.6-128.7-329.8-282.2
		c-290.8-247.9-326-280.3-313.6-293.6c13.3-12.4,54.3,21,373.7,293.6c355.6,304.1,359.4,307.9,388.9,298.4
		c27.6-8.6,1043.9-367,1077.2-380.4c8.6-2.9,15.3,2.9,19.1,14.3c2.9,14.3-1.9,21-21,27.6c-13.3,5.7-245.9,87.7-515.7,182.1
		c-268.8,95.3-491.9,174.5-493.8,176.4c-3.8,3.8-183,946.6-183,960.9c0,4.8-8.6,7.6-19.1,7.6S17743.2,9445.4,17743.2,9439.6z"/>
	<path class="st0" d="M10234.1,9266.1c-33.4-30.5-35.3-36.2-39.1-97.2c-1.9-53.4,1-71.5,17.2-97.2c47.7-76.3,171.6-76.3,219.3,0
		c16.2,25.7,19.1,43.9,17.2,97.2c-3.8,61-5.7,66.7-39.1,97.2c-30.5,28.6-41,32.4-87.7,32.4
		C10275.1,9298.5,10264.6,9294.7,10234.1,9266.1z M10377.1,9249.9c56.2-43.9,53.4-154.4-5.7-189.7c-17.2-10.5-39.1-19.1-49.6-19.1
		c-37.2,0-79.1,35.3-90.6,76.3c-21,77.2,23.8,152.5,90.6,152.5C10339,9269.9,10363.8,9261.4,10377.1,9249.9z"/>
	<path class="st0" d="M15553.5,8015.4c-252.6-214.5-362.3-314.6-358.4-324.1c2.9-7.6,10.5-13.3,18.1-11.4
		c6.7,1.9,169.7,137.3,361.3,301.2l348.9,298.4l399.4-228.8c363.2-206.9,401.3-226.9,409.9-210.7c8.6,16.2-33.4,41.9-400.4,251.7
		c-225,128.7-410.9,234.5-412.8,234.5S15752.7,8186.1,15553.5,8015.4z"/>
	<path class="st0" d="M16885.2,7841.9c-44.8-21.9-70.5-70.5-70.5-130.6c0-90.6,46.7-138.2,135.4-138.2
		c77.2,0,125.8,53.4,125.8,138.2c0,64.8-23.8,108.7-70.5,129.6C16956.7,7862.9,16927.2,7863.8,16885.2,7841.9z M17012,7791.4
		c21.9-23.8,25.7-36.2,25.7-81c0-45.8-3.8-56.2-27.6-81c-56.2-56.2-143.9-24.8-159.2,56.2c-10.5,52.4,13.3,107.7,53.4,128.7
		C16946.2,7835.2,16977.7,7828.6,17012,7791.4z"/>
	<path class="st0" d="M14926.2,7647.4c-71.5-56.2-67.7-184.9,6.7-240.2c18.1-13.3,41.9-19.1,74.4-19.1c32.4,0,56.2,5.7,74.4,19.1
		c74.4,55.3,78.2,184,6.7,240.2c-20,16.2-39.1,21-81,21C14965.3,7668.4,14946.2,7663.7,14926.2,7647.4z M15055.9,7630.3
		c41-22.9,60.1-110.6,34.3-162.1c-6.7-13.3-27.6-31.5-47.7-41c-34.3-17.2-36.2-17.2-70.5,0c-47.7,22.9-62,52.4-57.2,116.3
		c2.9,41.9,8.6,56.2,29.6,74.4C14972,7641.7,15023.5,7647.4,15055.9,7630.3z"/>
	<path class="st0" d="M2906.2,7486.3c-36.2-28.6-53.4-67.7-53.4-121.1c0-85.8,69.6-151.6,147.8-140.1c53.4,7.6,80.1,28.6,102,78.2
		c30.5,69.6,7.6,159.2-49.6,188.8C3012,7513,2936.7,7511.1,2906.2,7486.3z M3048.2,7454.9c28.6-28.6,39.1-82.9,24.8-130.6
		c-13.3-44.8-44.8-67.7-93.4-67.7c-27.6,0-41,6.7-62,29.6c-22.9,24.8-26.7,38.1-26.7,82.9c0,45.8,3.8,56.2,27.6,81
		C2955.7,7486.3,3013.9,7489.2,3048.2,7454.9z"/>
	<path class="st0" d="M9912.9,7162.2c-36.2-28.6-53.4-67.7-53.4-121.1c0-85.8,69.6-151.6,147.8-140.1c53.4,7.6,80.1,28.6,102,78.2
		c30.5,69.6,7.6,159.2-49.6,188.8C10018.7,7188.9,9943.4,7187,9912.9,7162.2z M10054.9,7130.8c28.6-28.6,39.1-82.9,24.8-130.6
		c-13.3-44.8-44.8-67.7-93.4-67.7c-27.6,0-41,6.7-62,29.6c-22.9,24.8-26.7,38.1-26.7,82.9c0,45.8,3.8,56.2,27.6,81
		C9962.4,7162.2,10020.6,7165.1,10054.9,7130.8z"/>
	<path class="st0" d="M15725.1,6238.5c-41-24.8-60.1-64.8-60.1-125.8c0-85.8,50.5-141.1,128.7-141.1c79.1,0,128.7,55.3,128.7,143
		c0,62-22.9,105.8-65.8,128.7C15817.6,6263.3,15762.3,6261.4,15725.1,6238.5z M15856.6,6204.2c10.5-9.5,22.9-32.4,27.6-53.4
		c21-75.3-24.8-150.6-90.6-150.6c-105.8,0-133.5,183-33.4,222.1C15783.2,6231.8,15837.6,6221.3,15856.6,6204.2z"/>
	<path class="st0" d="M15907.2,5897.2c-6.7-4.8,16.2-148.7,73.4-464.3c46.7-251.7,83.9-463.3,84.8-469c0-8.6-9.5-10.5-28.6-5.7
		c-20,3.8-34.3,0-46.7-10.5c-10.5-9.5-20-13.3-22.9-8.6c-1.9,3.8-41.9,216.4-87.7,472.8c-75.3,411.8-86.7,464.3-102,464.3
		c-10.5,0-17.2-6.7-17.2-18.1c0-9.5,39.1-228.8,85.8-487.1c82.9-451.9,85.8-470.9,69.6-486.2c-9.5-9.5-152.5-131.6-317.4-271.7
		s-304.1-259.3-309.8-263.1c-5.7-5.7-3.8-14.3,5.7-22.9c12.4-12.4,55.3,21,369.9,289.8l356.5,304.1l158.2-55.3
		c86.7-30.5,337.5-118.2,556.7-195.4c325.1-114.4,401.3-138.2,408-127.7c4.8,7.6,8.6,15.3,8.6,18.1s-230.7,85.8-512.9,184.9
		c-281.2,99.1-515.7,183-520.5,186.8c-3.8,4.8-47.7,223.1-95.3,487.1c-48.6,263.1-91.5,480.5-97.2,482.4
		C15921.5,5902.9,15912.9,5901,15907.2,5897.2z"/>
	<path class="st0" d="M1882.3,5739c-39.1-21-59.1-62.9-59.1-123.9c0-70.5,23.8-112.5,76.3-133.5c48.6-19.1,62-19.1,111.5,2.9
		c50.5,22.9,69.6,59.1,69.6,131.6c0,91.5-41.9,135.4-128.7,135.4C1926.2,5751.4,1894.7,5746.6,1882.3,5739z M2012,5702.7
		c46.7-50.5,49.6-129.6,5.7-172.5c-76.3-76.3-187.8,6.7-156.3,116.3c14.3,51.5,44.8,77.2,90.6,77.2
		C1980.5,5723.7,1996.7,5718,2012,5702.7z"/>
	<path class="st0" d="M1990.1,5381.5c-2.9-4.8,31.5-209.7,76.3-455.7c44.8-245,81-451.9,81-460.4c0-9.5-119.2-82.9-330.8-205
		c-494.8-284.1-489-280.3-482.4-295.5c2.9-7.6,8.6-14.3,14.3-14.3c6.7,0,830.3,470,844.6,481.4c1.9,1-36.2,215.4-83.9,474.7
		c-46.7,259.3-85.8,474.7-85.8,477.6C2023.4,5393.9,1996.7,5391,1990.1,5381.5z"/>
	<path class="st0" d="M13714.6,4482.5c-198.3-169.7-361.3-313.6-364.2-319.4c-1.9-6.7,2.9-15.3,10.5-18.1
		c9.5-3.8,127.7,91.5,347,278.4c182.1,155.4,341.3,291.7,352.7,302.2l21,19.1l396.6-230.7c219.3-125.8,401.3-226.9,406.1-224
		s8.6,10.5,8.6,18.1c0,9.5-798.9,481.4-815.1,481.4C14075.9,4789.5,13912.9,4651.3,13714.6,4482.5z"/>
	<path class="st0" d="M15036.8,4296.6c-21-10.5-38.1-29.6-49.6-54.3c-47.7-105.8,10.5-215.4,114.4-215.4
		c54.3,0,92.5,21.9,115.3,66.7c23.8,46.7,23.8,98.2,1,148.7C15188.4,4307.1,15107.4,4330.9,15036.8,4296.6z M15160.7,4257.5
		c54.3-48.6,47.7-157.3-11.4-187.8c-80.1-41.9-150.6,17.2-139.2,116.3c5.7,54.3,47.7,98.2,92.5,98.2
		C15119.7,4284.2,15142.6,4273.7,15160.7,4257.5z"/>
	<path class="st0" d="M4840.4,4110.7c-71.5-56.2-67.7-184.9,6.7-240.2c18.1-13.3,41.9-19.1,74.4-19.1c32.4,0,56.2,5.7,74.4,19.1
		c74.4,55.3,78.2,184,6.7,240.2c-20,16.2-39.1,21-81,21S4860.4,4126.9,4840.4,4110.7z M4970.1,4093.6c41-22.9,60.1-110.6,34.3-162.1
		c-6.7-13.3-27.6-31.5-47.7-41c-34.3-17.2-36.2-17.2-70.5,0c-47.7,22.9-62,52.4-57.2,116.3c2.9,41.9,8.6,56.2,29.6,74.4
		C4886.2,4105,4937.6,4110.7,4970.1,4093.6z"/>
	<path class="st0" d="M8984.4,4118.4c-39.1-21-59.1-62.9-59.1-123.9c0-70.5,23.8-112.5,76.3-133.5c48.6-19.1,62-19.1,111.5,2.9
		c50.5,22.9,69.6,59.1,69.6,131.6c0,91.5-41.9,135.4-128.7,135.4C9028.2,4130.8,8996.8,4126,8984.4,4118.4z M9114,4082.1
		c46.7-50.5,49.6-129.6,5.7-172.5c-76.3-76.3-187.8,6.7-156.3,116.3c14.3,51.5,44.8,77.2,90.6,77.2
		C9082.5,4103.1,9098.8,4097.4,9114,4082.1z"/>
	<path class="st0" d="M13087.3,4111.7c-36.2-28.6-53.4-67.7-53.4-121.1c0-85.8,69.6-151.6,147.8-140.1c53.4,7.6,80.1,28.6,102,78.2
		c30.5,69.6,7.6,159.2-49.6,188.8C13193.1,4138.4,13117.8,4136.5,13087.3,4111.7z M13229.4,4080.2c28.6-28.6,39.1-82.9,24.8-130.6
		c-13.3-44.8-44.8-67.7-93.4-67.7c-27.6,0-41,6.7-62,29.6c-22.9,24.8-26.7,38.1-26.7,82.9c0,45.8,3.8,56.2,27.6,81
		C13136.9,4111.7,13195,4114.5,13229.4,4080.2z"/>
	<path class="st0" d="M1061.6,3972.5c-21-10.5-38.1-29.6-49.6-54.3c-47.7-105.8,10.5-215.4,114.4-215.4c54.3,0,92.5,21.9,115.3,66.7
		c23.8,46.7,23.8,98.2,1,148.7C1213.1,3983,1132.1,4006.8,1061.6,3972.5z M1185.5,3933.4c54.3-48.6,47.7-157.3-11.4-187.8
		c-80.1-41.9-150.6,17.2-139.2,116.3c5.7,54.3,47.7,98.2,92.5,98.2C1144.5,3960.1,1167.4,3949.6,1185.5,3933.4z"/>
	<path class="st0" d="M4962.4,3761.8c-8.6-5.7,9.5-123,69.6-467.1c44.8-253.6,80.1-462.3,78.2-463.3c-1-1.9-174.5-103-384.2-225
		c-475.7-275.5-429.9-246.9-412.8-264.1c12.4-11.4,63.9,15.3,418.5,221.2c222.1,129.6,409,240.2,414.7,245.9
		c7.6,8.6-11.4,135.4-73.4,483.3c-45.8,259.3-83.9,472.8-83.9,474.7C4987.2,3771.4,4973.9,3769.5,4962.4,3761.8z"/>
	<path class="st0" d="M1161.7,3600.7c1.9-9.5,41-212.6,85.8-450.9c44.8-238.3,82.9-440.4,85.8-449c2.9-11.4-120.1-119.2-452.8-395.6
		c-254.5-211.6-456.6-386.1-455.7-393.7c1-7.6,6.7-15.3,11.4-17.2c5.7-1.9,199.2,154.4,429,346c230.7,192.6,424.2,350.8,429,353.7
		c5.7,1.9,212.6-69.6,460.4-159.2c246.9-89.6,453.8-160.2,459.5-157.3c4.8,2.9,9.5,11.4,9.5,17.2c0,6.7-167.8,72.5-378.5,148.7
		c-208.8,75.3-409,147.8-444.2,161.1l-64.8,23.8l21,21.9c14.3,15.3,19.1,29.6,16.2,45.8c-2.9,14.3-1.9,24.8,1.9,24.8
		s203.1-70.5,443.3-157.3c239.3-86.7,438.5-155.4,444.2-152.5c4.8,3.8,8.6,11.4,8.6,18.1c0,7.6-177.3,76.3-454.7,177.3
		c-250.7,89.6-456.6,164.9-457.6,165.9c0,0-37.2,190.7-81,423.3c-75.3,401.3-80.1,421.4-100.1,421.4
		C1163.6,3616.9,1158.8,3612.2,1161.7,3600.7z"/>
	<path class="st0" d="M2405.7,2399.6c-51.5-25.7-69.6-62.9-65.8-140.1c3.8-61,5.7-66.7,39.1-97.2c30.5-27.6,41.9-32.4,83.9-32.4
		c89.6,0,132.5,45.8,132.5,140.1c0,66.7-21.9,106.8-69.6,129.6C2483.9,2419.6,2446.7,2419.6,2405.7,2399.6z M2498.2,2376.7
		c103.9-36.2,76.3-218.3-33.4-218.3c-99.1,0-131.6,166.8-41,211.6C2462.9,2390,2461,2390,2498.2,2376.7z"/>
	<path class="st0" d="M4037.7,2349.1c-56.2-33.4-80.1-99.1-61-167.8c29.6-110.6,181.1-135.4,239.3-39.1
		c22.9,36.2,24.8,107.7,5.7,154.4C4194.1,2361.4,4101.6,2388.1,4037.7,2349.1z M4148.3,2325.2c36.2-18.1,52.4-60.1,46.7-120.1
		c-5.7-59.1-28.6-83.9-81-91.5c-33.4-4.8-42.9-1-70.5,23.8c-30.5,26.7-32.4,33.4-32.4,86.7c1,42.9,5.7,62,19.1,78.2
		C4064.4,2339.5,4105.4,2348.1,4148.3,2325.2z"/>
	<path class="st0" d="M4139.7,1980.1c0-8.6,37.2-219.3,82-468.1l81-452.8l-21.9-21.9c-12.4-11.4-212.6-183-446.1-380.4
		c-386.1-326-453.8-390.8-412.8-390.8c5.7,0,196.4,156.3,422.3,348c225.9,191.6,416.6,348.9,423.3,350.8
		c5.7,1,214.5-68.6,463.3-155.4s452.8-157.3,453.8-157.3s3.8,8.6,6.7,18.1c4.8,19.1-10.5,24.8-691.1,261.2l-197.3,68.6l21,21.9
		c12.4,13.3,20,31.5,18.1,45.8c-1.9,12.4,1,22.9,6.7,22.9c4.8,0,205.9-68.6,446.1-152.5c239.3-83.9,436.6-152.5,437.6-152.5
		s3.8,8.6,6.7,18.1c4.8,21,43.9,5.7-557.7,215.4c-241.2,83.9-351.8,126.8-354.6,137.3c-2.9,8.6-38.1,201.1-78.2,428
		c-65.8,361.3-76.3,411.8-91.5,411.8C4147.4,1996.3,4139.7,1989.7,4139.7,1980.1z"/>
	<path class="st0" d="M5355.2,774.2c-71.5-56.2-67.7-184.9,6.7-240.2c18.1-13.3,41.9-19.1,74.4-19.1c32.4,0,56.2,5.7,74.4,19.1
		c74.4,55.3,78.2,184,6.7,240.2C5480.1,803.8,5392.4,803.8,5355.2,774.2z M5484.8,757.1c41-22.9,60.1-110.6,34.3-162.1
		c-6.7-13.3-27.6-31.5-47.7-41c-34.3-17.2-36.2-17.2-70.5,0c-47.7,22.9-62,52.4-57.2,116.3c2.9,41.9,8.6,56.2,29.6,74.4
		C5400.9,768.5,5452.4,774.2,5484.8,757.1z"/>
</g>
<g transform="translate(0.000000,600.000000) scale(0.100000,-0.100000)">
	<path class="st0" d="M3206.3,3787.7c-1-0.8-1.8-98.8-1.8-217.5v-215.7h214c182.1,0,214.5,0.5,217.5,3.5c3,3,3.5,35.5,3.5,217.5v214
		h-215.7C3305.2,3789.5,3207.1,3788.7,3206.3,3787.7z M3554.9,3744.5c7.5-3,10.6-10.8,7-17.6c-1.8-3.3-2-5.5-0.3-6.5
		c4.5-2.8,3-18.4-2.3-21.4c-11.1-5.8-27.9-1.3-27.9,7.5c0,6,6.3,6.5,9.6,1c3.3-5.8,11.6-3.3,12.6,3.5c0.8,4.3-0.5,6.3-4.3,7.3
		c-6.8,1.8-6.8,8.3-0.3,8.3c3.3,0,5,1.8,5,5c0,6-8.8,7-12.1,1.3c-2-3.8-10.6-3-10.6,1c0.3,2.8,6.3,9.6,10.1,11.1
		C3547.1,3747,3548.1,3747,3554.9,3744.5z M3601.9,3740.5c0-2.8-2.8-3.8-10.1-3.8c-7.3,0-10.1-1-10.1-3.8c0-2.5,2.8-3.8,8.8-3.8
		c6,0,9.3-1.5,11.3-4.8c3.8-7.3,3-19.4-1.5-23.9c-5.8-6-20.1-5-26.7,1.8l-5.8,5.5l6,0.8c3.3,0.5,6.8-0.5,7.8-2c1-1.8,4-2.5,6.5-2
		c3.5,0.5,4.8,3,4.8,8.3c0,7.3-0.3,7.5-11.1,6.8l-11.1-0.8l1.8,8c0.8,4.3,1.5,10.1,1.5,12.6c0,4,2,4.8,13.8,4.8
		C3598.6,3744.2,3601.9,3743.5,3601.9,3740.5z M3418.8,3681.1c24.6-9.6,37-27.4,37.2-52.8c0-20.1-7.8-34.2-24.4-42.7l-12.8-6.8
		l9.8-2.8c12.8-3.8,25.9-15.3,32.2-28.9c5.8-11.8,7.3-38.7,2.8-54.6c-3.8-13.1-18.1-28.4-33.2-35.2c-12.8-5.8-15.6-6-85.5-6.8
		l-72.4-0.8V3568v118.4h66.6C3400.5,3686.4,3406.5,3685.9,3418.8,3681.1z M3589.3,3601.4v-19.6l-13.8-2.8
		c-17.6-3.8-28.2-11.3-34.2-24.4c-4-8.8-4.8-16.8-4.8-57.3V3450h-20.1h-20.1v81.7c0,45-0.3,82.5-0.5,83.7c-0.5,1,8.5,2,20.1,2.5
		l20.6,0.8v-11.6v-11.8l6.8,8.3c8.3,9.8,23.9,17.1,36.7,17.4h9.3V3601.4z"/>
	<path class="st0" d="M3317.7,3621v-30.2h29.7c48,0,60.9,6.5,60.9,30.9c0,10.8-1.3,14.6-5.5,18.9c-9.6,8.8-18.6,10.6-52.6,10.6
		h-32.4V3621z"/>
	<path class="st0" d="M3319.5,3556.4c-1-0.8-1.8-16.8-1.8-35.5v-33.7l39.7,1c36.2,0.8,40.2,1.3,48.8,6.5c7,4.3,10.1,8.5,12.3,16.1
		c5.5,21.4-4.3,39.5-23.9,44.5C3382.6,3558.4,3322.3,3559.2,3319.5,3556.4z"/>
	<path class="st0" d="M4033.1,3685.1c-31.4-7-44.8-17.1-33.4-24.9c3-2.3,7-4,8.8-4c1.8,0,5.5-2.3,8.3-5c4.8-4.8,5-8.3,5-86.5
		c0-44.8-0.8-83.5-1.5-85.7c-1-2-5.5-5.5-10.1-7.5c-5.5-2.3-8.5-5.3-8.5-8.3c0-9.8,6.5-11.8,40.2-11.8s40.2,2,40.2,11.8
		c0,3-3,6-8.5,8.3c-4.5,2-9.1,5.3-9.8,7.3c-1.3,3.3-2.3,35.5-2,55.1c0.3,4,1.5,6.8,3,6.3s17.6-19.6,36-42.2
		c18.1-22.9,36-42.7,39.2-44.5c8-4,37.2-4,45.3,0c3.8,2,6.5,5.8,7,9.8c0.8,6-0.5,7-9.3,9.8c-5.5,1.5-14.1,6.3-18.9,10.3
		c-12.3,10.1-59.3,69.4-59.3,74.9c0,7.8,25.4,29.2,42,35.2c17.6,6.3,20.9,11.1,13.3,18.6c-4.3,4.3-9.1,5.5-25.9,6
		c-35.2,1.5-51.8-8.3-35.7-21.1l7-5.5l-6-7.3c-6.8-8.3-30.4-28.9-34.7-30.4c-2-0.8-2.8,16.6-2.8,65.6
		C4062,3697.5,4064.3,3692.2,4033.1,3685.1z"/>
	<path class="st0" d="M4226,3679.9c-22.6-11.6-14.3-39.5,11.6-39.2c13.3,0.3,20.4,4,24.4,13.6c3.8,9.3,2.5,15.1-5,22.1
		C4249.4,3683.6,4236.3,3685.1,4226,3679.9z"/>
	<path class="st0" d="M4630.6,3621.5c-11.1-6.3-11.6-6.3-31.7-3.5c-27.9,4-43.5,3.8-58.8-1.3c-25.6-8-45.5-33.9-45.5-58.6
		c0-12.1,8.8-33.9,16.1-40c3.8-3.3,3.5-4-4.3-9.3c-21.1-14.3-20.4-40.5,1.5-49.8c2-0.8,1.3-2.3-2-4.3c-27.9-17.6-23.6-44.5,9.8-62.1
		c12.1-6.5,14.6-6.8,46.8-6.8c29.9,0,35.7,0.8,49,6c38.5,15.6,56.1,57.3,32.4,78.2c-13.6,11.8-24.9,13.6-62.6,10.3
		c-32.9-2.8-47.8-1.5-55.3,4.8c-4.5,3.8-4.8,12.6-0.5,18.4c2.5,3.5,4.5,3.8,11.8,1.8c12.8-3.8,40-3,54.3,1.3
		c15.6,4.5,32.9,19.1,39,32.4c5,11.3,6.3,35,2.3,45.5c-2.3,5.8-1.5,7.5,7.5,16.1c10.3,9.8,11.8,14.6,7.5,23.1
		C4644.7,3629.6,4644.4,3629.6,4630.6,3621.5z M4579,3596.9c17.1-8.3,23.9-36,13.6-56.1c-6.8-13.6-23.1-20.1-36.7-15.1
		c-13.8,5.3-19.4,14.6-20.6,33.2c-1,19.4,4.5,31.2,17.1,37.5C4563.2,3601.9,4568.2,3601.9,4579,3596.9z M4613.7,3447.3
		c8.5-6.5,8.5-16.8,0.3-25.9c-21.6-23.1-83-20.6-89.3,3.8c-1,3.5-0.5,10.3,1,15.1l2.8,8.5l28.9,1.5c15.8,0.8,33.7,1.5,39.2,1.8
		C4603.9,3452.3,4608.9,3451,4613.7,3447.3z"/>
	<path class="st0" d="M3716.3,3617.5c-23.9-7.5-40.7-22.1-51.3-44.3c-5.3-11.3-6.8-18.4-7.3-38.5c-1-23.6-0.5-25.6,6.8-40.7
		c21.4-43,70.7-58.8,114.4-36.7c27.7,14.3,43.5,38,26.4,40c-4,0.5-9.6-2-15.8-6.8c-13.1-10.3-31.7-16.3-45.5-14.3
		c-24.1,3.8-44,25.6-44,48.8v10.6h50c28.2,0,53.3,1,57.1,2.5c6.5,2.5,6.8,3,5.5,21.1c-0.8,13.1-3,21.6-7.3,29.2
		c-7,13.1-23.6,26.4-37,30.2C3755.8,3621.8,3728.6,3621.5,3716.3,3617.5z M3758.5,3594.4c9.6-5,16.8-17.9,16.8-29.2v-9.6h-36.5
		c-41,0-41.2,0-36.7,16.8C3708.7,3596.4,3734.9,3606.4,3758.5,3594.4z"/>
	<path class="st0" d="M3879.7,3618.8c-12.6-3.3-25.4-10.1-32.2-17.4c-12.6-13.3-8.3-33.2,7.3-33.2c4.3,0,11.3,4.5,20.9,13.6
		c16.6,16.1,25.4,20.1,38.5,17.9c7.8-1.5,10.1-3.3,14.3-12.3c3-6,5.3-15.6,5.3-22.1v-11.6h-28.2c-52.6,0-77.2-17.6-77.4-55.8
		c0-31.7,20.1-49.8,55.3-50c13.3-0.3,19.1,1.3,31.2,7.3c8,4.3,15.6,7.5,16.8,7.5c1,0,5.3-3.3,9.3-7.5c6-6,9.8-7.5,18.1-7.5
		c12.1,0,24.6,4.8,31.2,12.1c6,7,4.5,10.6-7.5,16.8l-9.8,5l-1.5,52.8c-0.8,29.4-2.5,55.6-4,59.1c-3.8,8.5-11.8,16.6-21.6,21.9
		C3936.6,3619.8,3892.8,3622.3,3879.7,3618.8z M3928.3,3531.5c5-1.5,5.5-3,5.5-17.6c0-18.4-4.5-31.9-12.1-36
		c-3-1.5-12.1-2.8-20.6-2.8c-14.1,0-16.3,0.8-22.9,7.8c-5.8,6.3-7.3,10.1-7.3,19.6c0,13.8,5,21.9,16.1,26.9
		C3895.1,3533,3918.2,3534,3928.3,3531.5z"/>
	<path class="st0" d="M4231,3617c-32.4-8.5-42.2-20.4-23.4-27.9c5.5-2.3,10.8-5.8,11.8-8c2.5-6,4.5-78.5,2.5-92
		c-1.5-9.8-3.3-12.6-10.6-16.8c-7-4-8.5-6.5-8-11.6c0.5-4.5,2.8-7,7-8.3c8-2.3,49.8-2.8,60.1-0.8c10.6,2.3,14.6,9.6,8,15.1
		c-2.5,2.3-7.8,7-11.6,10.3l-7,6.3l1.8,64.9c0.8,35.5,1,66.6,0,68.9C4259.7,3622,4249.4,3622,4231,3617z"/>
	<path class="st0" d="M4318.3,3614.7c-20.1-6.5-28.7-12.8-25.9-19.6c0.8-2.3,4.5-4.8,8.5-5.5c12.8-2.8,13.8-6,14.6-54.8
		c0.5-24.6,0.3-47.8-0.5-51.3c-1-3.3-5.5-8.3-10.3-11.3c-4.8-2.8-8.8-7-8.8-9.6c0-9.3,6.8-11.3,40.2-11.3c23.4,0,32.9,1,36,3.5
		c6.5,5.3,5,9.8-5.5,16.3c-8.8,5.5-10.1,7.8-11.6,19.4c-2,14.6,0.3,56.6,4,70.9c1.5,5.3,5.8,13.1,9.6,17.4c5.8,6.5,9.3,8,20.6,9.1
		c12.1,1,14.8,0.3,20.9-4.8c3.8-3.5,7.8-10.3,9.1-16.1c2.8-11.3,3.3-81.5,1-88c-1-2-5.5-5.5-10.1-7.5c-5.5-2.3-8.5-5.3-8.5-8.3
		c0-9.8,6.5-11.8,40.2-11.8c23.4,0,32.9,1,36,3.5c6.8,5.5,5,12.3-3.8,16.8c-4.5,2.3-9.1,5.5-10.1,7c-1,1.5-2,22.6-2,46.8
		c0,24.1-1.3,48.5-2.8,54.1c-4.3,15.8-14.1,28.2-28.2,35.2c-21.9,10.8-44,7.8-62.6-8.5c-10.8-9.6-12.1-9.6-12.1-1.3
		C4356.2,3622.3,4348.4,3624.3,4318.3,3614.7z"/>
	<path class="st0" d="M3637.6,3354.5c-2.3-3.8-3-52.8-3-217.5v-212.5l217,0.5l216.8,0.8l0.8,217l0.5,216.8h-214.5
		C3644.1,3359.5,3640.9,3359.5,3637.6,3354.5z M3989.1,3315.8c0-2.5-3.3-4-9.3-4.5c-6.8-0.5-9.8-2-10.3-5c-0.5-3.3,0.3-4,3-3
		c7.3,2.8,15.8-1.3,19.1-8.8c6.3-15.3-9.6-29.4-25.1-22.1c-8,4-9.8,11.8-2.8,11.8c3,0,5.3-1,5.3-2.3c0-4.3,7.3-5,11.3-1.3
		c4.8,4.8,4.8,6.3,0.3,12.3c-3,4.3-4.3,4.5-9.8,1.5c-8.5-4.5-11.8-1.8-10.1,9.3c2,15.3,2.3,15.6,15.8,15.6
		C3985.8,3319.3,3989.1,3318.3,3989.1,3315.8z M4029.3,3314.5c3.5-6.8,3.3-7.8-2.5-7.8c-2.8,0-5,1.3-5,2.8c0,5-11.3,1.3-12.1-4.3
		c-0.8-4.5,0.3-5,6.5-4c13.1,1.8,20.9-14.1,12.3-25.6c-4.8-6.5-19.1-6-24.9,1c-6.5,8-6.3,30.9,0.5,37.7S4025.6,3321,4029.3,3314.5z
		 M3819.4,3250.1c20.4-10.3,28.9-21.6,30.7-41c2.5-28.4-5-44.3-25.4-53.6c-8.5-3.8-9.6-4.8-5.3-6c24.9-8,39-24.4,42.7-49.3
		c2.3-15.8-2.5-39-10.6-50.8c-9.1-13.1-25.9-22.4-47.3-26.2c-10.3-1.8-41.5-3-75.9-3.3h-58.6v119.7v119.4l67.4-0.8l67.1-0.8
		L3819.4,3250.1z M4004.7,3186.5c8.8-4,14.1-8.5,19.6-17.4l7.5-11.8v-59.1c0.3-43,1.3-61.9,3.5-68.6l3.5-9.6h-22.1h-22.1l-1.8,7
		l-1.5,7l-17.1-8.5c-49.8-24.6-101.3,3.8-94.5,52.6c1.3,9.1,4,14.8,11.6,23.1c11.6,13.3,22.6,18.1,56.3,24.6c41.2,8,44,9.1,44,16.3
		c0,3.5-2.8,9.1-6.3,12.3c-5.5,5.5-8.3,6.3-26.2,6.3c-18.6,0-20.4-0.5-25.1-6.5c-3-3.8-5.3-8.8-5.3-11.3c0-4.3-2.3-4.8-20.1-4.8
		h-20.1v8.3c0,9.8,8.8,25.9,17.9,32.7c3.8,2.8,12.8,7,20.1,9.6C3945.1,3195.6,3987.4,3194.3,4004.7,3186.5z"/>
	<path class="st0" d="M4010.2,3290.6c-2.3-6,0.8-11.6,6.5-11.6c4.3,0,5.3,1.3,4.5,6.8C4020.5,3293.6,4012.8,3296.9,4010.2,3290.6z"
		/>
	<path class="st0" d="M3715,3193.6v-30.2h32.7c38,0,47.5,3,54.3,17.1c8,17.1-0.5,35.7-18.9,40.7c-5,1.3-22.4,2.5-38.5,2.5H3715
		V3193.6z"/>
	<path class="st0" d="M3715,3094.5v-34.2h36.5c40.5,0,49.5,2.3,58.8,14.1c4.8,6.3,5.5,9.6,4.8,21.9c-1,12.3-2.3,15.8-9.1,22.6l-8,8
		l-41.5,0.8l-41.5,0.8V3094.5z"/>
	<path class="st0" d="M3962.7,3097.5c-11.1-2.5-23.9-6.5-28.4-8.5c-14.6-6.3-16.3-23.9-3.3-33.9c13.1-10.3,49-2,56.8,13.1
		c2,3.8,3.8,13.3,3.8,21.1C3991.6,3105.3,3993.1,3104.8,3962.7,3097.5z"/>
	<path class="st0" d="M4210.4,3253.4c-9.1-2.8-18.4-6.8-20.9-9.1c-6.5-5.8-4.3-13.6,5-16.6c12.1-4.3,13.8-7,15.3-26.9
		c1.5-20.6,4-19.4-24.6-11.1c-26.7,7.8-55.1-0.8-75.2-22.9c-13.3-14.6-19.6-29.2-22.9-52.6c-6.8-52.8,23.4-94.8,68.9-95
		c16.1,0,23.9,2.8,43.8,16.3l10.6,7.3v-8.3c0-13.6,2.8-15.6,18.1-13.8c7.5,0.8,20.4,4,28.7,7.3c12.3,4.8,14.8,6.8,14.8,11.8
		c0,5-2,6.5-9.8,8.8c-7.8,2.3-10.3,4.5-12.1,10.3c-1.3,4.3-2,49.5-1.8,100.8c0.3,51.5-0.5,94.8-1.3,96.3
		C4244.3,3260.4,4228.8,3259.2,4210.4,3253.4z M4193.3,3163.1c5-2.5,10.6-7,12.1-9.6c4.3-8,3.3-79.5-1.3-88.3
		c-7-13.6-27.7-20.4-43-13.8c-14.1,5.8-20.4,12.8-26.4,28.7c-6.3,16.8-7,47.5-1.5,60.9C4144.8,3168.7,4166.6,3176.7,4193.3,3163.1z"
		/>
</g>
</svg>
