<?xml version="1.0" standalone="no"?>
<!DOCTYPE svg PUBLIC "-//W3C//DTD SVG 20010904//EN"
 "http://www.w3.org/TR/2001/REC-SVG-20010904/DTD/svg10.dtd">
<svg version="1.0" xmlns="http://www.w3.org/2000/svg"
 width="240.000000pt" height="240.000000pt" viewBox="0 0 240.000000 240.000000"
 preserveAspectRatio="xMidYMid meet">

<g transform="translate(0.000000,240.000000) scale(0.100000,-0.100000)"
fill="#BFBFBF" stroke="none">
<path d="M1015 1959 c-99 -204 -184 -373 -190 -375 -5 -2 -192 -28 -414 -58
-222 -31 -405 -57 -406 -58 -1 -2 134 -133 300 -292 191 -184 301 -296 299
-305 -12 -48 -144 -804 -142 -806 2 -2 166 84 365 191 200 107 368 194 375
194 7 -1 175 -88 373 -195 198 -106 361 -192 363 -190 2 2 -130 758 -142 806
-2 9 108 121 299 305 166 159 301 290 300 292 -1 1 -184 27 -406 58 -222 30
-409 56 -414 58 -6 2 -91 171 -190 375 -98 204 -182 371 -185 371 -3 0 -87
-167 -185 -371z"/>
</g>
</svg>
