<?xml version="1.0" standalone="no"?>
<!DOCTYPE svg PUBLIC "-//W3C//DTD SVG 20010904//EN"
 "http://www.w3.org/TR/2001/REC-SVG-20010904/DTD/svg10.dtd">
<svg version="1.0" xmlns="http://www.w3.org/2000/svg"
 width="232.000000pt" height="100.000000pt" viewBox="0 0 232.000000 100.000000"
 preserveAspectRatio="xMidYMid meet">

<g transform="translate(0.000000,100.000000) scale(0.100000,-0.100000)"
fill="#1e3a2a" stroke="none">
<path d="M294 845 c-13 -20 -25 -25 -59 -25 -57 0 -75 -21 -75 -91 0 -30 -9
-112 -20 -184 l-19 -130 21 -77 c20 -73 23 -78 49 -78 22 0 29 -5 34 -30 13
-59 19 -60 360 -60 l310 0 22 -39 c50 -87 163 -78 212 16 l12 23 358 0 359 0
12 -31 c16 -38 64 -69 105 -69 41 0 95 35 108 70 9 23 18 30 38 30 51 0 69 27
75 115 l6 80 -136 190 c-75 105 -146 200 -157 213 -20 21 -29 22 -165 22
l-144 0 0 24 c0 47 -22 56 -139 56 -116 0 -131 -6 -131 -52 l0 -28 -112 0
-112 0 -42 41 c-52 51 -83 44 -33 -7 l33 -34 -91 0 -92 0 -3 33 c-3 32 -3 32
-62 35 -63 3 -76 -4 -76 -45 0 -22 -3 -23 -94 -23 -92 0 -93 0 -89 23 9 46
-18 57 -137 57 -106 0 -110 -1 -126 -25z m226 -10 c7 -8 10 -22 6 -30 -8 -22
-204 -22 -212 0 -13 33 15 45 106 45 65 0 91 -4 100 -15z m1038 6 c8 -5 12
-17 10 -27 -3 -17 -15 -19 -104 -22 -87 -2 -103 0 -108 14 -13 33 12 44 103
44 47 0 92 -4 99 -9z m-708 -16 c18 -22 3 -35 -41 -35 -31 0 -39 4 -39 18 0
10 3 22 7 25 12 12 60 7 73 -8z m-588 -45 c-12 -5 -27 -21 -34 -35 -15 -34
-38 -32 -38 3 0 38 6 42 54 41 35 0 38 -2 18 -9z m476 -42 l-3 -23 -242 -3
c-208 -2 -243 0 -243 12 0 31 36 35 263 36 l228 0 -3 -22z m1156 6 c9 -8 16
-20 16 -25 0 -5 -226 -9 -570 -9 l-570 0 0 25 0 25 554 0 c491 0 556 -2 570
-16z m-1686 -86 c-3 -35 -28 -52 -28 -20 0 28 10 52 22 52 5 0 8 -14 6 -32z
m530 -110 l3 -138 44 0 c25 0 45 5 45 10 0 6 -13 10 -30 10 l-30 0 0 130 0
130 577 0 c522 0 578 -2 595 -17 29 -26 22 -32 -49 -35 l-68 -3 0 -65 0 -65
122 -3 121 -3 41 -54 c23 -30 41 -57 41 -60 0 -3 -124 -5 -275 -5 l-275 0 0
130 0 130 -26 10 c-14 6 -40 10 -59 10 -19 0 -45 -4 -59 -10 l-26 -10 0 -130
0 -130 -609 0 c-540 0 -610 2 -615 15 -6 17 28 267 39 285 4 7 85 9 248 8
l242 -3 3 -137z m832 -103 l0 -186 -57 3 -58 3 -3 170 c-1 93 0 175 2 182 4 8
25 13 61 13 l55 0 0 -185z m-1379 94 c-3 -23 -12 -44 -20 -47 -10 -3 -12 5 -6
39 8 50 13 61 24 55 4 -3 5 -24 2 -47z m-15 -124 c1 -45 -9 -59 -20 -29 -11
28 -7 74 7 74 8 0 12 -16 13 -45z m1252 -115 c2 -24 8 -50 14 -57 14 -17 130
-17 146 -1 7 7 12 34 12 60 l0 48 285 0 285 0 0 -49 c0 -70 -14 -101 -45 -101
-19 0 -28 8 -39 34 -39 95 -176 97 -215 4 l-16 -38 -357 0 -356 0 -7 30 c-4
16 -20 41 -36 54 -67 57 -156 38 -191 -41 l-19 -43 -312 2 -312 3 -22 65 c-12
36 -22 68 -22 73 -1 4 270 6 602 5 l602 -3 3 -45z m-1227 12 c6 -16 5 -22 -6
-22 -8 0 -15 4 -15 9 0 5 -3 17 -7 27 -4 11 -2 15 7 12 7 -2 17 -14 21 -26z
m860 -70 c47 -39 16 -122 -47 -122 -30 0 -64 37 -64 69 0 31 37 71 66 71 12 0
32 -8 45 -18z m960 0 c47 -39 16 -122 -47 -122 -57 0 -83 73 -42 117 26 28 58
29 89 5z"/>
<path d="M297 634 c-12 -12 -8 -129 5 -142 19 -19 372 -17 387 2 7 9 11 40 9
78 l-3 63 -196 3 c-107 1 -198 -1 -202 -4z"/>
<path d="M1187 634 c-15 -16 -7 -73 12 -84 23 -12 150 -13 169 -1 8 5 12 23
10 47 l-3 39 -90 3 c-50 1 -94 0 -98 -4z"/>
<path d="M1644 626 c-3 -7 -4 -38 -2 -67 l3 -54 64 -3 c74 -3 81 2 81 65 0 69
-4 73 -76 73 -46 0 -66 -4 -70 -14z"/>
<path d="M904 517 c-3 -8 -4 -34 -2 -58 l3 -44 100 0 100 0 0 55 0 55 -98 3
c-77 2 -98 0 -103 -11z m176 -42 l0 -35 -75 0 -75 0 0 28 c0 16 3 32 7 35 3 4
37 7 75 7 l68 0 0 -35z"/>
<path d="M297 314 c-4 -4 -7 -24 -7 -45 0 -46 12 -51 115 -47 l70 3 0 45 0 45
-85 3 c-47 1 -89 0 -93 -4z m153 -38 c0 -25 -2 -26 -65 -26 -56 0 -65 2 -65
18 0 27 4 28 70 31 58 2 60 1 60 -23z"/>
<path d="M522 273 l3 -48 85 0 85 0 3 48 3 47 -91 0 -91 0 3 -47z m147 18 c8
-5 11 -16 8 -25 -9 -23 -125 -23 -134 0 -3 9 -1 19 6 23 18 11 104 12 120 2z"/>
<path d="M986 224 c-22 -21 -20 -61 3 -74 31 -16 49 -12 67 15 15 23 15 27 0
50 -19 29 -47 32 -70 9z"/>
<path d="M1942 228 c-7 -7 -12 -24 -12 -38 0 -53 57 -69 86 -25 15 23 15 27 0
50 -18 27 -54 33 -74 13z"/>
</g>
</svg>
